new Font-Regular.ufo
<glyph name="year-ar" format="1">
  <advance width="500"/>
  <unicode hex="0601"/>
  <outline>
    <contour>
      <point x="922" y="95"/>
      <point x="907" y="75"/>
      <point x="896" y="55" type="curve" smooth="yes"/>
      <point x="940" y="-6" type="line" smooth="yes"/>
      <point x="925" y="-47"/>
      <point x="909" y="-59"/>
      <point x="872" y="-59" type="curve"/>
      <point x="844" y="-59"/>
      <point x="826" y="-52"/>
      <point x="813" y="-37" type="curve"/>
      <point x="800" y="-23"/>
      <point x="797" y="-4"/>
      <point x="797" y="14" type="curve"/>
      <point x="797" y="22"/>
      <point x="798" y="30"/>
      <point x="799" y="37" type="curve" smooth="yes"/>
      <point x="777" y="25" type="line" smooth="yes"/>
      <point x="776" y="16"/>
      <point x="775" y="6"/>
      <point x="772" y="-4" type="curve"/>
      <point x="764" y="-32"/>
      <point x="745" y="-59"/>
      <point x="701" y="-59" type="curve"/>
      <point x="645" y="-59"/>
      <point x="632" y="-29"/>
      <point x="629" y="-1" type="curve" smooth="yes"/>
      <point x="628" y="14"/>
      <point x="630" y="29"/>
      <point x="631" y="37" type="curve" smooth="yes"/>
      <point x="609" y="25" type="line" smooth="yes"/>
      <point x="605" y="8"/>
      <point x="605" y="-5"/>
      <point x="594" y="-22" type="curve"/>
      <point x="579" y="-44"/>
      <point x="557" y="-55"/>
      <point x="529" y="-55" type="curve"/>
      <point x="-40" y="-55" type="line" smooth="yes"/>
      <point x="-75" y="-55"/>
      <point x="-100" y="-46"/>
      <point x="-116" y="-28" type="curve" smooth="yes"/>
      <point x="-130" y="-12"/>
      <point x="-136" y="11"/>
      <point x="-134" y="42" type="curve"/>
      <point x="-156" y="30" type="line"/>
      <point x="-161" y="-26"/>
      <point x="-181" y="-55"/>
      <point x="-251" y="-55" type="curve" smooth="yes"/>
      <point x="-251" y="-55"/>
      <point x="-266" y="-55"/>
      <point x="-268" y="-56" type="curve"/>
      <point x="-297" y="-54"/>
      <point x="-319" y="-38"/>
      <point x="-335" y="-15" type="curve" smooth="yes"/>
      <point x="-353" y="11"/>
      <point x="-379" y="50"/>
      <point x="-418" y="50" type="curve" smooth="yes"/>
      <point x="-453" y="50"/>
      <point x="-489" y="19"/>
      <point x="-527" y="-50" type="curve" smooth="yes"/>
      <point x="-554" y="-99"/>
      <point x="-572" y="-150"/>
      <point x="-580" y="-174" type="curve"/>
      <point x="-562" y="-169" type="line"/>
      <point x="-558" y="-160"/>
      <point x="-544" y="-131"/>
      <point x="-524" y="-98" type="curve" smooth="yes"/>
      <point x="-504" y="-65"/>
      <point x="-475" y="-21"/>
      <point x="-431" y="-21" type="curve" smooth="yes"/>
      <point x="-398" y="-21"/>
      <point x="-384" y="-45"/>
      <point x="-367" y="-78" type="curve" smooth="yes"/>
      <point x="-355" y="-102"/>
      <point x="-348" y="-113"/>
      <point x="-339" y="-123" type="curve" smooth="yes"/>
      <point x="-323" y="-141"/>
      <point x="-303" y="-154"/>
      <point x="-266" y="-154" type="curve" smooth="yes"/>
      <point x="-232" y="-153" type="line" smooth="yes"/>
      <point x="-201" y="-153"/>
      <point x="-175" y="-142"/>
      <point x="-156" y="-122" type="curve" smooth="yes"/>
      <point x="-137" y="-102"/>
      <point x="-134" y="-85"/>
      <point x="-131" y="-77" type="curve"/>
      <point x="-130" y="-85"/>
      <point x="-125" y="-103"/>
      <point x="-110" y="-120" type="curve" smooth="yes"/>
      <point x="-94" y="-138"/>
      <point x="-70" y="-153"/>
      <point x="-26" y="-153" type="curve" smooth="yes"/>
      <point x="522" y="-153" type="line"/>
      <point x="557" y="-153"/>
      <point x="578" y="-139"/>
      <point x="592" y="-123" type="curve" smooth="yes"/>
      <point x="609" y="-102"/>
      <point x="612" y="-77"/>
      <point x="612" y="-77" type="curve" smooth="yes"/>
      <point x="617" y="-113"/>
      <point x="638" y="-153"/>
      <point x="691" y="-153" type="curve"/>
      <point x="747" y="-153"/>
      <point x="775" y="-113"/>
      <point x="783" y="-78" type="curve" smooth="yes"/>
      <point x="785" y="-106"/>
      <point x="807" y="-145"/>
      <point x="870" y="-145" type="curve"/>
      <point x="905" y="-145"/>
      <point x="928" y="-128"/>
      <point x="944" y="-106" type="curve"/>
      <point x="970" y="-69"/>
      <point x="974" y="-19"/>
      <point x="974" y="-14" type="curve"/>
      <point x="974" y="55"/>
      <point x="948" y="95"/>
      <point x="936" y="109" type="curve" smooth="yes"/>
    </contour>
  </outline>
</glyph>
<glyph name="uni0603" format="1">
  <advance width="600"/>
  <unicode hex="0603"/>
  <outline>
    <contour>
      <point x="-72" y="-96"/>
      <point x="-43" y="-132"/>
      <point x="-10" y="-157" type="curve"/>
      <point x="49" y="-154"/>
      <point x="27" y="-155"/>
      <point x="606" y="-154" type="curve" smooth="yes"/>
      <point x="657" y="-154"/>
      <point x="686" y="-130"/>
      <point x="695" y="-86" type="curve"/>
      <point x="702" y="-110"/>
      <point x="717" y="-129"/>
      <point x="744" y="-137" type="curve"/>
      <point x="736" y="-171" type="line"/>
      <point x="764" y="-171" type="line"/>
      <point x="772" y="-145" type="line"/>
      <point x="796" y="-150"/>
      <point x="819" y="-150"/>
      <point x="857" y="-150" type="curve" smooth="yes"/>
      <point x="918" y="-150"/>
      <point x="992" y="-123"/>
      <point x="1045" y="-82" type="curve" smooth="yes"/>
      <point x="1073" y="-60"/>
      <point x="1097" y="-34"/>
      <point x="1112" y="-9" type="curve" smooth="yes"/>
      <point x="1129" y="19"/>
      <point x="1138" y="51"/>
      <point x="1138" y="71" type="curve" smooth="yes"/>
      <point x="1138" y="88"/>
      <point x="1132" y="117"/>
      <point x="1102" y="140" type="curve" smooth="yes"/>
      <point x="1083" y="155"/>
      <point x="1054" y="167"/>
      <point x="1029" y="167" type="curve" smooth="yes"/>
      <point x="970" y="167"/>
      <point x="898" y="102"/>
      <point x="862" y="64" type="curve" smooth="yes"/>
      <point x="814" y="13"/>
      <point x="778" y="-44"/>
      <point x="771" y="-56" type="curve"/>
      <point x="753" y="-54"/>
      <point x="739" y="-46"/>
      <point x="727" y="-32" type="curve" smooth="yes"/>
      <point x="710" y="-13"/>
      <point x="708" y="10"/>
      <point x="713" y="45" type="curve"/>
      <point x="691" y="33" type="line"/>
      <point x="688" y="10"/>
      <point x="684" y="-5"/>
      <point x="672" y="-22" type="curve" smooth="yes"/>
      <point x="658" y="-42"/>
      <point x="640" y="-56"/>
      <point x="607" y="-56" type="curve" smooth="yes"/>
      <point x="532" y="-56"/>
      <point x="-39" y="-54"/>
      <point x="-101" y="-46" type="curve"/>
    </contour>
    <contour>
      <point x="827" y="-28"/>
      <point x="855" y="7"/>
      <point x="876" y="29" type="curve" smooth="yes"/>
      <point x="919" y="72"/>
      <point x="952" y="92"/>
      <point x="989" y="92" type="curve" smooth="yes"/>
      <point x="1027" y="92"/>
      <point x="1052" y="70"/>
      <point x="1066" y="54" type="curve" smooth="yes"/>
      <point x="1076" y="42"/>
      <point x="1080" y="32"/>
      <point x="1086" y="11" type="curve"/>
      <point x="1067" y="-11"/>
      <point x="1051" y="-24"/>
      <point x="1018" y="-38" type="curve" smooth="yes"/>
      <point x="994" y="-48"/>
      <point x="962" y="-56"/>
      <point x="922" y="-56" type="curve" smooth="yes"/>
      <point x="807" y="-56" type="line"/>
    </contour>
  </outline>
</glyph>
<glyph name="afghani-ar" format="1">
  <advance width="323"/>
  <unicode hex="060B"/>
  <outline>
    <contour>
      <point x="243" y="345"/>
      <point x="208" y="424"/>
      <point x="147" y="424" type="curve" smooth="yes"/>
      <point x="108" y="424"/>
      <point x="84" y="391"/>
      <point x="73" y="371" type="curve" smooth="yes"/>
      <point x="57" y="342"/>
      <point x="46" y="303"/>
      <point x="46" y="269" type="curve" smooth="yes"/>
      <point x="46" y="239"/>
      <point x="55" y="214"/>
      <point x="73" y="198" type="curve" smooth="yes"/>
      <point x="85" y="187"/>
      <point x="103" y="177"/>
      <point x="138" y="177" type="curve" smooth="yes"/>
      <point x="154" y="177"/>
      <point x="190" y="179"/>
      <point x="215" y="203" type="curve"/>
      <point x="218" y="179"/>
      <point x="207" y="153"/>
      <point x="194" y="138" type="curve" smooth="yes"/>
      <point x="176" y="116"/>
      <point x="141" y="98"/>
      <point x="78" y="98" type="curve" smooth="yes"/>
      <point x="-70" y="98" type="line"/>
      <point x="-70" y="0" type="line"/>
      <point x="39" y="0" type="line" smooth="yes"/>
      <point x="84" y="0"/>
      <point x="136" y="4"/>
      <point x="178" y="38" type="curve" smooth="yes"/>
      <point x="206" y="61"/>
      <point x="226" y="96"/>
      <point x="238" y="137" type="curve" smooth="yes"/>
      <point x="250" y="178"/>
      <point x="254" y="226"/>
      <point x="250" y="269" type="curve" smooth="yes"/>
    </contour>
    <contour>
      <point x="194" y="268"/>
      <point x="174" y="251"/>
      <point x="138" y="251" type="curve" smooth="yes"/>
      <point x="83" y="251"/>
      <point x="78" y="291"/>
      <point x="78" y="301" type="curve" smooth="yes"/>
      <point x="78" y="317"/>
      <point x="90" y="357"/>
      <point x="132" y="357" type="curve" smooth="yes"/>
      <point x="169" y="357"/>
      <point x="191" y="325"/>
      <point x="201" y="276" type="curve"/>
    </contour>
    <component base="alefbelow-ar" xOffset="123" yOffset="-19" xScale="1.25" yScale="1.25"/>
    <component base="dotabove-ar" xOffset="144" yOffset="-221"/>
  </outline>
</glyph>
<glyph name="uni060F" format="1">
  <advance width="515"/>
  <unicode hex="060F"/>
  <outline>
    <contour>
      <point x="488" y="-77"/>
      <point x="443" y="-2"/>
      <point x="361" y="-2" type="curve" smooth="yes"/>
      <point x="292" y="-2"/>
      <point x="252" y="-54"/>
      <point x="231" y="-108" type="curve" smooth="yes"/>
      <point x="213" y="-151"/>
      <point x="206" y="-195"/>
      <point x="205" y="-212" type="curve"/>
      <point x="191" y="-203"/>
      <point x="128" y="-167"/>
      <point x="130" y="-60" type="curve" smooth="yes"/>
      <point x="132" y="-10"/>
      <point x="155" y="54"/>
      <point x="238" y="107" type="curve" smooth="yes"/>
      <point x="277" y="131"/>
      <point x="329" y="153"/>
      <point x="397" y="170" type="curve"/>
      <point x="403" y="190"/>
      <point x="409" y="210"/>
      <point x="415" y="233" type="curve"/>
      <point x="374" y="220"/>
      <point x="297" y="194"/>
      <point x="255" y="178" type="curve"/>
      <point x="215" y="190"/>
      <point x="173" y="214"/>
      <point x="155" y="258" type="curve"/>
      <point x="178" y="283"/>
      <point x="199" y="299"/>
      <point x="243" y="310" type="curve" smooth="yes"/>
      <point x="293" y="322"/>
      <point x="329" y="315"/>
      <point x="343" y="312" type="curve"/>
      <point x="358" y="334" type="line"/>
      <point x="321" y="364"/>
      <point x="273" y="376"/>
      <point x="243" y="376" type="curve" smooth="yes"/>
      <point x="205" y="376"/>
      <point x="164" y="344"/>
      <point x="142" y="312" type="curve" smooth="yes"/>
      <point x="119" y="279"/>
      <point x="110" y="244"/>
      <point x="116" y="214" type="curve" smooth="yes"/>
      <point x="123" y="180"/>
      <point x="158" y="149"/>
      <point x="187" y="134" type="curve"/>
      <point x="142" y="90"/>
      <point x="84" y="5"/>
      <point x="72" y="-98" type="curve" smooth="yes"/>
      <point x="64" y="-168"/>
      <point x="87" y="-226"/>
      <point x="126" y="-269" type="curve" smooth="yes"/>
      <point x="145" y="-289"/>
      <point x="167" y="-306"/>
      <point x="192" y="-318" type="curve"/>
      <point x="191" y="-344"/>
      <point x="191" y="-359"/>
      <point x="191" y="-359" type="curve"/>
      <point x="223" y="-382" type="line"/>
      <point x="224" y="-366"/>
      <point x="225" y="-348"/>
      <point x="227" y="-330" type="curve"/>
      <point x="317" y="-344"/>
      <point x="378" y="-325"/>
      <point x="417" y="-292" type="curve" smooth="yes"/>
      <point x="468" y="-251"/>
      <point x="484" y="-188"/>
      <point x="485" y="-148" type="curve" smooth="yes"/>
    </contour>
    <contour>
      <point x="433" y="-137"/>
      <point x="420" y="-184"/>
      <point x="369" y="-210" type="curve" smooth="yes"/>
      <point x="340" y="-224"/>
      <point x="300" y="-231"/>
      <point x="244" y="-224" type="curve"/>
      <point x="244" y="-224"/>
      <point x="247" y="-181"/>
      <point x="265" y="-137" type="curve" smooth="yes"/>
      <point x="282" y="-93"/>
      <point x="314" y="-48"/>
      <point x="370" y="-48" type="curve" smooth="yes"/>
      <point x="403" y="-48"/>
      <point x="427" y="-78"/>
      <point x="430" y="-113" type="curve" smooth="yes"/>
    </contour>
  </outline>
</glyph>
<glyph name="sadabove-ar" format="1">
  <advance width="0"/>
  <unicode hex="0610"/>
  <outline>
    <contour>
      <point x="-84" y="775"/>
      <point x="-76" y="765"/>
      <point x="-70" y="754" type="curve"/>
      <point x="-62" y="736"/>
      <point x="-56" y="719"/>
      <point x="-56" y="701" type="curve"/>
      <point x="-53" y="703" type="line"/>
      <point x="-49" y="712"/>
      <point x="-47" y="722"/>
      <point x="-47" y="731" type="curve" smooth="yes"/>
      <point x="-47" y="738"/>
      <point x="-49" y="749"/>
      <point x="-51" y="759" type="curve"/>
      <point x="-46" y="756"/>
      <point x="-41" y="754"/>
      <point x="-37" y="753" type="curve"/>
      <point x="-30" y="751"/>
      <point x="-19" y="751"/>
      <point x="-5" y="751" type="curve" smooth="yes"/>
      <point x="16" y="751"/>
      <point x="39" y="759"/>
      <point x="58" y="774" type="curve"/>
      <point x="67" y="781"/>
      <point x="75" y="790"/>
      <point x="80" y="798" type="curve" smooth="yes"/>
      <point x="86" y="808"/>
      <point x="88" y="817"/>
      <point x="88" y="827" type="curve" smooth="yes"/>
      <point x="88" y="831"/>
      <point x="87" y="839"/>
      <point x="76" y="848" type="curve" smooth="yes"/>
      <point x="69" y="853"/>
      <point x="60" y="857"/>
      <point x="54" y="857" type="curve" smooth="yes"/>
      <point x="31" y="857"/>
      <point x="9" y="835"/>
      <point x="-3" y="822" type="curve" smooth="yes"/>
      <point x="-17" y="808"/>
      <point x="-22" y="800"/>
      <point x="-34" y="782" type="curve"/>
      <point x="-51" y="784"/>
      <point x="-59" y="787"/>
      <point x="-71" y="802" type="curve"/>
      <point x="-78" y="794"/>
      <point x="-82" y="788"/>
      <point x="-87" y="780" type="curve"/>
    </contour>
    <contour>
      <point x="-14" y="793"/>
      <point x="-6" y="803"/>
      <point x="1" y="811" type="curve"/>
      <point x="11" y="820"/>
      <point x="21" y="832"/>
      <point x="40" y="832" type="curve" smooth="yes"/>
      <point x="50" y="832"/>
      <point x="60" y="825"/>
      <point x="65" y="819" type="curve"/>
      <point x="68" y="815"/>
      <point x="68" y="812"/>
      <point x="72" y="805" type="curve"/>
      <point x="65" y="798"/>
      <point x="62" y="795"/>
      <point x="52" y="790" type="curve"/>
      <point x="43" y="786"/>
      <point x="31" y="782"/>
      <point x="16" y="782" type="curve" smooth="yes"/>
      <point x="-22" y="782" type="line"/>
    </contour>
    <contour>
      <point x="1" y="857" type="move" name="top"/>
    </contour>
    <contour>
      <point x="1" y="681" type="move" name="_top"/>
    </contour>
  </outline>
</glyph>
<glyph name="ainabove-ar" format="1">
  <advance width="0"/>
  <unicode hex="0611"/>
  <outline>
    <contour>
      <point x="33" y="782"/>
      <point x="18" y="782"/>
      <point x="18" y="782" type="curve"/>
      <point x="2" y="789"/>
      <point x="-11" y="809"/>
      <point x="-13" y="823" type="curve"/>
      <point x="-4" y="830"/>
      <point x="8" y="834"/>
      <point x="24" y="834" type="curve" smooth="yes"/>
      <point x="37" y="834"/>
      <point x="49" y="830"/>
      <point x="52" y="829" type="curve"/>
      <point x="59" y="835" type="line"/>
      <point x="58" y="837"/>
      <point x="39" y="856"/>
      <point x="21" y="856" type="curve" smooth="yes"/>
      <point x="9" y="856"/>
      <point x="-4" y="849"/>
      <point x="-13" y="841" type="curve" smooth="yes"/>
      <point x="-23" y="832"/>
      <point x="-31" y="818"/>
      <point x="-31" y="805" type="curve" smooth="yes"/>
      <point x="-31" y="796"/>
      <point x="-26" y="786"/>
      <point x="-20" y="782" type="curve"/>
      <point x="-36" y="783"/>
      <point x="-44" y="786"/>
      <point x="-56" y="802" type="curve"/>
      <point x="-63" y="793"/>
      <point x="-67" y="788"/>
      <point x="-72" y="779" type="curve"/>
      <point x="-69" y="774"/>
      <point x="-61" y="764"/>
      <point x="-55" y="753" type="curve" smooth="yes"/>
      <point x="-46" y="735"/>
      <point x="-41" y="718"/>
      <point x="-41" y="700" type="curve"/>
      <point x="-37" y="702" type="line"/>
      <point x="-34" y="711"/>
      <point x="-32" y="721"/>
      <point x="-32" y="730" type="curve" smooth="yes"/>
      <point x="-32" y="737"/>
      <point x="-34" y="748"/>
      <point x="-35" y="759" type="curve"/>
      <point x="-26" y="753"/>
      <point x="-16" y="750"/>
      <point x="-5" y="750" type="curve" smooth="yes"/>
      <point x="20" y="749"/>
      <point x="43" y="760"/>
      <point x="51" y="763" type="curve" smooth="yes"/>
      <point x="55" y="764"/>
      <point x="52" y="764"/>
      <point x="61" y="767" type="curve"/>
      <point x="66" y="776"/>
      <point x="68" y="783"/>
      <point x="71" y="794" type="curve"/>
      <point x="67" y="793"/>
      <point x="61" y="791"/>
      <point x="54" y="789" type="curve"/>
    </contour>
    <contour>
      <point x="-1" y="856" type="move" name="top"/>
    </contour>
    <contour>
      <point x="-1" y="680" type="move" name="_top"/>
    </contour>
  </outline>
</glyph>
<glyph name="rehDadabove-ar" format="1">
  <advance width="0"/>
  <unicode hex="0613"/>
  <outline>
    <contour>
      <point x="-116" y="781"/>
      <point x="-109" y="771"/>
      <point x="-103" y="760" type="curve"/>
      <point x="-95" y="742"/>
      <point x="-89" y="725"/>
      <point x="-89" y="707" type="curve"/>
      <point x="-85" y="709" type="line"/>
      <point x="-82" y="719"/>
      <point x="-80" y="728"/>
      <point x="-80" y="737" type="curve" smooth="yes"/>
      <point x="-80" y="744"/>
      <point x="-82" y="755"/>
      <point x="-84" y="765" type="curve"/>
      <point x="-79" y="762"/>
      <point x="-74" y="760"/>
      <point x="-70" y="759" type="curve"/>
      <point x="-63" y="757"/>
      <point x="-52" y="757"/>
      <point x="-38" y="757" type="curve" smooth="yes"/>
      <point x="-17" y="757"/>
      <point x="6" y="765"/>
      <point x="25" y="780" type="curve"/>
      <point x="34" y="787"/>
      <point x="42" y="796"/>
      <point x="47" y="804" type="curve" smooth="yes"/>
      <point x="53" y="814"/>
      <point x="55" y="823"/>
      <point x="55" y="833" type="curve" smooth="yes"/>
      <point x="55" y="837"/>
      <point x="54" y="846"/>
      <point x="43" y="854" type="curve" smooth="yes"/>
      <point x="36" y="859"/>
      <point x="27" y="863"/>
      <point x="21" y="863" type="curve" smooth="yes"/>
      <point x="-2" y="863"/>
      <point x="-24" y="841"/>
      <point x="-36" y="828" type="curve" smooth="yes"/>
      <point x="-50" y="815"/>
      <point x="-55" y="806"/>
      <point x="-67" y="788" type="curve"/>
      <point x="-84" y="790"/>
      <point x="-91" y="793"/>
      <point x="-104" y="808" type="curve"/>
      <point x="-111" y="800"/>
      <point x="-115" y="794"/>
      <point x="-120" y="786" type="curve"/>
    </contour>
    <contour>
      <point x="-47" y="799"/>
      <point x="-39" y="809"/>
      <point x="-32" y="817" type="curve"/>
      <point x="-22" y="826"/>
      <point x="-12" y="838"/>
      <point x="8" y="838" type="curve" smooth="yes"/>
      <point x="17" y="838"/>
      <point x="27" y="831"/>
      <point x="32" y="825" type="curve"/>
      <point x="36" y="821"/>
      <point x="36" y="818"/>
      <point x="39" y="811" type="curve"/>
      <point x="32" y="804"/>
      <point x="29" y="801"/>
      <point x="19" y="796" type="curve"/>
      <point x="10" y="792"/>
      <point x="-2" y="788"/>
      <point x="-17" y="788" type="curve" smooth="yes"/>
      <point x="-55" y="788" type="line"/>
    </contour>
    <contour>
      <point x="10" y="889"/>
      <point x="16" y="884"/>
      <point x="22" y="877" type="curve"/>
      <point x="29" y="884"/>
      <point x="35" y="889"/>
      <point x="39" y="895" type="curve"/>
      <point x="36" y="900"/>
      <point x="27" y="908"/>
      <point x="20" y="913" type="curve"/>
      <point x="16" y="908"/>
      <point x="9" y="900"/>
      <point x="4" y="895" type="curve"/>
    </contour>
    <contour>
      <point x="21" y="711" type="line"/>
      <point x="29" y="712"/>
      <point x="35" y="713"/>
      <point x="41" y="713" type="curve" smooth="yes"/>
      <point x="48" y="713"/>
      <point x="58" y="712"/>
      <point x="64" y="712" type="curve" smooth="yes"/>
      <point x="74" y="712"/>
      <point x="80" y="715"/>
      <point x="88" y="720" type="curve"/>
      <point x="96" y="725"/>
      <point x="102" y="732"/>
      <point x="107" y="740" type="curve" smooth="yes"/>
      <point x="118" y="760"/>
      <point x="120" y="787"/>
      <point x="120" y="801" type="curve" smooth="yes"/>
      <point x="120" y="822"/>
      <point x="115" y="836"/>
      <point x="109" y="846" type="curve"/>
      <point x="106" y="852"/>
      <point x="102" y="857"/>
      <point x="100" y="859" type="curve"/>
      <point x="93" y="852"/>
      <point x="88" y="845"/>
      <point x="83" y="835" type="curve"/>
      <point x="88" y="830"/>
      <point x="95" y="823"/>
      <point x="98" y="816" type="curve"/>
      <point x="103" y="809"/>
      <point x="106" y="802"/>
      <point x="106" y="792" type="curve" smooth="yes"/>
      <point x="106" y="781"/>
      <point x="101" y="770"/>
      <point x="92" y="761" type="curve" smooth="yes"/>
      <point x="85" y="753"/>
      <point x="71" y="744"/>
      <point x="62" y="739" type="curve" smooth="yes"/>
      <point x="51" y="733"/>
      <point x="40" y="727"/>
      <point x="18" y="715" type="curve"/>
    </contour>
    <contour>
      <point x="0" y="913" type="move" name="top"/>
    </contour>
    <contour>
      <point x="0" y="687" type="move" name="_top"/>
    </contour>
  </outline>
</glyph>
<glyph name="takhallusabove-ar" format="1">
  <advance width="0"/>
  <unicode hex="0614"/>
  <outline>
    <contour>
      <point x="106" y="765"/>
      <point x="95" y="732"/>
      <point x="69" y="732" type="curve" smooth="yes"/>
      <point x="56" y="732" type="line" smooth="yes"/>
      <point x="41" y="732"/>
      <point x="33" y="737"/>
      <point x="28" y="744" type="curve" smooth="yes"/>
      <point x="25" y="748"/>
      <point x="24" y="754"/>
      <point x="24" y="758" type="curve"/>
      <point x="17" y="754" type="line"/>
      <point x="15" y="735"/>
      <point x="9" y="732"/>
      <point x="-15" y="732" type="curve" smooth="yes"/>
      <point x="-115" y="732" type="line"/>
      <point x="-98" y="700" type="line"/>
      <point x="-9" y="700" type="line" smooth="yes"/>
      <point x="2" y="700"/>
      <point x="11" y="703"/>
      <point x="17" y="710" type="curve" smooth="yes"/>
      <point x="23" y="717"/>
      <point x="24" y="722"/>
      <point x="25" y="725" type="curve"/>
      <point x="26" y="722"/>
      <point x="27" y="716"/>
      <point x="32" y="711" type="curve" smooth="yes"/>
      <point x="38" y="705"/>
      <point x="46" y="700"/>
      <point x="60" y="700" type="curve" smooth="yes"/>
      <point x="66" y="700" type="line" smooth="yes"/>
      <point x="82" y="700"/>
      <point x="94" y="706"/>
      <point x="102" y="718" type="curve" smooth="yes"/>
      <point x="109" y="729"/>
      <point x="112" y="744"/>
      <point x="112" y="758" type="curve" smooth="yes"/>
      <point x="112" y="759"/>
      <point x="112" y="760"/>
      <point x="112" y="761" type="curve"/>
      <point x="106" y="765" type="line"/>
    </contour>
    <contour>
      <point x="-2" y="765" type="move" name="top"/>
    </contour>
    <contour>
      <point x="-2" y="680" type="move" name="_top"/>
    </contour>
  </outline>
</glyph>
<glyph name="alefLamYehabove-ar" format="1">
  <advance width="0"/>
  <unicode hex="0616"/>
  <outline>
    <contour>
      <point x="-106" y="723"/>
      <point x="-105" y="716"/>
      <point x="-96" y="709" type="curve"/>
      <point x="-87" y="703"/>
      <point x="-73" y="700"/>
      <point x="-56" y="700" type="curve" smooth="yes"/>
      <point x="21" y="700" type="line"/>
      <point x="29" y="710"/>
      <point x="34" y="716"/>
      <point x="38" y="725" type="curve"/>
      <point x="-62" y="725" type="line" smooth="yes"/>
      <point x="-74" y="725"/>
      <point x="-89" y="726"/>
      <point x="-89" y="738" type="curve" smooth="yes"/>
      <point x="-89" y="741"/>
      <point x="-85" y="746"/>
      <point x="-80" y="747" type="curve"/>
      <point x="-77" y="749"/>
      <point x="-73" y="751"/>
      <point x="-67" y="753" type="curve"/>
      <point x="-60" y="757"/>
      <point x="-54" y="760"/>
      <point x="-50" y="764" type="curve"/>
      <point x="-46" y="767"/>
      <point x="-40" y="773"/>
      <point x="-26" y="773" type="curve" smooth="yes"/>
      <point x="26" y="773" type="line" smooth="yes"/>
      <point x="30" y="773"/>
      <point x="34" y="773"/>
      <point x="37" y="774" type="curve"/>
      <point x="44" y="775"/>
      <point x="51" y="780"/>
      <point x="56" y="787" type="curve"/>
      <point x="60" y="794"/>
      <point x="63" y="803"/>
      <point x="63" y="813" type="curve" smooth="yes"/>
      <point x="63" y="822"/>
      <point x="63" y="826"/>
      <point x="59" y="855" type="curve" smooth="yes"/>
      <point x="58" y="862"/>
      <point x="57" y="871"/>
      <point x="56" y="875" type="curve"/>
      <point x="55" y="886"/>
      <point x="57" y="891"/>
      <point x="63" y="896" type="curve"/>
      <point x="56" y="904"/>
      <point x="50" y="911"/>
      <point x="47" y="918" type="curve"/>
      <point x="33" y="899" type="line"/>
      <point x="42" y="869"/>
      <point x="46" y="845"/>
      <point x="51" y="812" type="curve"/>
      <point x="46" y="803"/>
      <point x="36" y="798"/>
      <point x="26" y="798" type="curve" smooth="yes"/>
      <point x="-4" y="798" type="line" smooth="yes"/>
      <point x="-13" y="798"/>
      <point x="-22" y="796"/>
      <point x="-29" y="792" type="curve"/>
      <point x="-35" y="788"/>
      <point x="-38" y="786"/>
      <point x="-42" y="782" type="curve" smooth="yes"/>
      <point x="-48" y="776"/>
      <point x="-59" y="771"/>
      <point x="-66" y="767" type="curve"/>
      <point x="-75" y="763"/>
      <point x="-84" y="759"/>
      <point x="-92" y="753" type="curve"/>
      <point x="-106" y="741"/>
      <point x="-106" y="731"/>
      <point x="-106" y="727" type="curve" smooth="yes"/>
    </contour>
    <contour>
      <point x="78" y="894"/>
      <point x="79" y="878"/>
      <point x="81" y="857" type="curve" smooth="yes"/>
      <point x="82" y="841"/>
      <point x="84" y="828"/>
      <point x="85" y="821" type="curve"/>
      <point x="87" y="813"/>
      <point x="88" y="805"/>
      <point x="88" y="802" type="curve"/>
      <point x="89" y="792"/>
      <point x="89" y="780"/>
      <point x="88" y="773" type="curve"/>
      <point x="92" y="773" type="line"/>
      <point x="95" y="779"/>
      <point x="96" y="785"/>
      <point x="96" y="787" type="curve"/>
      <point x="99" y="805"/>
      <point x="102" y="821"/>
      <point x="97" y="876" type="curve"/>
      <point x="97" y="879"/>
      <point x="95" y="904"/>
      <point x="94" y="918" type="curve"/>
      <point x="91" y="918" type="line"/>
      <point x="87" y="912"/>
      <point x="83" y="906"/>
      <point x="78" y="897" type="curve"/>
    </contour>
    <contour>
      <point x="-3" y="918" type="move" name="top"/>
    </contour>
    <contour>
      <point x="-3" y="680" type="move" name="_top"/>
    </contour>
  </outline>
</glyph>
<glyph name="zainabove-ar" format="1">
  <advance width="0"/>
  <unicode hex="0617"/>
  <outline>
    <contour>
      <point x="53" y="810"/>
      <point x="47" y="823"/>
      <point x="42" y="833" type="curve" smooth="yes"/>
      <point x="38" y="840"/>
      <point x="34" y="844"/>
      <point x="32" y="847" type="curve"/>
      <point x="25" y="839"/>
      <point x="21" y="832"/>
      <point x="15" y="823" type="curve"/>
      <point x="26" y="812"/>
      <point x="38" y="797"/>
      <point x="38" y="780" type="curve" smooth="yes"/>
      <point x="38" y="768"/>
      <point x="34" y="757"/>
      <point x="25" y="748" type="curve"/>
      <point x="17" y="741"/>
      <point x="3" y="732"/>
      <point x="-6" y="727" type="curve" smooth="yes"/>
      <point x="-20" y="719"/>
      <point x="-35" y="711"/>
      <point x="-50" y="703" type="curve"/>
      <point x="-47" y="699" type="line"/>
      <point x="-39" y="701"/>
      <point x="-33" y="701"/>
      <point x="-27" y="701" type="curve" smooth="yes"/>
      <point x="-19" y="701"/>
      <point x="-9" y="700"/>
      <point x="-3" y="700" type="curve" smooth="yes"/>
      <point x="6" y="700"/>
      <point x="13" y="702"/>
      <point x="21" y="708" type="curve"/>
      <point x="28" y="713"/>
      <point x="34" y="720"/>
      <point x="39" y="728" type="curve" smooth="yes"/>
      <point x="50" y="748"/>
      <point x="53" y="775"/>
      <point x="53" y="788" type="curve" smooth="yes"/>
    </contour>
    <contour>
      <point x="46" y="887"/>
      <point x="38" y="894"/>
      <point x="31" y="899" type="curve"/>
      <point x="26" y="894"/>
      <point x="19" y="887"/>
      <point x="14" y="881" type="curve"/>
      <point x="21" y="876"/>
      <point x="26" y="870"/>
      <point x="32" y="863" type="curve"/>
      <point x="40" y="870"/>
      <point x="45" y="875"/>
      <point x="50" y="881" type="curve"/>
    </contour>
    <contour>
      <point x="2" y="899" type="move" name="top"/>
    </contour>
    <contour>
      <point x="2" y="679" type="move" name="_top"/>
    </contour>
  </outline>
</glyph>
<glyph name="hamza-ar" format="1">
  <advance width="337"/>
  <unicode hex="0621"/>
  <outline>
    <contour>
      <point x="267" y="101"/>
      <point x="258" y="100"/>
      <point x="248" y="98" type="curve" smooth="yes"/>
      <point x="223" y="94"/>
      <point x="200" y="94"/>
      <point x="177" y="100" type="curve" smooth="yes"/>
      <point x="148" y="108"/>
      <point x="136" y="118"/>
      <point x="136" y="141" type="curve"/>
      <point x="160" y="156"/>
      <point x="180" y="166"/>
      <point x="208" y="166" type="curve" smooth="yes"/>
      <point x="226" y="166"/>
      <point x="237" y="163"/>
      <point x="245" y="160" type="curve"/>
      <point x="251" y="169" type="line"/>
      <point x="250" y="179"/>
      <point x="237" y="199"/>
      <point x="204" y="199" type="curve" smooth="yes"/>
      <point x="180" y="199"/>
      <point x="157" y="191"/>
      <point x="135" y="173" type="curve" smooth="yes"/>
      <point x="122" y="162"/>
      <point x="107" y="143"/>
      <point x="99" y="131" type="curve" smooth="yes"/>
      <point x="96" y="127"/>
      <point x="95" y="123"/>
      <point x="95" y="118" type="curve" smooth="yes"/>
      <point x="95" y="92"/>
      <point x="117" y="71"/>
      <point x="154" y="71" type="curve"/>
      <point x="121" y="53"/>
      <point x="104" y="42"/>
      <point x="82" y="29" type="curve" smooth="yes"/>
      <point x="71" y="22"/>
      <point x="70" y="17"/>
      <point x="70" y="14" type="curve" smooth="yes"/>
      <point x="70" y="11"/>
      <point x="73" y="5"/>
      <point x="79" y="0" type="curve"/>
      <point x="102" y="14"/>
      <point x="127" y="29"/>
      <point x="175" y="45" type="curve" smooth="yes"/>
      <point x="206" y="55"/>
      <point x="225" y="60"/>
      <point x="258" y="63" type="curve"/>
      <point x="265" y="74"/>
      <point x="272" y="90"/>
      <point x="277" y="104" type="curve"/>
    </contour>
  </outline>
</glyph>
<glyph name="uni0631" format="1">
  <advance width="245"/>
  <unicode hex="0631"/>
  <outline>
    <contour>
      <point x="103" y="186"/>
      <point x="90" y="166"/>
      <point x="74" y="137" type="curve"/>
      <point x="90" y="122"/>
      <point x="107" y="100"/>
      <point x="119" y="81" type="curve" smooth="yes"/>
      <point x="133" y="59"/>
      <point x="142" y="38"/>
      <point x="142" y="8" type="curve" smooth="yes"/>
      <point x="142" y="-27"/>
      <point x="129" y="-58"/>
      <point x="102" y="-85" type="curve" smooth="yes"/>
      <point x="79" y="-108"/>
      <point x="38" y="-134"/>
      <point x="10" y="-150" type="curve" smooth="yes"/>
      <point x="-22" y="-168"/>
      <point x="-55" y="-186"/>
      <point x="-120" y="-221" type="curve"/>
      <point x="-111" y="-234" type="line"/>
      <point x="-89" y="-229"/>
      <point x="-71" y="-227"/>
      <point x="-53" y="-227" type="curve" smooth="yes"/>
      <point x="-30" y="-227"/>
      <point x="-1" y="-230"/>
      <point x="18" y="-230" type="curve" smooth="yes"/>
      <point x="46" y="-230"/>
      <point x="66" y="-224"/>
      <point x="90" y="-207" type="curve" smooth="yes"/>
      <point x="112" y="-192"/>
      <point x="130" y="-171"/>
      <point x="143" y="-148" type="curve" smooth="yes"/>
      <point x="178" y="-87"/>
      <point x="185" y="-8"/>
      <point x="185" y="34" type="curve" smooth="yes"/>
      <point x="185" y="99"/>
      <point x="168" y="139"/>
      <point x="152" y="168" type="curve" smooth="yes"/>
      <point x="141" y="188"/>
      <point x="130" y="202"/>
      <point x="123" y="209" type="curve"/>
    </contour>
    <contour>
      <point x="73" y="233" type="move" name="top"/>
    </contour>
    <contour>
      <point x="-11" y="-268" type="move" name="bottom"/>
    </contour>
  </outline>
</glyph>
<glyph name="seen-ar" format="1">
  <advance width="893"/>
  <unicode hex="0633"/>
  <outline>
    <contour>
      <point x="781" y="248"/>
      <point x="766" y="228"/>
      <point x="755" y="209" type="curve"/>
      <point x="798" y="148" type="line"/>
      <point x="794" y="124"/>
      <point x="766" y="95"/>
      <point x="730" y="95" type="curve" smooth="yes"/>
      <point x="674" y="95"/>
      <point x="650" y="127"/>
      <point x="658" y="191" type="curve"/>
      <point x="636" y="179" type="line"/>
      <point x="634" y="148"/>
      <point x="622" y="96"/>
      <point x="559" y="96" type="curve" smooth="yes"/>
      <point x="502" y="96"/>
      <point x="467" y="142"/>
      <point x="459" y="159" type="curve"/>
      <point x="445" y="142"/>
      <point x="426" y="118"/>
      <point x="412" y="91" type="curve"/>
      <point x="431" y="65"/>
      <point x="488" y="-14"/>
      <point x="488" y="-63" type="curve" smooth="yes"/>
      <point x="488" y="-91"/>
      <point x="466" y="-118"/>
      <point x="431" y="-138" type="curve" smooth="yes"/>
      <point x="396" y="-158"/>
      <point x="349" y="-170"/>
      <point x="292" y="-170" type="curve" smooth="yes"/>
      <point x="214" y="-170"/>
      <point x="159" y="-148"/>
      <point x="132" y="-114" type="curve" smooth="yes"/>
      <point x="106" y="-81"/>
      <point x="109" y="-40"/>
      <point x="119" y="17" type="curve"/>
      <point x="100" y="24" type="line"/>
      <point x="82" y="-19"/>
      <point x="73" y="-61"/>
      <point x="71" y="-89" type="curve" smooth="yes"/>
      <point x="69" y="-118"/>
      <point x="72" y="-148"/>
      <point x="84" y="-177" type="curve" smooth="yes"/>
      <point x="98" y="-211"/>
      <point x="121" y="-236"/>
      <point x="156" y="-255" type="curve" smooth="yes"/>
      <point x="191" y="-274"/>
      <point x="234" y="-283"/>
      <point x="284" y="-283" type="curve" smooth="yes"/>
      <point x="321" y="-283"/>
      <point x="354" y="-278"/>
      <point x="384" y="-268" type="curve" smooth="yes"/>
      <point x="411" y="-259"/>
      <point x="436" y="-247"/>
      <point x="460" y="-225" type="curve" smooth="yes"/>
      <point x="505" y="-184"/>
      <point x="528" y="-121"/>
      <point x="528" y="-44" type="curve" smooth="yes"/>
      <point x="528" y="-26"/>
      <point x="526" y="-9"/>
      <point x="524" y="8" type="curve"/>
      <point x="557" y="-2"/>
      <point x="585" y="0"/>
      <point x="606" y="14" type="curve" smooth="yes"/>
      <point x="625" y="26"/>
      <point x="638" y="48"/>
      <point x="642" y="76" type="curve" smooth="yes"/>
      <point x="642" y="76"/>
      <point x="647" y="51"/>
      <point x="668" y="31" type="curve" smooth="yes"/>
      <point x="681" y="19"/>
      <point x="700" y="9"/>
      <point x="728" y="9" type="curve" smooth="yes"/>
      <point x="764" y="9"/>
      <point x="787" y="26"/>
      <point x="803" y="48" type="curve" smooth="yes"/>
      <point x="829" y="85"/>
      <point x="833" y="135"/>
      <point x="833" y="140" type="curve" smooth="yes"/>
      <point x="833" y="209"/>
      <point x="807" y="249"/>
      <point x="795" y="263" type="curve"/>
    </contour>
    <contour>
      <point x="642" y="221" type="move" name="top"/>
    </contour>
    <contour>
      <point x="284" y="-303" type="move" name="bottom"/>
    </contour>
  </outline>
</glyph>
<glyph name="meem-ar" format="1">
  <advance width="383"/>
  <unicode hex="0645"/>
  <outline>
    <contour>
      <point x="317" y="212"/>
      <point x="297" y="238"/>
      <point x="268" y="257" type="curve" smooth="yes"/>
      <point x="251" y="268"/>
      <point x="230" y="277"/>
      <point x="208" y="277" type="curve" smooth="yes"/>
      <point x="178" y="277"/>
      <point x="157" y="261"/>
      <point x="144" y="229" type="curve" smooth="yes"/>
      <point x="139" y="216"/>
      <point x="136" y="203"/>
      <point x="135" y="193" type="curve"/>
      <point x="172" y="210"/>
      <point x="201" y="201"/>
      <point x="244" y="177" type="curve" smooth="yes"/>
      <point x="189" y="176"/>
      <point x="147" y="168"/>
      <point x="111" y="135" type="curve" smooth="yes"/>
      <point x="89" y="115"/>
      <point x="63" y="68"/>
      <point x="72" y="-6" type="curve" smooth="yes"/>
      <point x="77" y="-41"/>
      <point x="83" y="-81"/>
      <point x="90" y="-123" type="curve" smooth="yes"/>
      <point x="99" y="-178"/>
      <point x="110" y="-241"/>
      <point x="117" y="-308" type="curve"/>
      <point x="142" y="-300" type="line"/>
      <point x="144" y="-249"/>
      <point x="135" y="-157"/>
      <point x="118" y="-23" type="curve" smooth="yes"/>
      <point x="114" y="7"/>
      <point x="121" y="33"/>
      <point x="141" y="54" type="curve" smooth="yes"/>
      <point x="160" y="75"/>
      <point x="190" y="91"/>
      <point x="231" y="100" type="curve" smooth="yes"/>
      <point x="266" y="108"/>
      <point x="294" y="108"/>
      <point x="311" y="108" type="curve"/>
      <point x="317" y="145"/>
      <point x="321" y="175"/>
      <point x="323" y="205" type="curve"/>
    </contour>
    <contour>
      <point x="208" y="297" type="move" name="top"/>
    </contour>
    <contour>
      <point x="132" y="-320" type="move" name="bottom"/>
    </contour>
  </outline>
</glyph>
<glyph name="uni0648" format="1">
  <advance width="308"/>
  <unicode hex="0648"/>
  <outline>
    <contour>
      <point x="217" y="243"/>
      <point x="196" y="303"/>
      <point x="145" y="303" type="curve" smooth="yes"/>
      <point x="117" y="303"/>
      <point x="94" y="282"/>
      <point x="78" y="255" type="curve" smooth="yes"/>
      <point x="60" y="225"/>
      <point x="50" y="187"/>
      <point x="49" y="160" type="curve" smooth="yes"/>
      <point x="47" y="119"/>
      <point x="54" y="89"/>
      <point x="72" y="70" type="curve" smooth="yes"/>
      <point x="86" y="55"/>
      <point x="108" y="47"/>
      <point x="139" y="47" type="curve" smooth="yes"/>
      <point x="193" y="47"/>
      <point x="209" y="78"/>
      <point x="214" y="92" type="curve"/>
      <point x="215" y="66"/>
      <point x="214" y="33"/>
      <point x="209" y="11" type="curve" smooth="yes"/>
      <point x="191" y="-64"/>
      <point x="130" y="-117"/>
      <point x="69" y="-151" type="curve" smooth="yes"/>
      <point x="16" y="-181"/>
      <point x="-40" y="-210"/>
      <point x="-60" y="-221" type="curve"/>
      <point x="-51" y="-234" type="line"/>
      <point x="-29" y="-229"/>
      <point x="-10" y="-226"/>
      <point x="7" y="-226" type="curve" smooth="yes"/>
      <point x="28" y="-226"/>
      <point x="49" y="-230"/>
      <point x="78" y="-230" type="curve" smooth="yes"/>
      <point x="103" y="-230"/>
      <point x="125" y="-225"/>
      <point x="150" y="-208" type="curve" smooth="yes"/>
      <point x="170" y="-195"/>
      <point x="191" y="-173"/>
      <point x="203" y="-149" type="curve" smooth="yes"/>
      <point x="221" y="-112"/>
      <point x="232" y="-76"/>
      <point x="239" y="-42" type="curve" smooth="yes"/>
      <point x="250" y="14"/>
      <point x="249" y="63"/>
      <point x="247" y="99" type="curve" smooth="yes"/>
      <point x="244" y="166"/>
      <point x="232" y="202"/>
      <point x="225" y="220" type="curve" smooth="yes"/>
    </contour>
    <contour>
      <point x="201" y="168"/>
      <point x="204" y="145"/>
      <point x="204" y="145" type="curve" smooth="yes"/>
      <point x="204" y="145"/>
      <point x="184" y="120"/>
      <point x="146" y="120" type="curve" smooth="yes"/>
      <point x="113" y="120"/>
      <point x="81" y="133"/>
      <point x="81" y="167" type="curve" smooth="yes"/>
      <point x="81" y="204"/>
      <point x="107" y="226"/>
      <point x="137" y="226" type="curve" smooth="yes"/>
      <point x="163" y="226"/>
      <point x="179" y="208"/>
      <point x="189" y="189" type="curve" smooth="yes"/>
    </contour>
    <contour>
      <point x="135" y="333" type="move" name="top"/>
    </contour>
    <contour>
      <point x="36" y="-268" type="move" name="bottom"/>
    </contour>
  </outline>
</glyph>
<glyph name="fathatan-ar" format="1">
  <advance width="0"/>
  <unicode hex="064B"/>
  <outline>
    <contour>
      <point x="26" y="773"/>
      <point x="-24" y="753"/>
      <point x="-80" y="725" type="curve"/>
      <point x="-83" y="719"/>
      <point x="-85" y="711"/>
      <point x="-87" y="700" type="curve"/>
      <point x="-87" y="700"/>
      <point x="20" y="747"/>
      <point x="81" y="767" type="curve"/>
      <point x="85" y="775"/>
      <point x="88" y="783"/>
      <point x="89" y="793" type="curve"/>
    </contour>
    <contour>
      <point x="26" y="833"/>
      <point x="-24" y="813"/>
      <point x="-80" y="785" type="curve"/>
      <point x="-83" y="779"/>
      <point x="-85" y="771"/>
      <point x="-87" y="760" type="curve"/>
      <point x="-87" y="760"/>
      <point x="20" y="807"/>
      <point x="81" y="827" type="curve"/>
      <point x="85" y="835"/>
      <point x="88" y="843"/>
      <point x="89" y="853" type="curve"/>
    </contour>
    <contour>
      <point x="1" y="853" type="move" name="top"/>
    </contour>
    <contour>
      <point x="1" y="680" type="move" name="_top"/>
    </contour>
  </outline>
</glyph>
<glyph name="dammatan-ar" format="1">
  <advance width="0"/>
  <unicode hex="064C"/>
  <outline>
    <contour>
      <point x="65" y="790" type="line"/>
      <point x="91" y="833"/>
      <point x="90" y="873"/>
      <point x="68" y="885" type="curve" smooth="yes"/>
      <point x="49" y="895"/>
      <point x="24" y="885"/>
      <point x="1" y="857" type="curve" smooth="yes"/>
      <point x="-12" y="841"/>
      <point x="-16" y="827"/>
      <point x="-13" y="814" type="curve" smooth="yes"/>
      <point x="-9" y="797"/>
      <point x="5" y="785"/>
      <point x="34" y="774" type="curve"/>
      <point x="13" y="752"/>
      <point x="-1" y="739"/>
      <point x="-29" y="734" type="curve"/>
      <point x="-6" y="782"/>
      <point x="-24" y="797"/>
      <point x="-44" y="797" type="curve" smooth="yes"/>
      <point x="-50" y="797"/>
      <point x="-67" y="792"/>
      <point x="-79" y="785" type="curve"/>
      <point x="-83" y="775"/>
      <point x="-84" y="767"/>
      <point x="-86" y="756" type="curve"/>
      <point x="-76" y="763"/>
      <point x="-52" y="773"/>
      <point x="-43" y="764" type="curve" smooth="yes"/>
      <point x="-38" y="759"/>
      <point x="-38" y="742"/>
      <point x="-48" y="732" type="curve"/>
      <point x="-57" y="731"/>
      <point x="-67" y="731"/>
      <point x="-78" y="731" type="curve"/>
      <point x="-79" y="729"/>
      <point x="-85" y="719"/>
      <point x="-89" y="705" type="curve"/>
      <point x="-49" y="700"/>
      <point x="-13" y="708"/>
      <point x="16" y="729" type="curve" smooth="yes"/>
      <point x="33" y="742"/>
      <point x="41" y="750"/>
      <point x="53" y="768" type="curve"/>
      <point x="84" y="755" type="line"/>
      <point x="84" y="766"/>
      <point x="83" y="773"/>
      <point x="80" y="782" type="curve"/>
    </contour>
    <contour>
      <point x="28" y="811" type="line" smooth="yes"/>
      <point x="10" y="821"/>
      <point x="8" y="832"/>
      <point x="9" y="839" type="curve" smooth="yes"/>
      <point x="10" y="848"/>
      <point x="18" y="857"/>
      <point x="29" y="860" type="curve"/>
      <point x="39" y="862"/>
      <point x="49" y="860"/>
      <point x="56" y="851" type="curve"/>
      <point x="66" y="840"/>
      <point x="61" y="820"/>
      <point x="48" y="800" type="curve"/>
    </contour>
    <contour>
      <point x="-2" y="889" type="move" name="top"/>
    </contour>
    <contour>
      <point x="-2" y="684" type="move" name="_top"/>
    </contour>
  </outline>
</glyph>
<glyph name="kasratan-ar" format="1">
  <advance width="0"/>
  <unicode hex="064D"/>
  <outline>
    <contour>
      <point x="-88" y="-346"/>
      <point x="19" y="-299"/>
      <point x="80" y="-279" type="curve"/>
      <point x="84" y="-271"/>
      <point x="87" y="-263"/>
      <point x="88" y="-253" type="curve"/>
      <point x="25" y="-273"/>
      <point x="-25" y="-293"/>
      <point x="-81" y="-321" type="curve"/>
      <point x="-84" y="-327"/>
      <point x="-86" y="-335"/>
      <point x="-88" y="-346" type="curve"/>
    </contour>
    <contour>
      <point x="-88" y="-286"/>
      <point x="19" y="-239"/>
      <point x="80" y="-219" type="curve"/>
      <point x="84" y="-211"/>
      <point x="87" y="-203"/>
      <point x="88" y="-193" type="curve"/>
      <point x="25" y="-213"/>
      <point x="-25" y="-233"/>
      <point x="-81" y="-261" type="curve"/>
      <point x="-84" y="-267"/>
      <point x="-86" y="-275"/>
      <point x="-88" y="-286" type="curve"/>
    </contour>
    <contour>
      <point x="0" y="-173" type="move" name="_bottom"/>
    </contour>
    <contour>
      <point x="0" y="-346" type="move" name="bottom"/>
    </contour>
  </outline>
</glyph>
<glyph name="damma-ar" format="1">
  <advance width="0"/>
  <unicode hex="064F"/>
  <outline>
    <contour>
      <point x="64" y="791" type="line" smooth="yes"/>
      <point x="90" y="834"/>
      <point x="89" y="874"/>
      <point x="67" y="886" type="curve" smooth="yes"/>
      <point x="48" y="896"/>
      <point x="23" y="886"/>
      <point x="0" y="858" type="curve" smooth="yes"/>
      <point x="-13" y="842"/>
      <point x="-17" y="828"/>
      <point x="-14" y="815" type="curve" smooth="yes"/>
      <point x="-10" y="798"/>
      <point x="4" y="786"/>
      <point x="33" y="775" type="curve"/>
      <point x="3" y="743"/>
      <point x="-25" y="730"/>
      <point x="-79" y="732" type="curve" smooth="yes"/>
      <point x="-80" y="730"/>
      <point x="-86" y="720"/>
      <point x="-90" y="706" type="curve"/>
      <point x="-50" y="701"/>
      <point x="-14" y="709"/>
      <point x="15" y="730" type="curve" smooth="yes"/>
      <point x="32" y="743"/>
      <point x="40" y="751"/>
      <point x="52" y="769" type="curve"/>
      <point x="83" y="756" type="line" smooth="yes"/>
      <point x="83" y="767"/>
      <point x="82" y="774"/>
      <point x="79" y="783" type="curve" smooth="yes"/>
    </contour>
    <contour>
      <point x="27" y="812" type="line" smooth="yes"/>
      <point x="9" y="822"/>
      <point x="7" y="833"/>
      <point x="8" y="840" type="curve" smooth="yes"/>
      <point x="9" y="849"/>
      <point x="17" y="858"/>
      <point x="28" y="861" type="curve"/>
      <point x="38" y="863"/>
      <point x="48" y="861"/>
      <point x="55" y="852" type="curve"/>
      <point x="65" y="841"/>
      <point x="60" y="821"/>
      <point x="47" y="801" type="curve"/>
    </contour>
    <contour>
      <point x="-3" y="890" type="move" name="top"/>
    </contour>
    <contour>
      <point x="-3" y="685" type="move" name="_top"/>
    </contour>
  </outline>
</glyph>
<glyph name="shadda-ar" format="1">
  <advance width="0"/>
  <unicode hex="0651"/>
  <outline>
    <contour>
      <point x="85" y="812"/>
      <point x="82" y="811"/>
      <point x="80" y="810" type="curve"/>
      <point x="76" y="777"/>
      <point x="58" y="768"/>
      <point x="39" y="768" type="curve" smooth="yes"/>
      <point x="12" y="768"/>
      <point x="1" y="786"/>
      <point x="1" y="802" type="curve"/>
      <point x="-2" y="801"/>
      <point x="-4" y="800"/>
      <point x="-7" y="799" type="curve"/>
      <point x="-8" y="769"/>
      <point x="-18" y="745"/>
      <point x="-54" y="745" type="curve" smooth="yes"/>
      <point x="-74" y="745"/>
      <point x="-84" y="764"/>
      <point x="-81" y="780" type="curve"/>
      <point x="-84" y="779"/>
      <point x="-86" y="777"/>
      <point x="-89" y="776" type="curve"/>
      <point x="-92" y="760"/>
      <point x="-93" y="742"/>
      <point x="-88" y="727" type="curve" smooth="yes"/>
      <point x="-83" y="711"/>
      <point x="-71" y="699"/>
      <point x="-51" y="699" type="curve" smooth="yes"/>
      <point x="-31" y="699"/>
      <point x="-17" y="707"/>
      <point x="-10" y="722" type="curve" smooth="yes"/>
      <point x="-5" y="731"/>
      <point x="-3" y="741"/>
      <point x="-3" y="753" type="curve"/>
      <point x="-3" y="740"/>
      <point x="14" y="725"/>
      <point x="34" y="725" type="curve" smooth="yes"/>
      <point x="44" y="725"/>
      <point x="56" y="726"/>
      <point x="69" y="740" type="curve" smooth="yes"/>
      <point x="79" y="751"/>
      <point x="90" y="773"/>
      <point x="87" y="813" type="curve"/>
    </contour>
    <contour>
      <point x="-2" y="813" type="move" name="top"/>
    </contour>
    <contour>
      <point x="-2" y="679" type="move" name="_top"/>
    </contour>
  </outline>
</glyph>
<glyph name="sukun-ar" format="1">
  <advance width="0"/>
  <unicode hex="0652"/>
  <outline>
    <contour>
      <point x="-27" y="796"/>
      <point x="-45" y="774"/>
      <point x="-45" y="743" type="curve" smooth="yes"/>
      <point x="-45" y="731"/>
      <point x="-37" y="700"/>
      <point x="-2" y="700" type="curve" smooth="yes"/>
      <point x="17" y="700"/>
      <point x="30" y="707"/>
      <point x="37" y="719" type="curve" smooth="yes"/>
      <point x="43" y="729"/>
      <point x="44" y="741"/>
      <point x="44" y="749" type="curve" smooth="yes"/>
      <point x="44" y="777"/>
      <point x="25" y="801"/>
      <point x="-8" y="814" type="curve"/>
    </contour>
    <contour>
      <point x="13" y="774"/>
      <point x="32" y="762"/>
      <point x="32" y="748" type="curve" smooth="yes"/>
      <point x="32" y="733"/>
      <point x="15" y="733"/>
      <point x="10" y="733" type="curve" smooth="yes"/>
      <point x="-13" y="733"/>
      <point x="-30" y="745"/>
      <point x="-30" y="760" type="curve" smooth="yes"/>
      <point x="-30" y="770"/>
      <point x="-23" y="780"/>
      <point x="-17" y="787" type="curve"/>
    </contour>
    <contour>
      <point x="-1" y="814" type="move" name="top"/>
    </contour>
    <contour>
      <point x="-1" y="680" type="move" name="_top"/>
    </contour>
  </outline>
</glyph>
<glyph name="noonghunnaabove-ar" format="1">
  <advance width="0"/>
  <unicode hex="0658"/>
  <outline>
    <contour>
      <point x="54" y="842"/>
      <point x="46" y="834"/>
      <point x="42" y="825" type="curve"/>
      <point x="43" y="823"/>
      <point x="68" y="790"/>
      <point x="68" y="773" type="curve" smooth="yes"/>
      <point x="68" y="764"/>
      <point x="61" y="755"/>
      <point x="48" y="748" type="curve" smooth="yes"/>
      <point x="35" y="741"/>
      <point x="22" y="738"/>
      <point x="3" y="738" type="curve" smooth="yes"/>
      <point x="-23" y="738"/>
      <point x="-41" y="744"/>
      <point x="-51" y="757" type="curve" smooth="yes"/>
      <point x="-60" y="767"/>
      <point x="-59" y="781"/>
      <point x="-56" y="800" type="curve"/>
      <point x="-62" y="802" type="line"/>
      <point x="-68" y="789"/>
      <point x="-71" y="776"/>
      <point x="-72" y="765" type="curve" smooth="yes"/>
      <point x="-72" y="754"/>
      <point x="-71" y="744"/>
      <point x="-68" y="735" type="curve" smooth="yes"/>
      <point x="-62" y="724"/>
      <point x="-54" y="715"/>
      <point x="-43" y="709" type="curve" smooth="yes"/>
      <point x="-31" y="703"/>
      <point x="-17" y="700"/>
      <point x="0" y="700" type="curve" smooth="yes"/>
      <point x="12" y="700"/>
      <point x="23" y="701"/>
      <point x="33" y="704" type="curve" smooth="yes"/>
      <point x="43" y="707"/>
      <point x="51" y="713"/>
      <point x="59" y="720" type="curve" smooth="yes"/>
      <point x="73" y="733"/>
      <point x="80" y="754"/>
      <point x="80" y="779" type="curve" smooth="yes"/>
      <point x="80" y="796"/>
      <point x="77" y="812"/>
      <point x="71" y="827" type="curve" smooth="yes"/>
      <point x="67" y="838"/>
      <point x="62" y="844"/>
      <point x="59" y="848" type="curve"/>
    </contour>
    <contour>
      <point x="4" y="848" type="move" name="top"/>
    </contour>
    <contour>
      <point x="4" y="680" type="move" name="_top"/>
    </contour>
  </outline>
</glyph>
<glyph name="vabove-ar" format="1">
  <advance width="0"/>
  <unicode hex="065A"/>
  <outline>
    <contour>
      <point x="70" y="843"/>
      <point x="67" y="851"/>
      <point x="61" y="860" type="curve"/>
      <point x="42" y="835"/>
      <point x="28" y="814"/>
      <point x="20" y="796" type="curve" smooth="yes"/>
      <point x="13" y="784"/>
      <point x="10" y="775"/>
      <point x="7" y="767" type="curve" smooth="yes"/>
      <point x="3" y="753"/>
      <point x="3" y="744"/>
      <point x="3" y="744" type="curve" smooth="yes"/>
      <point x="3" y="744"/>
      <point x="2" y="753"/>
      <point x="-2" y="767" type="curve" smooth="yes"/>
      <point x="-5" y="775"/>
      <point x="-8" y="784"/>
      <point x="-13" y="795" type="curve" smooth="yes"/>
      <point x="-22" y="814"/>
      <point x="-37" y="836"/>
      <point x="-57" y="860" type="curve"/>
      <point x="-62" y="853"/>
      <point x="-65" y="846"/>
      <point x="-67" y="835" type="curve"/>
      <point x="-45" y="810"/>
      <point x="-26" y="777"/>
      <point x="-15" y="745" type="curve" smooth="yes"/>
      <point x="-9" y="729"/>
      <point x="-6" y="713"/>
      <point x="-6" y="700" type="curve"/>
      <point x="10" y="700" type="line"/>
      <point x="11" y="714"/>
      <point x="14" y="733"/>
      <point x="20" y="748" type="curve" smooth="yes"/>
      <point x="31" y="776"/>
      <point x="46" y="805"/>
      <point x="72" y="835" type="curve"/>
    </contour>
    <contour>
      <point x="3" y="860" type="move" name="top"/>
    </contour>
    <contour>
      <point x="3" y="680" type="move" name="_top"/>
    </contour>
  </outline>
</glyph>
<glyph name="zero-ar" format="1">
  <advance width="189"/>
  <unicode hex="0660"/>
  <outline>
    <contour>
      <point x="40" y="188" type="line"/>
      <point x="100" y="129" type="line"/>
      <point x="159" y="188" type="line"/>
      <point x="100" y="248" type="line"/>
    </contour>
  </outline>
</glyph>
<glyph name="eight-ar" format="1">
  <advance width="419"/>
  <unicode hex="0668"/>
  <outline>
    <contour>
      <point x="45" y="53"/>
      <point x="55" y="26"/>
      <point x="67" y="1" type="curve"/>
      <point x="118" y="77"/>
      <point x="151" y="144"/>
      <point x="173" y="200" type="curve" smooth="yes"/>
      <point x="187" y="235"/>
      <point x="196" y="266"/>
      <point x="202" y="290" type="curve" smooth="yes"/>
      <point x="214" y="337"/>
      <point x="214" y="364"/>
      <point x="214" y="364" type="curve" smooth="yes"/>
      <point x="214" y="364"/>
      <point x="215" y="337"/>
      <point x="226" y="291" type="curve" smooth="yes"/>
      <point x="232" y="266"/>
      <point x="241" y="236"/>
      <point x="254" y="202" type="curve" smooth="yes"/>
      <point x="276" y="145"/>
      <point x="310" y="76"/>
      <point x="363" y="1" type="curve"/>
      <point x="373" y="22"/>
      <point x="382" y="45"/>
      <point x="389" y="78" type="curve"/>
      <point x="324" y="172"/>
      <point x="277" y="265"/>
      <point x="250" y="355" type="curve" smooth="yes"/>
      <point x="230" y="425"/>
      <point x="226" y="456"/>
      <point x="226" y="499" type="curve"/>
      <point x="205" y="499" type="line"/>
      <point x="202" y="455"/>
      <point x="193" y="399"/>
      <point x="179" y="351" type="curve" smooth="yes"/>
      <point x="152" y="263"/>
      <point x="105" y="171"/>
      <point x="40" y="78" type="curve"/>
    </contour>
  </outline>
</glyph>
<glyph name="dotlessbeh-ar" format="1">
  <advance width="832"/>
  <unicode hex="066E"/>
  <outline>
    <contour>
      <point x="704" y="292"/>
      <point x="687" y="263"/>
      <point x="677" y="241" type="curve"/>
      <point x="702" y="215"/>
      <point x="718" y="192"/>
      <point x="733" y="162" type="curve"/>
      <point x="733" y="162"/>
      <point x="691" y="127"/>
      <point x="584" y="109" type="curve" smooth="yes"/>
      <point x="537" y="101"/>
      <point x="471" y="95"/>
      <point x="396" y="95" type="curve" smooth="yes"/>
      <point x="353" y="95"/>
      <point x="284" y="97"/>
      <point x="233" y="106" type="curve" smooth="yes"/>
      <point x="150" y="120"/>
      <point x="104" y="148"/>
      <point x="92" y="222" type="curve"/>
      <point x="73" y="229" type="line"/>
      <point x="62" y="131"/>
      <point x="85" y="84"/>
      <point x="109" y="58" type="curve" smooth="yes"/>
      <point x="136" y="29"/>
      <point x="172" y="16"/>
      <point x="233" y="5" type="curve" smooth="yes"/>
      <point x="272" y="-2"/>
      <point x="315" y="-7"/>
      <point x="376" y="-7" type="curve" smooth="yes"/>
      <point x="486" y="-7"/>
      <point x="581" y="9"/>
      <point x="651" y="38" type="curve" smooth="yes"/>
      <point x="754" y="81"/>
      <point x="772" y="141"/>
      <point x="772" y="183" type="curve" smooth="yes"/>
      <point x="772" y="227"/>
      <point x="752" y="274"/>
      <point x="720" y="310" type="curve"/>
    </contour>
    <contour>
      <point x="411" y="208" type="move" name="top"/>
    </contour>
    <contour>
      <point x="411" y="-36" type="move" name="bottom"/>
    </contour>
  </outline>
</glyph>
<glyph name="alefabove-ar" format="1">
  <advance width="0"/>
  <unicode hex="0670"/>
  <outline>
    <contour>
      <point x="19" y="751"/>
      <point x="11" y="797"/>
      <point x="1" y="819" type="curve"/>
      <point x="-11" y="814"/>
      <point x="-19" y="811"/>
      <point x="-24" y="805" type="curve"/>
      <point x="-17" y="792"/>
      <point x="2" y="759"/>
      <point x="-4" y="704" type="curve"/>
      <point x="12" y="705" type="line"/>
    </contour>
    <contour>
      <point x="-3" y="784" type="move" name="top"/>
    </contour>
    <contour>
      <point x="-3" y="695" type="move" name="_top"/>
    </contour>
  </outline>
</glyph>
<glyph name="keheh-ar" format="1">
  <advance width="733"/>
  <unicode hex="06A9"/>
  <outline>
    <contour>
      <point x="68" y="182"/>
      <point x="69" y="145"/>
      <point x="77" y="114" type="curve" smooth="yes"/>
      <point x="94" y="53"/>
      <point x="142" y="16"/>
      <point x="232" y="1" type="curve" smooth="yes"/>
      <point x="268" y="-5"/>
      <point x="299" y="-6"/>
      <point x="397" y="-6" type="curve"/>
      <point x="451" y="-5"/>
      <point x="506" y="-6"/>
      <point x="560" y="-2" type="curve" smooth="yes"/>
      <point x="638" y="4"/>
      <point x="684" y="46"/>
      <point x="684" y="128" type="curve" smooth="yes"/>
      <point x="684" y="192"/>
      <point x="656" y="254"/>
      <point x="623" y="297" type="curve" smooth="yes"/>
      <point x="602" y="324"/>
      <point x="570" y="353"/>
      <point x="534" y="378" type="curve"/>
      <point x="611" y="421"/>
      <point x="687" y="457"/>
      <point x="736" y="480" type="curve"/>
      <point x="744" y="510"/>
      <point x="749" y="537"/>
      <point x="753" y="568" type="curve"/>
      <point x="679" y="533"/>
      <point x="556" y="472"/>
      <point x="481" y="410" type="curve"/>
      <point x="474" y="383"/>
      <point x="469" y="363"/>
      <point x="465" y="327" type="curve"/>
      <point x="492" y="297" type="line"/>
      <point x="501" y="315" type="line"/>
      <point x="558" y="269"/>
      <point x="638" y="187"/>
      <point x="638" y="139" type="curve"/>
      <point x="630" y="121"/>
      <point x="598" y="95"/>
      <point x="562" y="95" type="curve"/>
      <point x="510" y="91"/>
      <point x="459" y="93"/>
      <point x="407" y="92" type="curve"/>
      <point x="338" y="92"/>
      <point x="278" y="95"/>
      <point x="229" y="102" type="curve" smooth="yes"/>
      <point x="169" y="111"/>
      <point x="133" y="127"/>
      <point x="113" y="158" type="curve" smooth="yes"/>
      <point x="103" y="174"/>
      <point x="96" y="194"/>
      <point x="92" y="218" type="curve"/>
      <point x="73" y="225" type="line"/>
    </contour>
    <contour>
      <point x="363" y="121" type="move" name="top"/>
    </contour>
    <contour>
      <point x="395" y="-16" type="move" name="bottom"/>
    </contour>
  </outline>
</glyph>
<glyph name="uni06AF" format="1">
  <advance width="733"/>
  <unicode hex="06AF"/>
  <outline>
    <contour>
      <point x="541" y="495"/>
      <point x="602" y="528"/>
      <point x="683" y="565" type="curve"/>
      <point x="690" y="598" type="line"/>
      <point x="649" y="578"/>
      <point x="556" y="534"/>
      <point x="488" y="489" type="curve"/>
      <point x="482" y="454" type="line"/>
    </contour>
    <component base="uni06A9"/>
    <contour>
      <point x="579" y="598" type="move" name="top"/>
    </contour>
  </outline>
</glyph>
<glyph name="noonghunna-ar" format="1">
  <advance width="588"/>
  <unicode hex="06BA"/>
  <outline>
    <contour>
      <point x="447" y="231"/>
      <point x="426" y="205"/>
      <point x="412" y="178" type="curve"/>
      <point x="415" y="174"/>
      <point x="488" y="73"/>
      <point x="488" y="24" type="curve" smooth="yes"/>
      <point x="488" y="-4"/>
      <point x="466" y="-31"/>
      <point x="431" y="-51" type="curve" smooth="yes"/>
      <point x="396" y="-71"/>
      <point x="349" y="-83"/>
      <point x="292" y="-83" type="curve" smooth="yes"/>
      <point x="214" y="-83"/>
      <point x="159" y="-61"/>
      <point x="132" y="-27" type="curve" smooth="yes"/>
      <point x="106" y="6"/>
      <point x="109" y="47"/>
      <point x="119" y="104" type="curve"/>
      <point x="100" y="111" type="line"/>
      <point x="82" y="68"/>
      <point x="73" y="26"/>
      <point x="71" y="-2" type="curve" smooth="yes"/>
      <point x="69" y="-31"/>
      <point x="72" y="-61"/>
      <point x="84" y="-90" type="curve" smooth="yes"/>
      <point x="98" y="-124"/>
      <point x="121" y="-149"/>
      <point x="156" y="-168" type="curve" smooth="yes"/>
      <point x="191" y="-187"/>
      <point x="234" y="-196"/>
      <point x="284" y="-196" type="curve" smooth="yes"/>
      <point x="321" y="-196"/>
      <point x="354" y="-191"/>
      <point x="384" y="-181" type="curve" smooth="yes"/>
      <point x="411" y="-172"/>
      <point x="436" y="-160"/>
      <point x="460" y="-138" type="curve" smooth="yes"/>
      <point x="505" y="-97"/>
      <point x="528" y="-34"/>
      <point x="528" y="43" type="curve" smooth="yes"/>
      <point x="528" y="93"/>
      <point x="518" y="139"/>
      <point x="499" y="184" type="curve" smooth="yes"/>
      <point x="485" y="218"/>
      <point x="470" y="237"/>
      <point x="461" y="248" type="curve"/>
    </contour>
    <contour>
      <point x="278" y="19" type="move" name="top"/>
    </contour>
    <contour>
      <point x="284" y="-219" type="move" name="bottom"/>
    </contour>
  </outline>
</glyph>
<glyph name="uni06CD" format="1">
  <advance width="659"/>
  <unicode hex="06CD"/>
  <outline>
    <contour>
      <point x="72" y="91"/>
      <point x="40" y="75"/>
      <point x="1" y="65" type="curve"/>
      <point x="30" y="30" type="line"/>
      <point x="101" y="61" type="line"/>
      <point x="101" y="108" type="line"/>
    </contour>
    <component base="uni0649"/>
  </outline>
</glyph>
<glyph name="sadLamAlefMaksuraabove-ar" format="1">
  <advance width="0"/>
  <unicode hex="06D6"/>
  <outline>
    <contour>
      <point x="153" y="853"/>
      <point x="146" y="856"/>
      <point x="140" y="856" type="curve" smooth="yes"/>
      <point x="124" y="856"/>
      <point x="106" y="839"/>
      <point x="97" y="829" type="curve" smooth="yes"/>
      <point x="85" y="816"/>
      <point x="75" y="802"/>
      <point x="74" y="799" type="curve"/>
      <point x="69" y="799"/>
      <point x="65" y="801"/>
      <point x="62" y="805" type="curve" smooth="yes"/>
      <point x="58" y="810"/>
      <point x="57" y="815"/>
      <point x="59" y="824" type="curve"/>
      <point x="53" y="821" type="line"/>
      <point x="52" y="815"/>
      <point x="51" y="812"/>
      <point x="48" y="807" type="curve" smooth="yes"/>
      <point x="45" y="802"/>
      <point x="40" y="799"/>
      <point x="32" y="799" type="curve" smooth="yes"/>
      <point x="17" y="799" type="line" smooth="yes"/>
      <point x="10" y="799"/>
      <point x="5" y="801"/>
      <point x="1" y="805" type="curve" smooth="yes"/>
      <point x="-2" y="809"/>
      <point x="-4" y="815"/>
      <point x="-4" y="819" type="curve" smooth="yes"/>
      <point x="-9" y="857"/>
      <point x="-11" y="883"/>
      <point x="-15" y="919" type="curve"/>
      <point x="-20" y="913"/>
      <point x="-25" y="909"/>
      <point x="-30" y="901" type="curve"/>
      <point x="-25" y="872"/>
      <point x="-23" y="853"/>
      <point x="-20" y="835" type="curve" smooth="yes"/>
      <point x="-19" y="828"/>
      <point x="-19" y="825"/>
      <point x="-18" y="819" type="curve" smooth="yes"/>
      <point x="-18" y="814"/>
      <point x="-19" y="810"/>
      <point x="-23" y="805" type="curve" smooth="yes"/>
      <point x="-27" y="801"/>
      <point x="-33" y="799"/>
      <point x="-39" y="799" type="curve" smooth="yes"/>
      <point x="-69" y="798" type="line" smooth="yes"/>
      <point x="-79" y="798"/>
      <point x="-87" y="796"/>
      <point x="-95" y="792" type="curve" smooth="yes"/>
      <point x="-101" y="789"/>
      <point x="-103" y="786"/>
      <point x="-107" y="783" type="curve" smooth="yes"/>
      <point x="-114" y="776"/>
      <point x="-125" y="771"/>
      <point x="-132" y="768" type="curve" smooth="yes"/>
      <point x="-140" y="764"/>
      <point x="-150" y="759"/>
      <point x="-157" y="753" type="curve" smooth="yes"/>
      <point x="-172" y="741"/>
      <point x="-172" y="731"/>
      <point x="-172" y="728" type="curve" smooth="yes"/>
      <point x="-172" y="724"/>
      <point x="-170" y="716"/>
      <point x="-161" y="710" type="curve" smooth="yes"/>
      <point x="-153" y="704"/>
      <point x="-139" y="701"/>
      <point x="-121" y="701" type="curve" smooth="yes"/>
      <point x="6" y="701" type="line"/>
      <point x="14" y="711"/>
      <point x="18" y="717"/>
      <point x="22" y="726" type="curve"/>
      <point x="-127" y="726" type="line" smooth="yes"/>
      <point x="-139" y="726"/>
      <point x="-155" y="727"/>
      <point x="-155" y="738" type="curve" smooth="yes"/>
      <point x="-155" y="742"/>
      <point x="-151" y="746"/>
      <point x="-146" y="748" type="curve"/>
      <point x="-143" y="749"/>
      <point x="-138" y="751"/>
      <point x="-133" y="754" type="curve" smooth="yes"/>
      <point x="-126" y="757"/>
      <point x="-120" y="761"/>
      <point x="-115" y="765" type="curve"/>
      <point x="-112" y="768"/>
      <point x="-106" y="773"/>
      <point x="-91" y="773" type="curve" smooth="yes"/>
      <point x="-33" y="773" type="line" smooth="yes"/>
      <point x="-17" y="773"/>
      <point x="-7" y="780"/>
      <point x="-6" y="794" type="curve"/>
      <point x="-3" y="780"/>
      <point x="6" y="773"/>
      <point x="20" y="773" type="curve" smooth="yes"/>
      <point x="31" y="774" type="line" smooth="yes"/>
      <point x="44" y="774"/>
      <point x="52" y="780"/>
      <point x="54" y="791" type="curve"/>
      <point x="56" y="785"/>
      <point x="60" y="780"/>
      <point x="67" y="778" type="curve"/>
      <point x="65" y="769" type="line"/>
      <point x="72" y="769" type="line"/>
      <point x="74" y="776" type="line"/>
      <point x="80" y="775"/>
      <point x="86" y="775"/>
      <point x="96" y="775" type="curve" smooth="yes"/>
      <point x="111" y="775"/>
      <point x="130" y="781"/>
      <point x="144" y="792" type="curve" smooth="yes"/>
      <point x="151" y="798"/>
      <point x="157" y="804"/>
      <point x="161" y="811" type="curve" smooth="yes"/>
      <point x="165" y="818"/>
      <point x="167" y="826"/>
      <point x="167" y="831" type="curve" smooth="yes"/>
      <point x="167" y="835"/>
      <point x="166" y="843"/>
      <point x="158" y="849" type="curve" smooth="yes"/>
    </contour>
    <contour>
      <point x="131" y="801"/>
      <point x="122" y="799"/>
      <point x="112" y="799" type="curve" smooth="yes"/>
      <point x="83" y="799" type="line"/>
      <point x="88" y="806"/>
      <point x="95" y="815"/>
      <point x="100" y="820" type="curve" smooth="yes"/>
      <point x="111" y="831"/>
      <point x="120" y="836"/>
      <point x="129" y="836" type="curve" smooth="yes"/>
      <point x="139" y="836"/>
      <point x="145" y="831"/>
      <point x="149" y="827" type="curve" smooth="yes"/>
      <point x="152" y="824"/>
      <point x="153" y="821"/>
      <point x="154" y="816" type="curve"/>
      <point x="149" y="810"/>
      <point x="145" y="807"/>
      <point x="137" y="803" type="curve" smooth="yes"/>
    </contour>
    <contour>
      <point x="-3" y="919" type="move" name="top"/>
    </contour>
    <contour>
      <point x="-3" y="681" type="move" name="_top"/>
    </contour>
  </outline>
</glyph>
<glyph name="qafLamAlefMaksuraabove-ar" format="1">
  <advance width="0"/>
  <unicode hex="06D7"/>
  <outline>
    <contour>
      <point x="119" y="861"/>
      <point x="110" y="882"/>
      <point x="95" y="882" type="curve" smooth="yes"/>
      <point x="85" y="882"/>
      <point x="78" y="873"/>
      <point x="76" y="868" type="curve" smooth="yes"/>
      <point x="72" y="861"/>
      <point x="69" y="851"/>
      <point x="69" y="842" type="curve" smooth="yes"/>
      <point x="69" y="834"/>
      <point x="71" y="828"/>
      <point x="76" y="824" type="curve" smooth="yes"/>
      <point x="79" y="821"/>
      <point x="83" y="818"/>
      <point x="92" y="818" type="curve" smooth="yes"/>
      <point x="96" y="818"/>
      <point x="106" y="819"/>
      <point x="112" y="825" type="curve"/>
      <point x="113" y="819"/>
      <point x="110" y="812"/>
      <point x="107" y="808" type="curve" smooth="yes"/>
      <point x="102" y="803"/>
      <point x="93" y="798"/>
      <point x="77" y="798" type="curve" smooth="yes"/>
      <point x="74" y="798"/>
      <point x="52" y="798"/>
      <point x="52" y="798" type="curve" smooth="yes"/>
      <point x="45" y="798"/>
      <point x="40" y="801"/>
      <point x="36" y="805" type="curve" smooth="yes"/>
      <point x="33" y="809"/>
      <point x="32" y="815"/>
      <point x="31" y="819" type="curve" smooth="yes"/>
      <point x="27" y="856"/>
      <point x="24" y="883"/>
      <point x="21" y="918" type="curve"/>
      <point x="15" y="913"/>
      <point x="10" y="908"/>
      <point x="5" y="900" type="curve"/>
      <point x="10" y="872"/>
      <point x="17" y="820"/>
      <point x="17" y="819" type="curve" smooth="yes"/>
      <point x="17" y="814"/>
      <point x="16" y="809"/>
      <point x="13" y="805" type="curve" smooth="yes"/>
      <point x="8" y="801"/>
      <point x="3" y="798"/>
      <point x="-4" y="798" type="curve" smooth="yes"/>
      <point x="-34" y="798" type="line" smooth="yes"/>
      <point x="-43" y="798"/>
      <point x="-52" y="796"/>
      <point x="-60" y="792" type="curve" smooth="yes"/>
      <point x="-65" y="789"/>
      <point x="-68" y="786"/>
      <point x="-72" y="782" type="curve" smooth="yes"/>
      <point x="-79" y="776"/>
      <point x="-89" y="771"/>
      <point x="-96" y="768" type="curve" smooth="yes"/>
      <point x="-105" y="764"/>
      <point x="-114" y="759"/>
      <point x="-122" y="753" type="curve" smooth="yes"/>
      <point x="-137" y="741"/>
      <point x="-136" y="731"/>
      <point x="-136" y="727" type="curve" smooth="yes"/>
      <point x="-136" y="724"/>
      <point x="-135" y="716"/>
      <point x="-126" y="710" type="curve" smooth="yes"/>
      <point x="-117" y="703"/>
      <point x="-104" y="700"/>
      <point x="-86" y="700" type="curve" smooth="yes"/>
      <point x="41" y="700" type="line"/>
      <point x="49" y="710"/>
      <point x="53" y="717"/>
      <point x="57" y="725" type="curve"/>
      <point x="-92" y="725" type="line" smooth="yes"/>
      <point x="-104" y="725"/>
      <point x="-119" y="726"/>
      <point x="-119" y="738" type="curve" smooth="yes"/>
      <point x="-119" y="742"/>
      <point x="-116" y="746"/>
      <point x="-111" y="747" type="curve"/>
      <point x="-107" y="749"/>
      <point x="-103" y="751"/>
      <point x="-97" y="754" type="curve" smooth="yes"/>
      <point x="-90" y="757"/>
      <point x="-85" y="761"/>
      <point x="-80" y="765" type="curve"/>
      <point x="-77" y="768"/>
      <point x="-71" y="773"/>
      <point x="-56" y="773" type="curve" smooth="yes"/>
      <point x="2" y="773" type="line" smooth="yes"/>
      <point x="18" y="773"/>
      <point x="28" y="780"/>
      <point x="29" y="794" type="curve"/>
      <point x="32" y="780"/>
      <point x="41" y="773"/>
      <point x="55" y="773" type="curve" smooth="yes"/>
      <point x="67" y="773" type="line" smooth="yes"/>
      <point x="78" y="773"/>
      <point x="92" y="774"/>
      <point x="102" y="783" type="curve" smooth="yes"/>
      <point x="110" y="789"/>
      <point x="115" y="798"/>
      <point x="118" y="808" type="curve" smooth="yes"/>
      <point x="121" y="819"/>
      <point x="122" y="831"/>
      <point x="121" y="842" type="curve" smooth="yes"/>
    </contour>
    <contour>
      <point x="107" y="842"/>
      <point x="101" y="837"/>
      <point x="92" y="837" type="curve" smooth="yes"/>
      <point x="78" y="837"/>
      <point x="77" y="848"/>
      <point x="77" y="850" type="curve" smooth="yes"/>
      <point x="77" y="854"/>
      <point x="80" y="864"/>
      <point x="91" y="864" type="curve" smooth="yes"/>
      <point x="100" y="864"/>
      <point x="106" y="856"/>
      <point x="108" y="844" type="curve"/>
    </contour>
    <contour>
      <point x="114" y="910"/>
      <point x="109" y="916"/>
      <point x="103" y="920" type="curve"/>
      <point x="100" y="916"/>
      <point x="96" y="912"/>
      <point x="93" y="909" type="curve"/>
      <point x="89" y="912"/>
      <point x="85" y="917"/>
      <point x="81" y="920" type="curve"/>
      <point x="77" y="916"/>
      <point x="72" y="910"/>
      <point x="68" y="906" type="curve"/>
      <point x="73" y="902"/>
      <point x="77" y="898"/>
      <point x="82" y="892" type="curve"/>
      <point x="87" y="897"/>
      <point x="90" y="900"/>
      <point x="93" y="903" type="curve"/>
      <point x="97" y="900"/>
      <point x="101" y="897"/>
      <point x="104" y="892" type="curve"/>
      <point x="110" y="898"/>
      <point x="114" y="901"/>
      <point x="118" y="905" type="curve"/>
    </contour>
    <contour>
      <point x="-7" y="920" type="move" name="top"/>
    </contour>
    <contour>
      <point x="-7" y="680" type="move" name="_top"/>
    </contour>
  </outline>
</glyph>
<glyph name="jeemabove-ar" format="1">
  <advance width="0"/>
  <unicode hex="06DA"/>
  <outline>
    <contour>
      <point x="-72" y="758"/>
      <point x="-65" y="738"/>
      <point x="-53" y="725" type="curve" smooth="yes"/>
      <point x="-41" y="709"/>
      <point x="-21" y="700"/>
      <point x="3" y="700" type="curve" smooth="yes"/>
      <point x="18" y="700"/>
      <point x="26" y="704"/>
      <point x="34" y="709" type="curve"/>
      <point x="43" y="713"/>
      <point x="51" y="717"/>
      <point x="66" y="718" type="curve"/>
      <point x="68" y="723" type="line"/>
      <point x="56" y="725"/>
      <point x="52" y="725"/>
      <point x="40" y="726" type="curve" smooth="yes"/>
      <point x="27" y="726"/>
      <point x="15" y="729"/>
      <point x="11" y="729" type="curve" smooth="yes"/>
      <point x="-11" y="732"/>
      <point x="-28" y="739"/>
      <point x="-38" y="751" type="curve"/>
      <point x="-48" y="761"/>
      <point x="-53" y="775"/>
      <point x="-51" y="793" type="curve" smooth="yes"/>
      <point x="-50" y="818"/>
      <point x="-34" y="837"/>
      <point x="-13" y="850" type="curve" smooth="yes"/>
      <point x="10" y="863"/>
      <point x="42" y="869"/>
      <point x="71" y="866" type="curve"/>
      <point x="74" y="876"/>
      <point x="77" y="887"/>
      <point x="79" y="893" type="curve"/>
      <point x="77" y="893"/>
      <point x="74" y="893"/>
      <point x="71" y="893" type="curve" smooth="yes"/>
      <point x="34" y="893"/>
      <point x="0" y="904"/>
      <point x="-3" y="905" type="curve"/>
      <point x="-12" y="908"/>
      <point x="-18" y="910"/>
      <point x="-27" y="910" type="curve" smooth="yes"/>
      <point x="-35" y="910"/>
      <point x="-41" y="908"/>
      <point x="-46" y="903" type="curve" smooth="yes"/>
      <point x="-51" y="899"/>
      <point x="-56" y="893"/>
      <point x="-63" y="876" type="curve"/>
      <point x="-58" y="872" type="line"/>
      <point x="-54" y="878"/>
      <point x="-47" y="887"/>
      <point x="-29" y="887" type="curve" smooth="yes"/>
      <point x="-13" y="887"/>
      <point x="6" y="879"/>
      <point x="12" y="877" type="curve"/>
      <point x="2" y="875"/>
      <point x="-9" y="871"/>
      <point x="-18" y="865" type="curve" smooth="yes"/>
      <point x="-31" y="858"/>
      <point x="-44" y="847"/>
      <point x="-53" y="834" type="curve"/>
      <point x="-62" y="819"/>
      <point x="-69" y="801"/>
      <point x="-70" y="781" type="curve" smooth="yes"/>
    </contour>
    <contour>
      <point x="3" y="791"/>
      <point x="9" y="785"/>
      <point x="15" y="778" type="curve"/>
      <point x="23" y="785"/>
      <point x="28" y="790"/>
      <point x="33" y="795" type="curve"/>
      <point x="28" y="801"/>
      <point x="21" y="809"/>
      <point x="14" y="813" type="curve"/>
      <point x="9" y="808"/>
      <point x="3" y="800"/>
      <point x="-3" y="796" type="curve"/>
    </contour>
    <contour>
      <point x="4" y="910" type="move" name="top"/>
    </contour>
    <contour>
      <point x="4" y="680" type="move" name="_top"/>
    </contour>
  </outline>
</glyph>
<glyph name="threedotsabove-ar" format="1">
  <advance width="0"/>
  <unicode hex="06DB"/>
  <outline>
    <contour>
      <point x="-39" y="720"/>
      <point x="-31" y="712"/>
      <point x="-23" y="703" type="curve"/>
      <point x="-13" y="712"/>
      <point x="-7" y="718"/>
      <point x="-1" y="725" type="curve"/>
      <point x="7" y="719"/>
      <point x="15" y="711"/>
      <point x="22" y="703" type="curve"/>
      <point x="32" y="712"/>
      <point x="39" y="719"/>
      <point x="45" y="726" type="curve"/>
      <point x="39" y="734"/>
      <point x="29" y="744"/>
      <point x="20" y="750" type="curve"/>
      <point x="14" y="743"/>
      <point x="6" y="734"/>
      <point x="-2" y="728" type="curve"/>
      <point x="-8" y="736"/>
      <point x="-17" y="745"/>
      <point x="-25" y="750" type="curve"/>
      <point x="-31" y="743"/>
      <point x="-40" y="733"/>
      <point x="-48" y="727" type="curve"/>
    </contour>
    <contour>
      <point x="-17" y="762"/>
      <point x="-9" y="754"/>
      <point x="-1" y="745" type="curve"/>
      <point x="9" y="754"/>
      <point x="16" y="761"/>
      <point x="22" y="768" type="curve"/>
      <point x="16" y="776"/>
      <point x="6" y="786"/>
      <point x="-3" y="792" type="curve"/>
      <point x="-9" y="785"/>
      <point x="-18" y="775"/>
      <point x="-26" y="769" type="curve"/>
    </contour>
    <contour>
      <point x="-1" y="792" type="move" name="top"/>
    </contour>
    <contour>
      <point x="-1" y="683" type="move" name="_top"/>
    </contour>
  </outline>
</glyph>
<glyph name="uni06DC" format="1">
  <advance width="0"/>
  <unicode hex="06DC"/>
  <outline>
    <contour>
      <point x="100" y="878"/>
      <point x="94" y="871"/>
      <point x="91" y="864" type="curve"/>
      <point x="105" y="844" type="line"/>
      <point x="104" y="836"/>
      <point x="94" y="827"/>
      <point x="82" y="827" type="curve" smooth="yes"/>
      <point x="63" y="827"/>
      <point x="56" y="837"/>
      <point x="58" y="858" type="curve"/>
      <point x="51" y="855" type="line"/>
      <point x="51" y="844"/>
      <point x="46" y="827"/>
      <point x="26" y="827" type="curve" smooth="yes"/>
      <point x="6" y="827"/>
      <point x="-5" y="843"/>
      <point x="-8" y="848" type="curve"/>
      <point x="-13" y="843"/>
      <point x="-19" y="834"/>
      <point x="-24" y="825" type="curve"/>
      <point x="-17" y="817"/>
      <point x="1" y="790"/>
      <point x="1" y="774" type="curve" smooth="yes"/>
      <point x="1" y="765"/>
      <point x="-6" y="756"/>
      <point x="-17" y="749" type="curve" smooth="yes"/>
      <point x="-30" y="742"/>
      <point x="-45" y="738"/>
      <point x="-64" y="738" type="curve" smooth="yes"/>
      <point x="-90" y="738"/>
      <point x="-108" y="746"/>
      <point x="-117" y="757" type="curve" smooth="yes"/>
      <point x="-126" y="768"/>
      <point x="-125" y="781"/>
      <point x="-122" y="801" type="curve"/>
      <point x="-128" y="803" type="line"/>
      <point x="-134" y="789"/>
      <point x="-137" y="774"/>
      <point x="-138" y="765" type="curve" smooth="yes"/>
      <point x="-138" y="756"/>
      <point x="-138" y="746"/>
      <point x="-133" y="736" type="curve" smooth="yes"/>
      <point x="-129" y="725"/>
      <point x="-121" y="716"/>
      <point x="-110" y="709" type="curve" smooth="yes"/>
      <point x="-98" y="703"/>
      <point x="-83" y="700"/>
      <point x="-67" y="700" type="curve" smooth="yes"/>
      <point x="-55" y="700"/>
      <point x="-43" y="702"/>
      <point x="-33" y="706" type="curve" smooth="yes"/>
      <point x="-24" y="709"/>
      <point x="-16" y="712"/>
      <point x="-8" y="720" type="curve" smooth="yes"/>
      <point x="7" y="734"/>
      <point x="15" y="755"/>
      <point x="15" y="781" type="curve" smooth="yes"/>
      <point x="15" y="787"/>
      <point x="14" y="792"/>
      <point x="14" y="798" type="curve"/>
      <point x="25" y="794"/>
      <point x="34" y="795"/>
      <point x="41" y="799" type="curve" smooth="yes"/>
      <point x="48" y="804"/>
      <point x="51" y="811"/>
      <point x="53" y="821" type="curve"/>
      <point x="53" y="821"/>
      <point x="54" y="812"/>
      <point x="62" y="805" type="curve" smooth="yes"/>
      <point x="66" y="801"/>
      <point x="73" y="798"/>
      <point x="82" y="798" type="curve" smooth="yes"/>
      <point x="94" y="798"/>
      <point x="101" y="804"/>
      <point x="107" y="811" type="curve" smooth="yes"/>
      <point x="116" y="824"/>
      <point x="117" y="840"/>
      <point x="117" y="842" type="curve" smooth="yes"/>
      <point x="117" y="864"/>
      <point x="108" y="878"/>
      <point x="104" y="883" type="curve"/>
    </contour>
  </outline>
</glyph>
<glyph name="sukunround-ar" format="1">
  <advance width="0"/>
  <unicode hex="06DF"/>
  <outline>
    <contour>
      <point x="-28" y="832"/>
      <point x="-45" y="792"/>
      <point x="-45" y="761" type="curve" smooth="yes"/>
      <point x="-45" y="749"/>
      <point x="-37" y="718"/>
      <point x="-2" y="718" type="curve" smooth="yes"/>
      <point x="17" y="718"/>
      <point x="30" y="725"/>
      <point x="37" y="737" type="curve" smooth="yes"/>
      <point x="43" y="747"/>
      <point x="44" y="759"/>
      <point x="44" y="767" type="curve" smooth="yes"/>
      <point x="44" y="795"/>
      <point x="31" y="832"/>
      <point x="-2" y="832" type="curve"/>
    </contour>
    <contour>
      <point x="13" y="792"/>
      <point x="32" y="780"/>
      <point x="32" y="766" type="curve" smooth="yes"/>
      <point x="32" y="751"/>
      <point x="15" y="751"/>
      <point x="10" y="751" type="curve" smooth="yes"/>
      <point x="-13" y="751"/>
      <point x="-30" y="763"/>
      <point x="-30" y="778" type="curve" smooth="yes"/>
      <point x="-30" y="788"/>
      <point x="-23" y="798"/>
      <point x="-17" y="805" type="curve"/>
    </contour>
    <contour>
      <point x="-1" y="832" type="move" name="top"/>
    </contour>
    <contour>
      <point x="-1" y="698" type="move" name="_top"/>
    </contour>
  </outline>
</glyph>
<glyph name="uni06E2" format="1">
  <advance width="0"/>
  <unicode hex="06E2"/>
  <outline>
    <contour>
      <point x="40" y="878"/>
      <point x="33" y="887"/>
      <point x="23" y="894" type="curve" smooth="yes"/>
      <point x="18" y="897"/>
      <point x="11" y="900"/>
      <point x="3" y="900" type="curve" smooth="yes"/>
      <point x="-7" y="900"/>
      <point x="-14" y="895"/>
      <point x="-18" y="884" type="curve" smooth="yes"/>
      <point x="-20" y="880"/>
      <point x="-21" y="875"/>
      <point x="-21" y="872" type="curve"/>
      <point x="-9" y="878"/>
      <point x="1" y="875"/>
      <point x="15" y="867" type="curve"/>
      <point x="-3" y="866"/>
      <point x="-17" y="864"/>
      <point x="-29" y="853" type="curve" smooth="yes"/>
      <point x="-36" y="846"/>
      <point x="-45" y="830"/>
      <point x="-42" y="806" type="curve" smooth="yes"/>
      <point x="-41" y="794"/>
      <point x="-39" y="781"/>
      <point x="-36" y="767" type="curve" smooth="yes"/>
      <point x="-33" y="748"/>
      <point x="-29" y="727"/>
      <point x="-27" y="705" type="curve"/>
      <point x="-19" y="707" type="line"/>
      <point x="-18" y="724"/>
      <point x="-21" y="755"/>
      <point x="-27" y="800" type="curve" smooth="yes"/>
      <point x="-28" y="810"/>
      <point x="-26" y="819"/>
      <point x="-19" y="826" type="curve" smooth="yes"/>
      <point x="-13" y="833"/>
      <point x="-3" y="838"/>
      <point x="11" y="841" type="curve" smooth="yes"/>
      <point x="23" y="844"/>
      <point x="32" y="844"/>
      <point x="38" y="844" type="curve"/>
      <point x="40" y="856"/>
      <point x="41" y="866"/>
      <point x="42" y="876" type="curve"/>
    </contour>
    <contour>
      <point x="0" y="900" type="move" name="top"/>
    </contour>
    <contour>
      <point x="0" y="685" type="move" name="_top"/>
    </contour>
  </outline>
</glyph>
<glyph name="uni06EA" format="1">
  <advance width="0"/>
  <unicode hex="06EA"/>
  <outline>
    <contour>
      <point x="78" y="-277" type="line"/>
      <point x="2" y="-201" type="line"/>
      <point x="-73" y="-277" type="line"/>
      <point x="2" y="-353" type="line"/>
    </contour>
    <contour>
      <point x="2" y="-222" type="line"/>
      <point x="58" y="-277" type="line"/>
      <point x="2" y="-333" type="line"/>
      <point x="-53" y="-277" type="line"/>
    </contour>
  </outline>
</glyph>
<glyph name="uni06EB" format="1">
  <advance width="0"/>
  <unicode hex="06EB"/>
  <outline>
    <contour>
      <point x="76" y="776" type="line"/>
      <point x="0" y="852" type="line"/>
      <point x="-75" y="776" type="line"/>
      <point x="0" y="700" type="line"/>
    </contour>
    <contour>
      <point x="0" y="831" type="line"/>
      <point x="56" y="776" type="line"/>
      <point x="0" y="720" type="line"/>
      <point x="-55" y="776" type="line"/>
    </contour>
  </outline>
</glyph>
<glyph name="uni06F4" format="1">
  <advance width="374"/>
  <unicode hex="06F4"/>
  <outline>
    <contour>
      <point x="312" y="376"/>
      <point x="294" y="373"/>
      <point x="271" y="373" type="curve" smooth="yes"/>
      <point x="227" y="378"/>
      <point x="199" y="393"/>
      <point x="165" y="423" type="curve"/>
      <point x="189" y="459"/>
      <point x="211" y="476"/>
      <point x="241" y="479" type="curve" smooth="yes"/>
      <point x="264" y="481"/>
      <point x="288" y="476"/>
      <point x="305" y="464" type="curve"/>
      <point x="314" y="487" type="line"/>
      <point x="306" y="496"/>
      <point x="281" y="523"/>
      <point x="236" y="523" type="curve" smooth="yes"/>
      <point x="191" y="523"/>
      <point x="155" y="491"/>
      <point x="139" y="445" type="curve"/>
      <point x="121" y="471"/>
      <point x="96" y="509"/>
      <point x="87" y="523" type="curve"/>
      <point x="69" y="500"/>
      <point x="53" y="475"/>
      <point x="40" y="449" type="curve"/>
      <point x="72" y="397"/>
      <point x="96" y="331"/>
      <point x="111" y="257" type="curve" smooth="yes"/>
      <point x="128" y="175"/>
      <point x="134" y="94"/>
      <point x="128" y="0" type="curve"/>
      <point x="154" y="0" type="line"/>
      <point x="170" y="70"/>
      <point x="179" y="136"/>
      <point x="181" y="201" type="curve" smooth="yes"/>
      <point x="182" y="266"/>
      <point x="169" y="328"/>
      <point x="165" y="346" type="curve"/>
      <point x="179" y="336"/>
      <point x="208" y="317"/>
      <point x="247" y="317" type="curve" smooth="yes"/>
      <point x="306" y="317"/>
      <point x="334" y="358"/>
      <point x="344" y="380" type="curve"/>
      <point x="330" y="391" type="line"/>
    </contour>
  </outline>
</glyph>
<glyph name="sindhipostpositionmen-ar" format="1">
  <advance width="541"/>
  <unicode hex="06FE"/>
  <outline>
    <contour>
      <point x="474" y="96" type="line"/>
      <point x="481" y="122"/>
      <point x="483" y="149"/>
      <point x="479" y="183" type="curve" smooth="yes"/>
      <point x="475" y="217"/>
      <point x="468" y="241"/>
      <point x="451" y="263" type="curve" smooth="yes"/>
      <point x="436" y="282"/>
      <point x="419" y="292"/>
      <point x="396" y="292" type="curve" smooth="yes"/>
      <point x="361" y="292"/>
      <point x="334" y="268"/>
      <point x="316" y="243" type="curve" smooth="yes"/>
      <point x="304" y="227"/>
      <point x="294" y="207"/>
      <point x="284" y="181" type="curve"/>
      <point x="270" y="190" type="line"/>
      <point x="234" y="101"/>
      <point x="223" y="89"/>
      <point x="150" y="46" type="curve" smooth="yes"/>
      <point x="119" y="28"/>
      <point x="85" y="10"/>
      <point x="20" y="-25" type="curve"/>
      <point x="29" y="-38" type="line"/>
      <point x="51" y="-33"/>
      <point x="69" y="-31"/>
      <point x="87" y="-31" type="curve" smooth="yes"/>
      <point x="110" y="-31"/>
      <point x="132" y="-34"/>
      <point x="151" y="-34" type="curve" smooth="yes"/>
      <point x="179" y="-34"/>
      <point x="199" y="-28"/>
      <point x="223" y="-11" type="curve" smooth="yes"/>
      <point x="259" y="14"/>
      <point x="272" y="44"/>
      <point x="283" y="89" type="curve"/>
      <point x="326" y="61"/>
      <point x="374" y="44"/>
      <point x="442" y="37" type="curve"/>
    </contour>
    <contour>
      <point x="449" y="145"/>
      <point x="451" y="110"/>
      <point x="451" y="110" type="curve"/>
      <point x="406" y="120"/>
      <point x="357" y="141"/>
      <point x="310" y="169" type="curve"/>
      <point x="310" y="169"/>
      <point x="322" y="222"/>
      <point x="364" y="222" type="curve" smooth="yes"/>
      <point x="389" y="222"/>
      <point x="419" y="203"/>
      <point x="435" y="172" type="curve" smooth="yes"/>
    </contour>
    <component base="uniFBBC" xOffset="389" yOffset="47"/>
  </outline>
</glyph>
<glyph name="uni0750" format="1">
  <advance width="832"/>
  <unicode hex="0750"/>
  <outline>
    <component base="uni066E"/>
    <component base="dots.horz.below-ar" xOffset="412" yOffset="130"/>
    <contour>
      <point x="417" y="-210" type="move" name="bottom"/>
    </contour>
  </outline>
</glyph>
<glyph name="rehLoop-ar" format="1">
  <advance width="414"/>
  <unicode hex="08AA"/>
  <outline>
    <contour>
      <point x="272" y="186"/>
      <point x="259" y="166"/>
      <point x="243" y="137" type="curve"/>
      <point x="259" y="122"/>
      <point x="276" y="100"/>
      <point x="288" y="81" type="curve" smooth="yes"/>
      <point x="302" y="59"/>
      <point x="311" y="38"/>
      <point x="311" y="8" type="curve" smooth="yes"/>
      <point x="311" y="-40"/>
      <point x="284" y="-82"/>
      <point x="243" y="-108" type="curve"/>
      <point x="221" y="-48"/>
      <point x="174" y="-16"/>
      <point x="120" y="-15" type="curve" smooth="yes"/>
      <point x="88" y="-15"/>
      <point x="30" y="-38"/>
      <point x="30" y="-113" type="curve" smooth="yes"/>
      <point x="30" y="-149"/>
      <point x="44" y="-179"/>
      <point x="68" y="-201" type="curve" smooth="yes"/>
      <point x="91" y="-222"/>
      <point x="124" y="-235"/>
      <point x="160" y="-236" type="curve" smooth="yes"/>
      <point x="185" y="-236"/>
      <point x="212" y="-231"/>
      <point x="239" y="-219" type="curve"/>
      <point x="242" y="-233"/>
      <point x="246" y="-247"/>
      <point x="248" y="-262" type="curve"/>
      <point x="279" y="-235" type="line"/>
      <point x="276" y="-223"/>
      <point x="274" y="-210"/>
      <point x="271" y="-198" type="curve"/>
      <point x="287" y="-184"/>
      <point x="301" y="-167"/>
      <point x="312" y="-148" type="curve" smooth="yes"/>
      <point x="347" y="-87"/>
      <point x="354" y="-8"/>
      <point x="354" y="34" type="curve" smooth="yes"/>
      <point x="354" y="99"/>
      <point x="337" y="139"/>
      <point x="321" y="168" type="curve" smooth="yes"/>
      <point x="310" y="188"/>
      <point x="299" y="202"/>
      <point x="292" y="209" type="curve"/>
    </contour>
    <contour>
      <point x="190" y="-146"/>
      <point x="160" y="-154"/>
      <point x="132" y="-154" type="curve" smooth="yes"/>
      <point x="92" y="-154"/>
      <point x="54" y="-137"/>
      <point x="58" y="-100" type="curve" smooth="yes"/>
      <point x="61" y="-80"/>
      <point x="84" y="-60"/>
      <point x="111" y="-60" type="curve" smooth="yes"/>
      <point x="148" y="-60"/>
      <point x="183" y="-82"/>
      <point x="205" y="-130" type="curve"/>
    </contour>
  </outline>
</glyph>
<glyph name="fathatanCurly-ar" format="1">
  <advance width="0"/>
  <unicode hex="08E7"/>
  <outline>
    <contour>
      <point x="-56" y="780"/>
      <point x="-50" y="770"/>
      <point x="-33" y="757" type="curve"/>
      <point x="-35" y="751"/>
      <point x="-37" y="744"/>
      <point x="-37" y="738" type="curve" smooth="yes"/>
      <point x="-37" y="724"/>
      <point x="-30" y="714"/>
      <point x="-11" y="700" type="curve"/>
      <point x="-8" y="706" type="line"/>
      <point x="-12" y="711"/>
      <point x="-16" y="715"/>
      <point x="-17" y="721" type="curve"/>
      <point x="-22" y="734"/>
      <point x="-7" y="748"/>
      <point x="2" y="753" type="curve" smooth="yes"/>
      <point x="9" y="757"/>
      <point x="33" y="768"/>
      <point x="41" y="780" type="curve"/>
      <point x="47" y="787"/>
      <point x="52" y="799"/>
      <point x="51" y="810" type="curve" smooth="yes"/>
      <point x="50" y="823"/>
      <point x="45" y="830"/>
      <point x="28" y="844" type="curve"/>
      <point x="31" y="850"/>
      <point x="32" y="858"/>
      <point x="32" y="865" type="curve" smooth="yes"/>
      <point x="31" y="879"/>
      <point x="25" y="886"/>
      <point x="5" y="901" type="curve"/>
      <point x="2" y="894" type="line"/>
      <point x="5" y="891"/>
      <point x="11" y="885"/>
      <point x="12" y="880" type="curve"/>
      <point x="12" y="876"/>
      <point x="15" y="864"/>
      <point x="-6" y="849" type="curve" smooth="yes"/>
      <point x="-16" y="842"/>
      <point x="-37" y="833"/>
      <point x="-47" y="820" type="curve" smooth="yes"/>
      <point x="-53" y="811"/>
      <point x="-56" y="802"/>
      <point x="-56" y="793" type="curve" smooth="yes"/>
    </contour>
    <contour>
      <point x="-41" y="790"/>
      <point x="-26" y="803"/>
      <point x="-16" y="808" type="curve" smooth="yes"/>
      <point x="-9" y="812"/>
      <point x="14" y="823"/>
      <point x="23" y="837" type="curve"/>
      <point x="26" y="833"/>
      <point x="30" y="829"/>
      <point x="31" y="824" type="curve"/>
      <point x="31" y="821"/>
      <point x="33" y="809"/>
      <point x="13" y="794" type="curve" smooth="yes"/>
      <point x="2" y="787"/>
      <point x="-18" y="779"/>
      <point x="-29" y="763" type="curve"/>
      <point x="-32" y="767"/>
      <point x="-35" y="771"/>
      <point x="-36" y="777" type="curve"/>
    </contour>
  </outline>
</glyph>
<glyph name="dammatanCurly-ar" format="1">
  <advance width="0"/>
  <unicode hex="08E8"/>
  <outline>
    <contour>
      <point x="67" y="758" type="line" smooth="yes"/>
      <point x="87" y="790"/>
      <point x="86" y="821"/>
      <point x="69" y="830" type="curve" smooth="yes"/>
      <point x="55" y="837"/>
      <point x="36" y="830"/>
      <point x="19" y="809" type="curve" smooth="yes"/>
      <point x="9" y="796"/>
      <point x="6" y="786"/>
      <point x="8" y="776" type="curve" smooth="yes"/>
      <point x="11" y="763"/>
      <point x="22" y="754"/>
      <point x="44" y="746" type="curve"/>
      <point x="21" y="722"/>
      <point x="-17" y="722"/>
      <point x="-27" y="749" type="curve"/>
      <point x="-47" y="720" type="line"/>
      <point x="-38" y="707"/>
      <point x="-22" y="700"/>
      <point x="-5" y="700" type="curve" smooth="yes"/>
      <point x="7" y="700"/>
      <point x="19" y="703"/>
      <point x="30" y="712" type="curve" smooth="yes"/>
      <point x="43" y="721"/>
      <point x="49" y="728"/>
      <point x="58" y="741" type="curve"/>
      <point x="82" y="731" type="line" smooth="yes"/>
      <point x="82" y="740"/>
      <point x="81" y="745"/>
      <point x="78" y="752" type="curve" smooth="yes"/>
    </contour>
    <contour>
      <point x="39" y="774" type="line" smooth="yes"/>
      <point x="26" y="781"/>
      <point x="24" y="790"/>
      <point x="25" y="795" type="curve" smooth="yes"/>
      <point x="26" y="802"/>
      <point x="32" y="809"/>
      <point x="40" y="811" type="curve"/>
      <point x="47" y="812"/>
      <point x="55" y="811"/>
      <point x="60" y="804" type="curve"/>
      <point x="68" y="796"/>
      <point x="64" y="781"/>
      <point x="54" y="765" type="curve"/>
    </contour>
    <contour>
      <point x="-70" y="832" type="line" smooth="yes"/>
      <point x="-89" y="799"/>
      <point x="-89" y="769"/>
      <point x="-72" y="760" type="curve" smooth="yes"/>
      <point x="-58" y="753"/>
      <point x="-39" y="760"/>
      <point x="-21" y="781" type="curve" smooth="yes"/>
      <point x="-12" y="793"/>
      <point x="-8" y="804"/>
      <point x="-11" y="814" type="curve" smooth="yes"/>
      <point x="-14" y="827"/>
      <point x="-24" y="836"/>
      <point x="-46" y="844" type="curve"/>
      <point x="-24" y="868"/>
      <point x="14" y="868"/>
      <point x="24" y="841" type="curve"/>
      <point x="44" y="870" type="line"/>
      <point x="35" y="883"/>
      <point x="19" y="890"/>
      <point x="2" y="889" type="curve" smooth="yes"/>
      <point x="-10" y="889"/>
      <point x="-22" y="886"/>
      <point x="-33" y="878" type="curve" smooth="yes"/>
      <point x="-46" y="869"/>
      <point x="-52" y="862"/>
      <point x="-61" y="849" type="curve"/>
      <point x="-84" y="858" type="line" smooth="yes"/>
      <point x="-84" y="850"/>
      <point x="-83" y="845"/>
      <point x="-81" y="838" type="curve" smooth="yes"/>
    </contour>
    <contour>
      <point x="-42" y="816" type="line" smooth="yes"/>
      <point x="-28" y="809"/>
      <point x="-27" y="800"/>
      <point x="-27" y="795" type="curve" smooth="yes"/>
      <point x="-28" y="788"/>
      <point x="-34" y="781"/>
      <point x="-43" y="779" type="curve"/>
      <point x="-50" y="778"/>
      <point x="-58" y="779"/>
      <point x="-63" y="786" type="curve"/>
      <point x="-70" y="794"/>
      <point x="-67" y="809"/>
      <point x="-57" y="824" type="curve"/>
    </contour>
  </outline>
</glyph>
<glyph name="uni08E8" format="1">
  <advance width="0"/>
  <unicode hex="08E8"/>
  <outline>
    <contour>
      <point x="67" y="758" type="line" smooth="yes"/>
      <point x="87" y="790"/>
      <point x="86" y="821"/>
      <point x="69" y="830" type="curve" smooth="yes"/>
      <point x="55" y="837"/>
      <point x="36" y="830"/>
      <point x="19" y="809" type="curve" smooth="yes"/>
      <point x="9" y="796"/>
      <point x="6" y="786"/>
      <point x="8" y="776" type="curve" smooth="yes"/>
      <point x="11" y="763"/>
      <point x="22" y="754"/>
      <point x="44" y="746" type="curve"/>
      <point x="21" y="722"/>
      <point x="-17" y="722"/>
      <point x="-27" y="749" type="curve"/>
      <point x="-47" y="720" type="line"/>
      <point x="-38" y="707"/>
      <point x="-22" y="700"/>
      <point x="-5" y="700" type="curve" smooth="yes"/>
      <point x="7" y="700"/>
      <point x="19" y="703"/>
      <point x="30" y="712" type="curve" smooth="yes"/>
      <point x="43" y="721"/>
      <point x="49" y="728"/>
      <point x="58" y="741" type="curve"/>
      <point x="82" y="731" type="line" smooth="yes"/>
      <point x="82" y="740"/>
      <point x="81" y="745"/>
      <point x="78" y="752" type="curve" smooth="yes"/>
    </contour>
    <contour>
      <point x="39" y="773" type="line" smooth="yes"/>
      <point x="25" y="781"/>
      <point x="23" y="790"/>
      <point x="24" y="795" type="curve" smooth="yes"/>
      <point x="25" y="803"/>
      <point x="31" y="810"/>
      <point x="40" y="812" type="curve"/>
      <point x="47" y="813"/>
      <point x="56" y="812"/>
      <point x="61" y="805" type="curve"/>
      <point x="69" y="796"/>
      <point x="65" y="781"/>
      <point x="54" y="764" type="curve"/>
    </contour>
    <contour>
      <point x="-70" y="832" type="line" smooth="yes"/>
      <point x="-89" y="799"/>
      <point x="-89" y="769"/>
      <point x="-72" y="760" type="curve" smooth="yes"/>
      <point x="-58" y="753"/>
      <point x="-39" y="760"/>
      <point x="-21" y="781" type="curve" smooth="yes"/>
      <point x="-12" y="793"/>
      <point x="-8" y="804"/>
      <point x="-11" y="814" type="curve" smooth="yes"/>
      <point x="-14" y="827"/>
      <point x="-24" y="836"/>
      <point x="-46" y="844" type="curve"/>
      <point x="-24" y="868"/>
      <point x="14" y="868"/>
      <point x="24" y="841" type="curve"/>
      <point x="44" y="870" type="line"/>
      <point x="35" y="883"/>
      <point x="19" y="890"/>
      <point x="2" y="889" type="curve" smooth="yes"/>
      <point x="-10" y="889"/>
      <point x="-22" y="886"/>
      <point x="-33" y="878" type="curve" smooth="yes"/>
      <point x="-46" y="869"/>
      <point x="-52" y="862"/>
      <point x="-61" y="849" type="curve"/>
      <point x="-84" y="858" type="line" smooth="yes"/>
      <point x="-84" y="850"/>
      <point x="-83" y="845"/>
      <point x="-81" y="838" type="curve" smooth="yes"/>
    </contour>
    <contour>
      <point x="-42" y="817" type="line" smooth="yes"/>
      <point x="-27" y="809"/>
      <point x="-26" y="800"/>
      <point x="-26" y="795" type="curve" smooth="yes"/>
      <point x="-27" y="787"/>
      <point x="-33" y="780"/>
      <point x="-43" y="778" type="curve"/>
      <point x="-50" y="777"/>
      <point x="-59" y="778"/>
      <point x="-64" y="785" type="curve"/>
      <point x="-71" y="794"/>
      <point x="-68" y="809"/>
      <point x="-58" y="825" type="curve"/>
    </contour>
  </outline>
</glyph>
<glyph name="opendammatan-ar" format="1">
  <advance width="0"/>
  <unicode hex="08F1"/>
  <outline>
    <contour>
      <point x="-4" y="765" type="line" smooth="yes"/>
      <point x="14" y="795"/>
      <point x="13" y="823"/>
      <point x="-2" y="831" type="curve" smooth="yes"/>
      <point x="-16" y="838"/>
      <point x="-33" y="831"/>
      <point x="-49" y="811" type="curve" smooth="yes"/>
      <point x="-58" y="800"/>
      <point x="-61" y="791"/>
      <point x="-59" y="782" type="curve" smooth="yes"/>
      <point x="-56" y="770"/>
      <point x="-46" y="761"/>
      <point x="-26" y="754" type="curve"/>
      <point x="-47" y="732"/>
      <point x="-66" y="723"/>
      <point x="-104" y="724" type="curve" smooth="yes"/>
      <point x="-104" y="723"/>
      <point x="-109" y="716"/>
      <point x="-111" y="706" type="curve"/>
      <point x="-84" y="702"/>
      <point x="-59" y="708"/>
      <point x="-38" y="723" type="curve" smooth="yes"/>
      <point x="-27" y="732"/>
      <point x="-21" y="737"/>
      <point x="-13" y="750" type="curve"/>
      <point x="9" y="741" type="line" smooth="yes"/>
      <point x="9" y="748"/>
      <point x="8" y="753"/>
      <point x="6" y="759" type="curve" smooth="yes"/>
    </contour>
    <contour>
      <point x="-30" y="779" type="line" smooth="yes"/>
      <point x="-43" y="786"/>
      <point x="-44" y="794"/>
      <point x="-43" y="799" type="curve" smooth="yes"/>
      <point x="-43" y="805"/>
      <point x="-37" y="811"/>
      <point x="-29" y="813" type="curve"/>
      <point x="-23" y="815"/>
      <point x="-16" y="813"/>
      <point x="-11" y="807" type="curve"/>
      <point x="-4" y="800"/>
      <point x="-7" y="786"/>
      <point x="-16" y="772" type="curve"/>
    </contour>
    <contour>
      <point x="91" y="765" type="line" smooth="yes"/>
      <point x="109" y="795"/>
      <point x="109" y="823"/>
      <point x="93" y="831" type="curve" smooth="yes"/>
      <point x="80" y="838"/>
      <point x="63" y="831"/>
      <point x="47" y="811" type="curve" smooth="yes"/>
      <point x="38" y="800"/>
      <point x="35" y="791"/>
      <point x="37" y="782" type="curve" smooth="yes"/>
      <point x="40" y="770"/>
      <point x="50" y="761"/>
      <point x="70" y="754" type="curve"/>
      <point x="49" y="732"/>
      <point x="30" y="723"/>
      <point x="-8" y="724" type="curve" smooth="yes"/>
      <point x="-9" y="723"/>
      <point x="-13" y="716"/>
      <point x="-16" y="706" type="curve"/>
      <point x="12" y="702"/>
      <point x="37" y="708"/>
      <point x="57" y="723" type="curve" smooth="yes"/>
      <point x="69" y="732"/>
      <point x="75" y="737"/>
      <point x="83" y="750" type="curve"/>
      <point x="105" y="741" type="line" smooth="yes"/>
      <point x="105" y="748"/>
      <point x="104" y="753"/>
      <point x="102" y="759" type="curve" smooth="yes"/>
    </contour>
    <contour>
      <point x="66" y="779" type="line" smooth="yes"/>
      <point x="53" y="786"/>
      <point x="52" y="794"/>
      <point x="52" y="799" type="curve" smooth="yes"/>
      <point x="53" y="805"/>
      <point x="59" y="811"/>
      <point x="66" y="813" type="curve"/>
      <point x="73" y="815"/>
      <point x="80" y="813"/>
      <point x="85" y="807" type="curve"/>
      <point x="92" y="800"/>
      <point x="89" y="786"/>
      <point x="80" y="772" type="curve"/>
    </contour>
  </outline>
</glyph>
<glyph name="uni08F1" format="1">
  <advance width="0"/>
  <unicode hex="08F1"/>
  <outline>
    <contour>
      <point x="-4" y="765" type="line" smooth="yes"/>
      <point x="14" y="795"/>
      <point x="13" y="823"/>
      <point x="-2" y="831" type="curve" smooth="yes"/>
      <point x="-16" y="838"/>
      <point x="-33" y="831"/>
      <point x="-49" y="811" type="curve" smooth="yes"/>
      <point x="-58" y="800"/>
      <point x="-61" y="791"/>
      <point x="-59" y="782" type="curve" smooth="yes"/>
      <point x="-56" y="770"/>
      <point x="-46" y="761"/>
      <point x="-26" y="754" type="curve"/>
      <point x="-47" y="732"/>
      <point x="-66" y="723"/>
      <point x="-104" y="724" type="curve" smooth="yes"/>
      <point x="-104" y="723"/>
      <point x="-109" y="716"/>
      <point x="-111" y="706" type="curve"/>
      <point x="-84" y="702"/>
      <point x="-59" y="708"/>
      <point x="-38" y="723" type="curve" smooth="yes"/>
      <point x="-27" y="732"/>
      <point x="-21" y="737"/>
      <point x="-13" y="750" type="curve"/>
      <point x="9" y="741" type="line" smooth="yes"/>
      <point x="9" y="748"/>
      <point x="8" y="753"/>
      <point x="6" y="759" type="curve" smooth="yes"/>
    </contour>
    <contour>
      <point x="-30" y="778" type="line" smooth="yes"/>
      <point x="-44" y="786"/>
      <point x="-45" y="794"/>
      <point x="-44" y="799" type="curve" smooth="yes"/>
      <point x="-44" y="806"/>
      <point x="-38" y="812"/>
      <point x="-29" y="814" type="curve"/>
      <point x="-23" y="816"/>
      <point x="-16" y="814"/>
      <point x="-10" y="808" type="curve"/>
      <point x="-3" y="800"/>
      <point x="-6" y="786"/>
      <point x="-16" y="771" type="curve"/>
    </contour>
    <contour>
      <point x="91" y="765" type="line" smooth="yes"/>
      <point x="109" y="795"/>
      <point x="109" y="823"/>
      <point x="93" y="831" type="curve" smooth="yes"/>
      <point x="80" y="838"/>
      <point x="63" y="831"/>
      <point x="47" y="811" type="curve" smooth="yes"/>
      <point x="38" y="800"/>
      <point x="35" y="791"/>
      <point x="37" y="782" type="curve" smooth="yes"/>
      <point x="40" y="770"/>
      <point x="50" y="761"/>
      <point x="70" y="754" type="curve"/>
      <point x="49" y="732"/>
      <point x="30" y="723"/>
      <point x="-8" y="724" type="curve" smooth="yes"/>
      <point x="-9" y="723"/>
      <point x="-13" y="716"/>
      <point x="-16" y="706" type="curve"/>
      <point x="12" y="702"/>
      <point x="37" y="708"/>
      <point x="57" y="723" type="curve" smooth="yes"/>
      <point x="69" y="732"/>
      <point x="75" y="737"/>
      <point x="83" y="750" type="curve"/>
      <point x="105" y="741" type="line" smooth="yes"/>
      <point x="105" y="748"/>
      <point x="104" y="753"/>
      <point x="102" y="759" type="curve" smooth="yes"/>
    </contour>
    <contour>
      <point x="66" y="778" type="line" smooth="yes"/>
      <point x="52" y="786"/>
      <point x="51" y="794"/>
      <point x="51" y="799" type="curve" smooth="yes"/>
      <point x="52" y="806"/>
      <point x="58" y="812"/>
      <point x="66" y="814" type="curve"/>
      <point x="73" y="816"/>
      <point x="80" y="814"/>
      <point x="86" y="808" type="curve"/>
      <point x="93" y="800"/>
      <point x="90" y="786"/>
      <point x="80" y="771" type="curve"/>
    </contour>
    <contour>
      <point x="4" y="838" type="move" name="top"/>
    </contour>
    <contour>
      <point x="4" y="680" type="move" name="_top"/>
    </contour>
  </outline>
</glyph>
<glyph name="highwaw-ar" format="1">
  <advance width="0"/>
  <unicode hex="08F3"/>
  <outline>
    <contour>
      <point x="41" y="831"/>
      <point x="40" y="837"/>
      <point x="37" y="842" type="curve" smooth="yes"/>
      <point x="34" y="848"/>
      <point x="28" y="854"/>
      <point x="19" y="854" type="curve" smooth="yes"/>
      <point x="9" y="854"/>
      <point x="0" y="847"/>
      <point x="0" y="834" type="curve" smooth="yes"/>
      <point x="0" y="823"/>
      <point x="11" y="818"/>
      <point x="22" y="818" type="curve" smooth="yes"/>
      <point x="30" y="819"/>
      <point x="35" y="821"/>
      <point x="42" y="827" type="curve" smooth="yes"/>
    </contour>
    <contour>
      <point x="57" y="799"/>
      <point x="58" y="782"/>
      <point x="54" y="764" type="curve" smooth="yes"/>
      <point x="51" y="752"/>
      <point x="48" y="740"/>
      <point x="42" y="727" type="curve" smooth="yes"/>
      <point x="38" y="719"/>
      <point x="30" y="712"/>
      <point x="24" y="707" type="curve" smooth="yes"/>
      <point x="15" y="702"/>
      <point x="8" y="700"/>
      <point x="-1" y="700" type="curve" smooth="yes"/>
      <point x="-10" y="700"/>
      <point x="-18" y="701"/>
      <point x="-25" y="701" type="curve" smooth="yes"/>
      <point x="-30" y="701"/>
      <point x="-37" y="700"/>
      <point x="-44" y="699" type="curve"/>
      <point x="-47" y="703" type="line"/>
      <point x="-41" y="707"/>
      <point x="-22" y="716"/>
      <point x="-4" y="727" type="curve" smooth="yes"/>
      <point x="17" y="738"/>
      <point x="38" y="756"/>
      <point x="44" y="781" type="curve" smooth="yes"/>
      <point x="45" y="789"/>
      <point x="46" y="800"/>
      <point x="45" y="809" type="curve"/>
      <point x="44" y="804"/>
      <point x="38" y="794"/>
      <point x="20" y="794" type="curve" smooth="yes"/>
      <point x="9" y="794"/>
      <point x="2" y="796"/>
      <point x="-3" y="801" type="curve" smooth="yes"/>
      <point x="-9" y="808"/>
      <point x="-11" y="818"/>
      <point x="-10" y="832" type="curve" smooth="yes"/>
      <point x="-10" y="841"/>
      <point x="-7" y="854"/>
      <point x="-1" y="864" type="curve" smooth="yes"/>
      <point x="5" y="873"/>
      <point x="13" y="880"/>
      <point x="22" y="880" type="curve" smooth="yes"/>
      <point x="39" y="880"/>
      <point x="46" y="860"/>
      <point x="49" y="852" type="curve"/>
      <point x="51" y="846"/>
      <point x="55" y="834"/>
      <point x="57" y="811" type="curve" smooth="yes"/>
    </contour>
  </outline>
</glyph>
<glyph name="fathaRing-ar" format="1">
  <advance width="0"/>
  <unicode hex="08F4"/>
  <outline>
    <contour>
      <point x="24" y="793"/>
      <point x="-26" y="773"/>
      <point x="-82" y="745" type="curve"/>
      <point x="-85" y="739"/>
      <point x="-87" y="729"/>
      <point x="-89" y="718" type="curve"/>
      <point x="-89" y="718"/>
      <point x="18" y="765"/>
      <point x="79" y="785" type="curve"/>
      <point x="83" y="793"/>
      <point x="86" y="803"/>
      <point x="87" y="813" type="curve"/>
    </contour>
    <contour>
      <point x="-40" y="827"/>
      <point x="-57" y="787"/>
      <point x="-57" y="751" type="curve" smooth="yes"/>
      <point x="-57" y="737"/>
      <point x="-47" y="700"/>
      <point x="-3" y="700" type="curve" smooth="yes"/>
      <point x="20" y="700"/>
      <point x="37" y="708"/>
      <point x="45" y="722" type="curve" smooth="yes"/>
      <point x="53" y="735"/>
      <point x="54" y="749"/>
      <point x="54" y="758" type="curve" smooth="yes"/>
      <point x="54" y="791"/>
      <point x="34" y="827"/>
      <point x="-7" y="827" type="curve"/>
    </contour>
    <contour>
      <point x="25" y="802"/>
      <point x="39" y="782"/>
      <point x="39" y="766" type="curve" smooth="yes"/>
      <point x="39" y="739"/>
      <point x="-3" y="739"/>
      <point x="-9" y="739" type="curve" smooth="yes"/>
      <point x="-32" y="739"/>
      <point x="-38" y="753"/>
      <point x="-38" y="770" type="curve" smooth="yes"/>
      <point x="-38" y="782"/>
      <point x="-30" y="802"/>
      <point x="-8" y="802" type="curve"/>
    </contour>
  </outline>
</glyph>
<glyph name="whiteRoundedCornersSquare" format="1">
  <advance width="383"/>
  <unicode hex="25A2"/>
  <outline>
    <contour>
      <point x="343" y="303" type="line"/>
      <point x="40" y="303" type="line"/>
      <point x="40" y="0" type="line"/>
      <point x="343" y="0" type="line"/>
    </contour>
  </outline>
</glyph>
<glyph name="whiteInBlackSquare" format="1">
  <advance width="343"/>
  <unicode hex="25A3"/>
  <outline>
    <contour>
      <point x="293" y="243" type="line"/>
      <point x="50" y="243" type="line"/>
      <point x="50" y="0" type="line"/>
      <point x="293" y="0" type="line"/>
    </contour>
    <contour>
      <point x="74" y="219" type="line"/>
      <point x="269" y="219" type="line"/>
      <point x="269" y="24" type="line"/>
      <point x="74" y="24" type="line"/>
    </contour>
    <contour>
      <point x="232" y="182" type="line"/>
      <point x="111" y="182" type="line"/>
      <point x="111" y="61" type="line"/>
      <point x="232" y="61" type="line"/>
    </contour>
  </outline>
</glyph>
<glyph name="fisheye" format="1">
  <advance width="342"/>
  <unicode hex="25C9"/>
  <outline>
    <contour>
      <point x="302" y="235"/>
      <point x="235" y="303"/>
      <point x="151" y="303" type="curve" smooth="yes"/>
      <point x="67" y="303"/>
      <point x="0" y="235"/>
      <point x="0" y="151" type="curve" smooth="yes"/>
      <point x="0" y="67"/>
      <point x="67" y="0"/>
      <point x="151" y="0" type="curve" smooth="yes"/>
      <point x="235" y="0"/>
      <point x="302" y="67"/>
      <point x="302" y="151" type="curve" smooth="yes"/>
    </contour>
    <contour>
      <point x="30" y="218"/>
      <point x="84" y="273"/>
      <point x="151" y="273" type="curve" smooth="yes"/>
      <point x="219" y="273"/>
      <point x="272" y="218"/>
      <point x="272" y="151" type="curve" smooth="yes"/>
      <point x="272" y="85"/>
      <point x="219" y="30"/>
      <point x="151" y="30" type="curve" smooth="yes"/>
      <point x="84" y="30"/>
      <point x="30" y="85"/>
      <point x="30" y="151" type="curve" smooth="yes"/>
    </contour>
    <contour>
      <point x="227" y="193"/>
      <point x="194" y="227"/>
      <point x="151" y="227" type="curve" smooth="yes"/>
      <point x="110" y="227"/>
      <point x="75" y="193"/>
      <point x="75" y="151" type="curve" smooth="yes"/>
      <point x="75" y="110"/>
      <point x="110" y="76"/>
      <point x="151" y="76" type="curve" smooth="yes"/>
      <point x="194" y="76"/>
      <point x="227" y="110"/>
      <point x="227" y="151" type="curve" smooth="yes"/>
    </contour>
  </outline>
</glyph>
<glyph name="largeCircle" format="1">
  <advance width="382"/>
  <unicode hex="25EF"/>
  <outline>
    <contour>
      <point x="342" y="235"/>
      <point x="275" y="303"/>
      <point x="191" y="303" type="curve" smooth="yes"/>
      <point x="107" y="303"/>
      <point x="40" y="235"/>
      <point x="40" y="151" type="curve" smooth="yes"/>
      <point x="40" y="67"/>
      <point x="107" y="0"/>
      <point x="191" y="0" type="curve" smooth="yes"/>
      <point x="275" y="0"/>
      <point x="342" y="67"/>
      <point x="342" y="151" type="curve" smooth="yes"/>
    </contour>
  </outline>
</glyph>
<glyph name="uniFB93" format="1">
  <advance width="848"/>
  <unicode hex="FB93"/>
  <outline>
    <contour>
      <point x="544" y="497"/>
      <point x="604" y="530"/>
      <point x="686" y="567" type="curve"/>
      <point x="693" y="600" type="line"/>
      <point x="651" y="580"/>
      <point x="558" y="536"/>
      <point x="490" y="491" type="curve"/>
      <point x="484" y="456" type="line"/>
    </contour>
    <component base="uniFB8F"/>
    <contour>
      <point x="574" y="610" type="move" name="top"/>
    </contour>
  </outline>
</glyph>
<glyph name="gaf-ar.init" format="1">
  <advance width="244"/>
  <unicode hex="FB94"/>
  <outline>
    <contour>
      <point x="72" y="495"/>
      <point x="133" y="528"/>
      <point x="214" y="565" type="curve"/>
      <point x="221" y="598" type="line"/>
      <point x="180" y="578"/>
      <point x="87" y="534"/>
      <point x="19" y="489" type="curve"/>
      <point x="13" y="454" type="line"/>
    </contour>
    <component base="kaf-ar.init"/>
  </outline>
</glyph>
<glyph name="gaf-ar.medi" format="1">
  <advance width="371"/>
  <unicode hex="FB95"/>
  <outline>
    <contour>
      <point x="86" y="500"/>
      <point x="146" y="533"/>
      <point x="228" y="570" type="curve"/>
      <point x="235" y="603" type="line"/>
      <point x="193" y="583"/>
      <point x="101" y="539"/>
      <point x="33" y="494" type="curve"/>
      <point x="26" y="459" type="line"/>
    </contour>
    <component base="kaf-ar.medi"/>
  </outline>
</glyph>
<glyph name="dotbelow-ar" format="1">
  <advance width="0"/>
  <unicode hex="FBB3"/>
  <outline>
    <contour>
      <point x="-14" y="-197"/>
      <point x="-35" y="-219"/>
      <point x="-51" y="-234" type="curve"/>
      <point x="-31" y="-250"/>
      <point x="-14" y="-267"/>
      <point x="4" y="-288" type="curve"/>
      <point x="27" y="-267"/>
      <point x="42" y="-252"/>
      <point x="56" y="-236" type="curve"/>
      <point x="44" y="-218"/>
      <point x="21" y="-196"/>
      <point x="0" y="-181" type="curve"/>
    </contour>
    <contour>
      <point x="3" y="-161" type="move" name="_bottom"/>
    </contour>
    <contour>
      <point x="3" y="-288" type="move" name="bottom"/>
    </contour>
  </outline>
</glyph>
<glyph name="twodotshorizontalabove-ar" format="1">
  <advance width="0"/>
  <unicode hex="FBB4"/>
  <outline>
    <contour>
      <point x="29" y="787"/>
      <point x="13" y="771"/>
      <point x="-1" y="757" type="curve"/>
      <point x="-14" y="772"/>
      <point x="-31" y="790"/>
      <point x="-47" y="800" type="curve"/>
      <point x="-61" y="785"/>
      <point x="-83" y="763"/>
      <point x="-99" y="747" type="curve"/>
      <point x="-79" y="731"/>
      <point x="-62" y="715"/>
      <point x="-43" y="693" type="curve"/>
      <point x="-24" y="710"/>
      <point x="-10" y="724"/>
      <point x="1" y="737" type="curve"/>
      <point x="16" y="724"/>
      <point x="30" y="710"/>
      <point x="44" y="693" type="curve"/>
      <point x="68" y="715"/>
      <point x="82" y="729"/>
      <point x="96" y="745" type="curve"/>
      <point x="84" y="763"/>
      <point x="61" y="786"/>
      <point x="40" y="800" type="curve"/>
    </contour>
    <contour>
      <point x="-2" y="800" type="move" name="top"/>
    </contour>
    <contour>
      <point x="-2" y="673" type="move" name="_top"/>
    </contour>
  </outline>
</glyph>
<glyph name="threedotsupabove-ar" format="1">
  <advance width="0"/>
  <unicode hex="FBB6"/>
  <outline>
    <contour>
      <point x="29" y="794"/>
      <point x="13" y="778"/>
      <point x="-1" y="764" type="curve"/>
      <point x="-14" y="779"/>
      <point x="-31" y="796"/>
      <point x="-47" y="807" type="curve"/>
      <point x="-61" y="792"/>
      <point x="-83" y="770"/>
      <point x="-99" y="754" type="curve"/>
      <point x="-79" y="738"/>
      <point x="-62" y="722"/>
      <point x="-43" y="700" type="curve"/>
      <point x="-24" y="717"/>
      <point x="-10" y="731"/>
      <point x="1" y="744" type="curve"/>
      <point x="16" y="731"/>
      <point x="30" y="717"/>
      <point x="44" y="700" type="curve"/>
      <point x="68" y="722"/>
      <point x="82" y="736"/>
      <point x="96" y="752" type="curve"/>
      <point x="84" y="770"/>
      <point x="61" y="793"/>
      <point x="40" y="807" type="curve"/>
    </contour>
    <contour>
      <point x="24" y="815"/>
      <point x="38" y="830"/>
      <point x="52" y="846" type="curve"/>
      <point x="40" y="864"/>
      <point x="17" y="887"/>
      <point x="-3" y="901" type="curve"/>
      <point x="-17" y="885"/>
      <point x="-39" y="863"/>
      <point x="-55" y="848" type="curve"/>
      <point x="-35" y="832"/>
      <point x="-18" y="815"/>
      <point x="0" y="794" type="curve"/>
    </contour>
    <contour>
      <point x="-2" y="901" type="move" name="top"/>
    </contour>
    <contour>
      <point x="-2" y="680" type="move" name="_top"/>
    </contour>
  </outline>
</glyph>
<glyph name="threedotsupbelow-ar" format="1">
  <advance width="0"/>
  <unicode hex="FBB7"/>
  <outline>
    <contour>
      <point x="29" y="-231"/>
      <point x="13" y="-247"/>
      <point x="-1" y="-261" type="curve"/>
      <point x="-14" y="-246"/>
      <point x="-31" y="-229"/>
      <point x="-47" y="-218" type="curve"/>
      <point x="-61" y="-233"/>
      <point x="-83" y="-255"/>
      <point x="-99" y="-271" type="curve"/>
      <point x="-79" y="-287"/>
      <point x="-62" y="-303"/>
      <point x="-43" y="-325" type="curve"/>
      <point x="-24" y="-308"/>
      <point x="-10" y="-294"/>
      <point x="1" y="-281" type="curve"/>
      <point x="16" y="-294"/>
      <point x="30" y="-308"/>
      <point x="44" y="-325" type="curve"/>
      <point x="68" y="-303"/>
      <point x="82" y="-289"/>
      <point x="96" y="-273" type="curve"/>
      <point x="84" y="-255"/>
      <point x="61" y="-232"/>
      <point x="40" y="-218" type="curve"/>
    </contour>
    <contour>
      <point x="24" y="-210"/>
      <point x="38" y="-195"/>
      <point x="52" y="-179" type="curve"/>
      <point x="40" y="-161"/>
      <point x="17" y="-138"/>
      <point x="-3" y="-124" type="curve"/>
      <point x="-17" y="-140"/>
      <point x="-39" y="-162"/>
      <point x="-55" y="-177" type="curve"/>
      <point x="-35" y="-193"/>
      <point x="-18" y="-210"/>
      <point x="0" y="-231" type="curve"/>
    </contour>
    <contour>
      <point x="-2" y="-104" type="move" name="_bottom"/>
    </contour>
    <contour>
      <point x="-2" y="-325" type="move" name="bottom"/>
    </contour>
  </outline>
</glyph>
<glyph name="uniFBB7" format="1">
  <advance width="0"/>
  <unicode hex="FBB7"/>
  <outline>
    <contour>
      <point x="29" y="-231"/>
      <point x="13" y="-247"/>
      <point x="-1" y="-261" type="curve"/>
      <point x="-14" y="-246"/>
      <point x="-31" y="-229"/>
      <point x="-47" y="-218" type="curve"/>
      <point x="-61" y="-233"/>
      <point x="-83" y="-255"/>
      <point x="-99" y="-271" type="curve"/>
      <point x="-79" y="-287"/>
      <point x="-62" y="-303"/>
      <point x="-43" y="-325" type="curve"/>
      <point x="-24" y="-308"/>
      <point x="-10" y="-294"/>
      <point x="1" y="-281" type="curve"/>
      <point x="16" y="-294"/>
      <point x="30" y="-308"/>
      <point x="44" y="-325" type="curve"/>
      <point x="68" y="-303"/>
      <point x="82" y="-289"/>
      <point x="96" y="-273" type="curve"/>
      <point x="84" y="-255"/>
      <point x="61" y="-232"/>
      <point x="40" y="-218" type="curve"/>
    </contour>
    <contour>
      <point x="24" y="-197"/>
      <point x="38" y="-182"/>
      <point x="52" y="-166" type="curve"/>
      <point x="40" y="-148"/>
      <point x="17" y="-125"/>
      <point x="-3" y="-111" type="curve"/>
      <point x="-17" y="-127"/>
      <point x="-39" y="-149"/>
      <point x="-55" y="-164" type="curve"/>
      <point x="-35" y="-180"/>
      <point x="-18" y="-197"/>
      <point x="0" y="-218" type="curve"/>
    </contour>
    <contour>
      <point x="-2" y="-84" type="move" name="_bottom"/>
    </contour>
    <contour>
      <point x="-2" y="-325" type="move" name="bottom"/>
    </contour>
  </outline>
</glyph>
<glyph name="threedotsdownbelow-ar" format="1">
  <advance width="0"/>
  <unicode hex="FBB9"/>
  <outline>
    <contour>
      <point x="81" y="-46"/>
      <point x="58" y="-23"/>
      <point x="37" y="-9" type="curve"/>
      <point x="26" y="-20"/>
      <point x="10" y="-38"/>
      <point x="-4" y="-51" type="curve"/>
      <point x="-17" y="-35"/>
      <point x="-34" y="-19"/>
      <point x="-50" y="-9" type="curve"/>
      <point x="-64" y="-24"/>
      <point x="-86" y="-46"/>
      <point x="-102" y="-61" type="curve"/>
      <point x="-82" y="-77"/>
      <point x="-65" y="-94"/>
      <point x="-46" y="-116" type="curve"/>
      <point x="-27" y="-97"/>
      <point x="-13" y="-85"/>
      <point x="-2" y="-72" type="curve"/>
      <point x="13" y="-85"/>
      <point x="27" y="-99"/>
      <point x="41" y="-116" type="curve"/>
      <point x="65" y="-94"/>
      <point x="79" y="-79"/>
      <point x="93" y="-64" type="curve"/>
    </contour>
    <contour>
      <point x="42" y="-140"/>
      <point x="19" y="-117"/>
      <point x="-2" y="-103" type="curve"/>
      <point x="-15" y="-118"/>
      <point x="-37" y="-140"/>
      <point x="-53" y="-156" type="curve"/>
      <point x="-34" y="-172"/>
      <point x="-17" y="-188"/>
      <point x="2" y="-210" type="curve"/>
      <point x="26" y="-188"/>
      <point x="40" y="-174"/>
      <point x="54" y="-158" type="curve"/>
    </contour>
    <contour>
      <point x="-5" y="11" type="move" name="_bottom"/>
    </contour>
    <contour>
      <point x="-5" y="-210" type="move" name="bottom"/>
    </contour>
  </outline>
</glyph>
<glyph name="uniFBBC" format="1">
  <advance width="0"/>
  <unicode hex="FBBC"/>
  <outline>
    <contour>
      <point x="-93" y="-73"/>
      <point x="-74" y="-106"/>
      <point x="-80" y="-161" type="curve"/>
      <point x="-64" y="-160" type="line"/>
      <point x="-57" y="-114"/>
      <point x="-65" y="-68"/>
      <point x="-75" y="-46" type="curve"/>
      <point x="-87" y="-51"/>
      <point x="-95" y="-54"/>
      <point x="-100" y="-60" type="curve"/>
    </contour>
    <contour>
      <point x="-40" y="-73"/>
      <point x="-20" y="-106"/>
      <point x="-26" y="-161" type="curve"/>
      <point x="-10" y="-160" type="line"/>
      <point x="-4" y="-114"/>
      <point x="-12" y="-68"/>
      <point x="-21" y="-46" type="curve"/>
      <point x="-33" y="-51"/>
      <point x="-41" y="-54"/>
      <point x="-46" y="-60" type="curve"/>
    </contour>
  </outline>
</glyph>
<glyph name="uniFBBF" format="1">
  <advance width="0"/>
  <unicode hex="FBBF"/>
  <outline>
    <contour>
      <point x="-33" y="224"/>
      <point x="-50" y="184"/>
      <point x="-50" y="148" type="curve" smooth="yes"/>
      <point x="-50" y="134"/>
      <point x="-40" y="97"/>
      <point x="4" y="97" type="curve" smooth="yes"/>
      <point x="27" y="97"/>
      <point x="44" y="105"/>
      <point x="52" y="119" type="curve" smooth="yes"/>
      <point x="60" y="132"/>
      <point x="61" y="146"/>
      <point x="61" y="155" type="curve" smooth="yes"/>
      <point x="61" y="188"/>
      <point x="41" y="224"/>
      <point x="0" y="224" type="curve"/>
    </contour>
    <contour>
      <point x="32" y="199"/>
      <point x="46" y="179"/>
      <point x="46" y="163" type="curve" smooth="yes"/>
      <point x="46" y="136"/>
      <point x="4" y="136"/>
      <point x="-2" y="136" type="curve" smooth="yes"/>
      <point x="-25" y="136"/>
      <point x="-31" y="150"/>
      <point x="-31" y="167" type="curve" smooth="yes"/>
      <point x="-31" y="179"/>
      <point x="-23" y="199"/>
      <point x="-1" y="199" type="curve"/>
    </contour>
  </outline>
</glyph>
<glyph name="hah_meem-ar" format="1">
  <advance width="687"/>
  <unicode hex="FC18"/>
  <outline>
    <contour>
      <point x="519" y="269"/>
      <point x="465" y="296"/>
      <point x="421" y="318" type="curve" smooth="yes"/>
      <point x="390" y="334"/>
      <point x="358" y="350"/>
      <point x="322" y="350" type="curve" smooth="yes"/>
      <point x="305" y="350"/>
      <point x="288" y="346"/>
      <point x="273" y="338" type="curve" smooth="yes"/>
      <point x="251" y="326"/>
      <point x="230" y="304"/>
      <point x="213" y="273" type="curve"/>
      <point x="224" y="256" type="line"/>
      <point x="245" y="278"/>
      <point x="264" y="286"/>
      <point x="295" y="286" type="curve" smooth="yes"/>
      <point x="326" y="286"/>
      <point x="374" y="260"/>
      <point x="413" y="239" type="curve"/>
      <point x="368" y="239"/>
      <point x="312" y="233"/>
      <point x="267" y="216" type="curve" smooth="yes"/>
      <point x="225" y="199"/>
      <point x="205" y="182"/>
      <point x="185" y="159" type="curve"/>
      <point x="175" y="140"/>
      <point x="165" y="120"/>
      <point x="162" y="100" type="curve"/>
      <point x="124" y="85"/>
      <point x="102" y="75"/>
      <point x="84" y="39" type="curve" smooth="yes"/>
      <point x="71" y="14"/>
      <point x="66" y="-5"/>
      <point x="73" y="-60" type="curve" smooth="yes"/>
      <point x="82" y="-132"/>
      <point x="87" y="-167"/>
      <point x="92" y="-196" type="curve" smooth="yes"/>
      <point x="104" y="-279"/>
      <point x="109" y="-312"/>
      <point x="112" y="-338" type="curve"/>
      <point x="138" y="-330" type="line"/>
      <point x="136" y="-257"/>
      <point x="132" y="-212"/>
      <point x="126" y="-157" type="curve" smooth="yes"/>
      <point x="124" y="-132"/>
      <point x="112" y="-35"/>
      <point x="105" y="10" type="curve" smooth="yes"/>
      <point x="113" y="28"/>
      <point x="164" y="39"/>
      <point x="221" y="39" type="curve" smooth="yes"/>
      <point x="257" y="39"/>
      <point x="283" y="33"/>
      <point x="307" y="26" type="curve"/>
      <point x="328" y="55"/>
      <point x="337" y="77"/>
      <point x="343" y="95" type="curve"/>
      <point x="298" y="134"/>
      <point x="255" y="146"/>
      <point x="234" y="150" type="curve"/>
      <point x="257" y="165"/>
      <point x="320" y="198"/>
      <point x="431" y="198" type="curve" smooth="yes"/>
      <point x="480" y="198"/>
      <point x="529" y="194"/>
      <point x="576" y="181" type="curve"/>
      <point x="601" y="205"/>
      <point x="613" y="224"/>
      <point x="627" y="252" type="curve"/>
    </contour>
  </outline>
</glyph>
<glyph name="seen_meem-ar" format="1">
  <advance width="825"/>
  <unicode hex="FC1F"/>
  <outline>
    <contour>
      <point x="713" y="248"/>
      <point x="698" y="228"/>
      <point x="687" y="208" type="curve"/>
      <point x="731" y="147" type="line"/>
      <point x="714" y="103"/>
      <point x="699" y="94"/>
      <point x="665" y="94" type="curve" smooth="yes"/>
      <point x="642" y="94"/>
      <point x="620" y="98"/>
      <point x="604" y="116" type="curve" smooth="yes"/>
      <point x="591" y="130"/>
      <point x="588" y="149"/>
      <point x="588" y="166" type="curve" smooth="yes"/>
      <point x="588" y="176"/>
      <point x="589" y="183"/>
      <point x="590" y="190" type="curve"/>
      <point x="568" y="178" type="line"/>
      <point x="567" y="169"/>
      <point x="566" y="160"/>
      <point x="563" y="149" type="curve" smooth="yes"/>
      <point x="555" y="122"/>
      <point x="540" y="94"/>
      <point x="483" y="94" type="curve" smooth="yes"/>
      <point x="423" y="94"/>
      <point x="397" y="123"/>
      <point x="375" y="145" type="curve" smooth="yes"/>
      <point x="356" y="165"/>
      <point x="338" y="184"/>
      <point x="308" y="184" type="curve" smooth="yes"/>
      <point x="280" y="184"/>
      <point x="237" y="167"/>
      <point x="203" y="118" type="curve" smooth="yes"/>
      <point x="178" y="82"/>
      <point x="169" y="51"/>
      <point x="161" y="5" type="curve"/>
      <point x="130" y="-10"/>
      <point x="115" y="-16"/>
      <point x="95" y="-45" type="curve"/>
      <point x="77" y="-69"/>
      <point x="65" y="-105"/>
      <point x="72" y="-155" type="curve"/>
      <point x="103" y="-342"/>
      <point x="108" y="-408"/>
      <point x="111" y="-432" type="curve"/>
      <point x="137" y="-424" type="line"/>
      <point x="136" y="-346"/>
      <point x="128" y="-276"/>
      <point x="117" y="-175" type="curve" smooth="yes"/>
      <point x="112" y="-130"/>
      <point x="111" y="-125"/>
      <point x="105" y="-91" type="curve"/>
      <point x="130" y="-67"/>
      <point x="148" y="-56"/>
      <point x="200" y="-56" type="curve" smooth="yes"/>
      <point x="242" y="-56"/>
      <point x="280" y="-63"/>
      <point x="307" y="-69" type="curve"/>
      <point x="324" y="-45"/>
      <point x="335" y="-23"/>
      <point x="343" y="1" type="curve"/>
      <point x="331" y="12"/>
      <point x="279" y="58"/>
      <point x="209" y="68" type="curve"/>
      <point x="230" y="97"/>
      <point x="257" y="118"/>
      <point x="292" y="118" type="curve" smooth="yes"/>
      <point x="330" y="118"/>
      <point x="347" y="98"/>
      <point x="369" y="68" type="curve" smooth="yes"/>
      <point x="390" y="39"/>
      <point x="417" y="0"/>
      <point x="479" y="0" type="curve" smooth="yes"/>
      <point x="540" y="0"/>
      <point x="565" y="39"/>
      <point x="574" y="75" type="curve"/>
      <point x="575" y="48"/>
      <point x="600" y="8"/>
      <point x="658" y="8" type="curve" smooth="yes"/>
      <point x="694" y="8"/>
      <point x="719" y="24"/>
      <point x="736" y="47" type="curve" smooth="yes"/>
      <point x="762" y="83"/>
      <point x="765" y="131"/>
      <point x="765" y="148" type="curve" smooth="yes"/>
      <point x="765" y="200"/>
      <point x="739" y="250"/>
      <point x="727" y="262" type="curve"/>
    </contour>
  </outline>
</glyph>
<glyph name="sad_meem-ar" format="1">
  <advance width="841"/>
  <unicode hex="FC21"/>
  <outline>
    <contour>
      <point x="781" y="253"/>
      <point x="775" y="282"/>
      <point x="745" y="305" type="curve" smooth="yes"/>
      <point x="726" y="320"/>
      <point x="697" y="332"/>
      <point x="672" y="332" type="curve" smooth="yes"/>
      <point x="613" y="332"/>
      <point x="541" y="267"/>
      <point x="505" y="229" type="curve" smooth="yes"/>
      <point x="456" y="177"/>
      <point x="423" y="122"/>
      <point x="414" y="110" type="curve"/>
      <point x="386" y="113"/>
      <point x="369" y="127"/>
      <point x="352" y="154" type="curve" smooth="yes"/>
      <point x="342" y="169"/>
      <point x="335" y="188"/>
      <point x="300" y="188" type="curve" smooth="yes"/>
      <point x="278" y="188"/>
      <point x="261" y="180"/>
      <point x="242" y="167" type="curve" smooth="yes"/>
      <point x="226" y="156"/>
      <point x="212" y="144"/>
      <point x="196" y="122" type="curve" smooth="yes"/>
      <point x="177" y="96"/>
      <point x="167" y="71"/>
      <point x="163" y="48" type="curve" smooth="yes"/>
      <point x="161" y="35"/>
      <point x="160" y="22"/>
      <point x="162" y="8" type="curve"/>
      <point x="126" y="-8"/>
      <point x="109" y="-25"/>
      <point x="95" y="-45" type="curve"/>
      <point x="77" y="-69"/>
      <point x="65" y="-105"/>
      <point x="72" y="-155" type="curve"/>
      <point x="103" y="-342"/>
      <point x="108" y="-408"/>
      <point x="111" y="-432" type="curve"/>
      <point x="137" y="-424" type="line"/>
      <point x="136" y="-346"/>
      <point x="128" y="-276"/>
      <point x="117" y="-175" type="curve" smooth="yes"/>
      <point x="112" y="-130"/>
      <point x="111" y="-125"/>
      <point x="105" y="-91" type="curve"/>
      <point x="130" y="-67"/>
      <point x="148" y="-56"/>
      <point x="200" y="-56" type="curve" smooth="yes"/>
      <point x="242" y="-56"/>
      <point x="280" y="-63"/>
      <point x="307" y="-69" type="curve"/>
      <point x="324" y="-45"/>
      <point x="335" y="-23"/>
      <point x="343" y="1" type="curve"/>
      <point x="331" y="12"/>
      <point x="277" y="58"/>
      <point x="208" y="68" type="curve"/>
      <point x="221" y="92"/>
      <point x="249" y="118"/>
      <point x="294" y="118" type="curve" smooth="yes"/>
      <point x="338" y="118"/>
      <point x="352" y="90"/>
      <point x="372" y="63" type="curve" smooth="yes"/>
      <point x="391" y="38"/>
      <point x="415" y="15"/>
      <point x="472" y="15" type="curve" smooth="yes"/>
      <point x="557" y="15"/>
      <point x="635" y="42"/>
      <point x="688" y="83" type="curve" smooth="yes"/>
      <point x="714" y="103"/>
      <point x="740" y="131"/>
      <point x="755" y="156" type="curve" smooth="yes"/>
      <point x="772" y="184"/>
      <point x="781" y="216"/>
      <point x="781" y="236" type="curve" smooth="yes"/>
    </contour>
    <contour>
      <point x="712" y="156"/>
      <point x="693" y="140"/>
      <point x="661" y="127" type="curve" smooth="yes"/>
      <point x="637" y="117"/>
      <point x="605" y="109"/>
      <point x="565" y="109" type="curve" smooth="yes"/>
      <point x="450" y="109" type="line"/>
      <point x="469" y="136"/>
      <point x="498" y="172"/>
      <point x="519" y="194" type="curve" smooth="yes"/>
      <point x="559" y="236"/>
      <point x="597" y="257"/>
      <point x="633" y="257" type="curve" smooth="yes"/>
      <point x="671" y="257"/>
      <point x="697" y="233"/>
      <point x="709" y="219" type="curve" smooth="yes"/>
      <point x="719" y="207"/>
      <point x="723" y="197"/>
      <point x="729" y="176" type="curve"/>
    </contour>
  </outline>
</glyph>
<glyph name="ain_meem-ar" format="1">
  <advance width="600"/>
  <unicode hex="FC2A"/>
  <outline>
    <contour>
      <point x="504" y="330"/>
      <point x="448" y="315"/>
      <point x="378" y="293" type="curve"/>
      <point x="329" y="319"/>
      <point x="297" y="349"/>
      <point x="291" y="403" type="curve"/>
      <point x="323" y="426"/>
      <point x="352" y="438"/>
      <point x="397" y="438" type="curve" smooth="yes"/>
      <point x="440" y="438"/>
      <point x="472" y="427"/>
      <point x="484" y="422" type="curve"/>
      <point x="503" y="440" type="line"/>
      <point x="491" y="457"/>
      <point x="442" y="503"/>
      <point x="391" y="503" type="curve" smooth="yes"/>
      <point x="360" y="503"/>
      <point x="323" y="486"/>
      <point x="293" y="459" type="curve" smooth="yes"/>
      <point x="260" y="429"/>
      <point x="240" y="390"/>
      <point x="240" y="347" type="curve" smooth="yes"/>
      <point x="240" y="308"/>
      <point x="256" y="286"/>
      <point x="292" y="257" type="curve"/>
      <point x="240" y="226"/>
      <point x="201" y="187"/>
      <point x="184" y="157" type="curve" smooth="yes"/>
      <point x="174" y="138"/>
      <point x="165" y="119"/>
      <point x="162" y="100" type="curve"/>
      <point x="124" y="85"/>
      <point x="102" y="75"/>
      <point x="84" y="39" type="curve" smooth="yes"/>
      <point x="71" y="14"/>
      <point x="66" y="-5"/>
      <point x="73" y="-60" type="curve"/>
      <point x="82" y="-132"/>
      <point x="87" y="-167"/>
      <point x="92" y="-196" type="curve" smooth="yes"/>
      <point x="104" y="-279"/>
      <point x="109" y="-312"/>
      <point x="112" y="-338" type="curve"/>
      <point x="138" y="-330" type="line"/>
      <point x="136" y="-257"/>
      <point x="132" y="-212"/>
      <point x="126" y="-157" type="curve" smooth="yes"/>
      <point x="124" y="-132"/>
      <point x="112" y="-35"/>
      <point x="105" y="10" type="curve"/>
      <point x="113" y="28"/>
      <point x="164" y="39"/>
      <point x="221" y="39" type="curve" smooth="yes"/>
      <point x="257" y="39"/>
      <point x="283" y="33"/>
      <point x="307" y="26" type="curve"/>
      <point x="328" y="55"/>
      <point x="337" y="77"/>
      <point x="343" y="95" type="curve"/>
      <point x="303" y="130"/>
      <point x="265" y="143"/>
      <point x="242" y="148" type="curve"/>
      <point x="292" y="219"/>
      <point x="446" y="256"/>
      <point x="515" y="274" type="curve"/>
      <point x="526" y="295"/>
      <point x="531" y="309"/>
      <point x="540" y="335" type="curve"/>
    </contour>
  </outline>
</glyph>
<glyph name="kaf_lam-ar" format="1">
  <advance width="734"/>
  <unicode hex="FC3B"/>
  <outline>
    <contour>
      <point x="685" y="192"/>
      <point x="657" y="254"/>
      <point x="624" y="297" type="curve" smooth="yes"/>
      <point x="603" y="324"/>
      <point x="571" y="353"/>
      <point x="535" y="378" type="curve"/>
      <point x="612" y="421"/>
      <point x="688" y="457"/>
      <point x="737" y="480" type="curve"/>
      <point x="745" y="510"/>
      <point x="750" y="537"/>
      <point x="754" y="568" type="curve"/>
      <point x="683" y="534"/>
      <point x="542" y="468"/>
      <point x="460" y="400" type="curve"/>
      <point x="443" y="567" type="line"/>
      <point x="424" y="550"/>
      <point x="405" y="530"/>
      <point x="382" y="496" type="curve"/>
      <point x="388" y="454"/>
      <point x="442" y="54"/>
      <point x="451" y="-27" type="curve" smooth="yes"/>
      <point x="456" y="-72"/>
      <point x="459" y="-113"/>
      <point x="416" y="-142" type="curve" smooth="yes"/>
      <point x="391" y="-160"/>
      <point x="351" y="-170"/>
      <point x="288" y="-170" type="curve" smooth="yes"/>
      <point x="256" y="-170"/>
      <point x="220" y="-164"/>
      <point x="195" y="-156" type="curve" smooth="yes"/>
      <point x="151" y="-142"/>
      <point x="129" y="-118"/>
      <point x="119" y="-89" type="curve" smooth="yes"/>
      <point x="107" y="-54"/>
      <point x="113" y="-14"/>
      <point x="119" y="17" type="curve"/>
      <point x="100" y="24" type="line"/>
      <point x="82" y="-21"/>
      <point x="74" y="-51"/>
      <point x="71" y="-89" type="curve" smooth="yes"/>
      <point x="69" y="-117"/>
      <point x="69" y="-144"/>
      <point x="83" y="-177" type="curve" smooth="yes"/>
      <point x="97" y="-210"/>
      <point x="121" y="-237"/>
      <point x="155" y="-255" type="curve" smooth="yes"/>
      <point x="190" y="-274"/>
      <point x="236" y="-283"/>
      <point x="284" y="-283" type="curve" smooth="yes"/>
      <point x="354" y="-283"/>
      <point x="408" y="-263"/>
      <point x="444" y="-222" type="curve"/>
      <point x="466" y="-199"/>
      <point x="482" y="-168"/>
      <point x="490" y="-131" type="curve" smooth="yes"/>
      <point x="497" y="-100"/>
      <point x="500" y="-65"/>
      <point x="497" y="-18" type="curve" smooth="yes"/>
      <point x="495" y="11"/>
      <point x="497" y="-12"/>
      <point x="493" y="42" type="curve"/>
      <point x="506" y="20"/>
      <point x="531" y="0"/>
      <point x="574" y="0" type="curve"/>
      <point x="644" y="0"/>
      <point x="685" y="51"/>
      <point x="685" y="128" type="curve" smooth="yes"/>
    </contour>
    <contour>
      <point x="631" y="121"/>
      <point x="599" y="98"/>
      <point x="563" y="98" type="curve" smooth="yes"/>
      <point x="536" y="98"/>
      <point x="518" y="104"/>
      <point x="506" y="117" type="curve" smooth="yes"/>
      <point x="494" y="130"/>
      <point x="489" y="150"/>
      <point x="485" y="178" type="curve" smooth="yes"/>
      <point x="481" y="207"/>
      <point x="474" y="270"/>
      <point x="467" y="337" type="curve"/>
      <point x="538" y="300"/>
      <point x="639" y="188"/>
      <point x="639" y="139" type="curve"/>
    </contour>
  </outline>
</glyph>
<glyph name="lam_meem-ar" format="1">
  <advance width="403"/>
  <unicode hex="FC42"/>
  <outline>
    <contour>
      <point x="331" y="105"/>
      <point x="305" y="133"/>
      <point x="259" y="148" type="curve"/>
      <point x="272" y="162"/>
      <point x="273" y="185"/>
      <point x="270" y="213" type="curve" smooth="yes"/>
      <point x="266" y="241"/>
      <point x="258" y="273"/>
      <point x="252" y="306" type="curve" smooth="yes"/>
      <point x="244" y="346"/>
      <point x="235" y="388"/>
      <point x="234" y="396" type="curve" smooth="yes"/>
      <point x="227" y="445"/>
      <point x="240" y="461"/>
      <point x="267" y="483" type="curve"/>
      <point x="236" y="512"/>
      <point x="217" y="549"/>
      <point x="207" y="568" type="curve"/>
      <point x="157" y="500" type="line"/>
      <point x="172" y="456"/>
      <point x="187" y="395"/>
      <point x="197" y="346" type="curve" smooth="yes"/>
      <point x="207" y="297"/>
      <point x="213" y="260"/>
      <point x="225" y="186" type="curve"/>
      <point x="219" y="170"/>
      <point x="210" y="160"/>
      <point x="186" y="158" type="curve"/>
      <point x="180" y="148"/>
      <point x="172" y="126"/>
      <point x="162" y="99" type="curve" smooth="yes"/>
      <point x="130" y="84"/>
      <point x="115" y="78"/>
      <point x="95" y="49" type="curve" smooth="yes"/>
      <point x="77" y="25"/>
      <point x="65" y="-11"/>
      <point x="72" y="-61" type="curve"/>
      <point x="103" y="-248"/>
      <point x="108" y="-314"/>
      <point x="111" y="-338" type="curve"/>
      <point x="137" y="-330" type="line"/>
      <point x="136" y="-252"/>
      <point x="128" y="-182"/>
      <point x="117" y="-81" type="curve" smooth="yes"/>
      <point x="112" y="-36"/>
      <point x="111" y="-31"/>
      <point x="105" y="3" type="curve"/>
      <point x="120" y="17"/>
      <point x="148" y="36"/>
      <point x="200" y="38" type="curve" smooth="yes"/>
      <point x="247" y="40"/>
      <point x="286" y="30"/>
      <point x="307" y="25" type="curve"/>
      <point x="328" y="54"/>
      <point x="339" y="83"/>
      <point x="343" y="95" type="curve"/>
    </contour>
  </outline>
</glyph>
<glyph name="uniFC42" format="1">
  <advance width="403"/>
  <unicode hex="FC42"/>
  <outline>
    <contour>
      <point x="343" y="107"/>
      <point x="305" y="133"/>
      <point x="259" y="148" type="curve"/>
      <point x="272" y="162"/>
      <point x="273" y="185"/>
      <point x="270" y="213" type="curve" smooth="yes"/>
      <point x="266" y="241"/>
      <point x="258" y="273"/>
      <point x="252" y="306" type="curve" smooth="yes"/>
      <point x="244" y="346"/>
      <point x="235" y="388"/>
      <point x="234" y="396" type="curve" smooth="yes"/>
      <point x="227" y="445"/>
      <point x="240" y="461"/>
      <point x="267" y="483" type="curve"/>
      <point x="236" y="512"/>
      <point x="217" y="549"/>
      <point x="207" y="568" type="curve"/>
      <point x="157" y="500" type="line"/>
      <point x="172" y="456"/>
      <point x="187" y="395"/>
      <point x="197" y="346" type="curve" smooth="yes"/>
      <point x="207" y="297"/>
      <point x="213" y="260"/>
      <point x="225" y="186" type="curve"/>
      <point x="219" y="170"/>
      <point x="210" y="160"/>
      <point x="186" y="158" type="curve"/>
      <point x="180" y="148"/>
      <point x="172" y="131"/>
      <point x="158" y="101" type="curve"/>
      <point x="124" y="88"/>
      <point x="106" y="78"/>
      <point x="84" y="46" type="curve" smooth="yes"/>
      <point x="64" y="19"/>
      <point x="51" y="-20"/>
      <point x="59" y="-75" type="curve"/>
      <point x="93" y="-281"/>
      <point x="98" y="-353"/>
      <point x="101" y="-380" type="curve"/>
      <point x="130" y="-371" type="line"/>
      <point x="129" y="-285"/>
      <point x="120" y="-208"/>
      <point x="108" y="-97" type="curve" smooth="yes"/>
      <point x="103" y="-48"/>
      <point x="101" y="-42"/>
      <point x="95" y="-5" type="curve"/>
      <point x="111" y="11"/>
      <point x="142" y="32"/>
      <point x="199" y="34" type="curve" smooth="yes"/>
      <point x="251" y="36"/>
      <point x="294" y="25"/>
      <point x="317" y="19" type="curve"/>
      <point x="340" y="51"/>
      <point x="352" y="83"/>
      <point x="357" y="96" type="curve"/>
    </contour>
    <contour>
      <point x="202" y="0" type="move" name="caret_1"/>
    </contour>
    <contour>
      <point x="246" y="-32" type="move" name="bottom_1"/>
    </contour>
    <contour>
      <point x="128" y="568" type="move" name="top_1"/>
    </contour>
    <contour>
      <point x="62" y="188" type="move" name="top_2"/>
    </contour>
    <contour>
      <point x="117" y="-405" type="move" name="bottom_2"/>
    </contour>
  </outline>
</glyph>
<glyph name="meem_alefMaksura-ar" format="1">
  <advance width="793"/>
  <unicode hex="FC49"/>
  <outline>
    <contour>
      <point x="714" y="236"/>
      <point x="695" y="246"/>
      <point x="668" y="254" type="curve" smooth="yes"/>
      <point x="644" y="261"/>
      <point x="629" y="262"/>
      <point x="610" y="269" type="curve"/>
      <point x="601" y="258"/>
      <point x="592" y="233"/>
      <point x="588" y="219" type="curve" smooth="yes"/>
      <point x="579" y="187"/>
      <point x="581" y="175"/>
      <point x="594" y="155" type="curve"/>
      <point x="561" y="139"/>
      <point x="527" y="118"/>
      <point x="500" y="96" type="curve" smooth="yes"/>
      <point x="473" y="74"/>
      <point x="452" y="50"/>
      <point x="448" y="30" type="curve"/>
      <point x="445" y="18"/>
      <point x="442" y="2"/>
      <point x="440" y="-12" type="curve"/>
      <point x="517" y="-23"/>
      <point x="543" y="-49"/>
      <point x="543" y="-67" type="curve" smooth="yes"/>
      <point x="543" y="-94"/>
      <point x="491" y="-120"/>
      <point x="464" y="-132" type="curve" smooth="yes"/>
      <point x="432" y="-146"/>
      <point x="373" y="-168"/>
      <point x="290" y="-168" type="curve" smooth="yes"/>
      <point x="212" y="-168"/>
      <point x="160" y="-149"/>
      <point x="132" y="-114" type="curve" smooth="yes"/>
      <point x="105" y="-81"/>
      <point x="109" y="-39"/>
      <point x="119" y="19" type="curve"/>
      <point x="100" y="26" type="line"/>
      <point x="84" y="-15"/>
      <point x="74" y="-53"/>
      <point x="71" y="-87" type="curve" smooth="yes"/>
      <point x="68" y="-121"/>
      <point x="72" y="-149"/>
      <point x="83" y="-175" type="curve" smooth="yes"/>
      <point x="98" y="-211"/>
      <point x="124" y="-237"/>
      <point x="160" y="-255" type="curve" smooth="yes"/>
      <point x="196" y="-273"/>
      <point x="237" y="-281"/>
      <point x="282" y="-281" type="curve" smooth="yes"/>
      <point x="343" y="-281"/>
      <point x="404" y="-266"/>
      <point x="457" y="-238" type="curve" smooth="yes"/>
      <point x="489" y="-221"/>
      <point x="527" y="-193"/>
      <point x="550" y="-166" type="curve" smooth="yes"/>
      <point x="573" y="-139"/>
      <point x="590" y="-104"/>
      <point x="590" y="-67" type="curve" smooth="yes"/>
      <point x="590" y="-2"/>
      <point x="536" y="22"/>
      <point x="498" y="32" type="curve"/>
      <point x="521" y="55"/>
      <point x="597" y="121"/>
      <point x="677" y="124" type="curve"/>
      <point x="709" y="125"/>
      <point x="720" y="131"/>
      <point x="729" y="168" type="curve" smooth="yes"/>
      <point x="735" y="193"/>
      <point x="735" y="211"/>
      <point x="724" y="224" type="curve" smooth="yes"/>
    </contour>
  </outline>
</glyph>
<glyph name="uniFC53" format="1">
  <advance width="892"/>
  <unicode hex="FC53"/>
  <outline>
    <contour>
      <point x="832" y="226"/>
      <point x="820" y="260"/>
      <point x="795" y="292" type="curve" smooth="yes"/>
      <point x="774" y="318"/>
      <point x="746" y="341"/>
      <point x="707" y="365" type="curve" smooth="yes"/>
      <point x="688" y="376"/>
      <point x="667" y="387"/>
      <point x="647" y="397" type="curve" smooth="yes"/>
      <point x="630" y="406"/>
      <point x="614" y="414"/>
      <point x="601" y="422" type="curve"/>
      <point x="595" y="412"/>
      <point x="588" y="401"/>
      <point x="582" y="391" type="curve"/>
      <point x="570" y="368"/>
      <point x="581" y="356"/>
      <point x="601" y="345" type="curve"/>
      <point x="619" y="336" type="line"/>
      <point x="587" y="334"/>
      <point x="551" y="310"/>
      <point x="533" y="282" type="curve" smooth="yes"/>
      <point x="518" y="259"/>
      <point x="509" y="230"/>
      <point x="511" y="203" type="curve" smooth="yes"/>
      <point x="513" y="162"/>
      <point x="535" y="137"/>
      <point x="576" y="122" type="curve"/>
      <point x="559" y="106"/>
      <point x="539" y="94"/>
      <point x="515" y="83" type="curve" smooth="yes"/>
      <point x="497" y="74"/>
      <point x="475" y="66"/>
      <point x="450" y="57" type="curve" smooth="yes"/>
      <point x="432" y="51"/>
      <point x="433" y="34"/>
      <point x="425" y="-3" type="curve"/>
      <point x="442" y="-6"/>
      <point x="469" y="-14"/>
      <point x="486" y="-20" type="curve" smooth="yes"/>
      <point x="524" y="-34"/>
      <point x="542" y="-53"/>
      <point x="542" y="-70" type="curve" smooth="yes"/>
      <point x="542" y="-95"/>
      <point x="503" y="-116"/>
      <point x="463" y="-133" type="curve"/>
      <point x="431" y="-148"/>
      <point x="368" y="-169"/>
      <point x="288" y="-169" type="curve" smooth="yes"/>
      <point x="223" y="-169"/>
      <point x="163" y="-155"/>
      <point x="131" y="-115" type="curve" smooth="yes"/>
      <point x="104" y="-82"/>
      <point x="108" y="-40"/>
      <point x="118" y="18" type="curve"/>
      <point x="99" y="25" type="line"/>
      <point x="90" y="2"/>
      <point x="75" y="-37"/>
      <point x="70" y="-81" type="curve" smooth="yes"/>
      <point x="67" y="-112"/>
      <point x="69" y="-146"/>
      <point x="82" y="-177" type="curve"/>
      <point x="95" y="-208"/>
      <point x="119" y="-236"/>
      <point x="158" y="-256" type="curve" smooth="yes"/>
      <point x="191" y="-273"/>
      <point x="234" y="-282"/>
      <point x="280" y="-282" type="curve" smooth="yes"/>
      <point x="340" y="-282"/>
      <point x="403" y="-267"/>
      <point x="457" y="-239" type="curve" smooth="yes"/>
      <point x="509" y="-212"/>
      <point x="545" y="-175"/>
      <point x="566" y="-137" type="curve" smooth="yes"/>
      <point x="582" y="-108"/>
      <point x="588" y="-81"/>
      <point x="588" y="-61" type="curve" smooth="yes"/>
      <point x="588" y="-11"/>
      <point x="552" y="14"/>
      <point x="516" y="28" type="curve"/>
      <point x="570" y="52"/>
      <point x="605" y="78"/>
      <point x="633" y="111" type="curve"/>
      <point x="658" y="104"/>
      <point x="697" y="89"/>
      <point x="751" y="58" type="curve"/>
      <point x="766" y="74"/>
      <point x="782" y="90"/>
      <point x="797" y="106" type="curve" smooth="yes"/>
      <point x="819" y="130"/>
      <point x="830" y="158"/>
      <point x="832" y="188" type="curve"/>
    </contour>
    <contour>
      <point x="670" y="235"/>
      <point x="664" y="220"/>
      <point x="648" y="208" type="curve"/>
      <point x="636" y="200"/>
      <point x="623" y="196"/>
      <point x="612" y="196" type="curve" smooth="yes"/>
      <point x="605" y="196"/>
      <point x="596" y="197"/>
      <point x="577" y="209" type="curve"/>
      <point x="562" y="217"/>
      <point x="547" y="231"/>
      <point x="547" y="242" type="curve" smooth="yes"/>
      <point x="547" y="251"/>
      <point x="559" y="267"/>
      <point x="578" y="284" type="curve" smooth="yes"/>
      <point x="599" y="302"/>
      <point x="612" y="308"/>
      <point x="625" y="308" type="curve" smooth="yes"/>
      <point x="639" y="308"/>
      <point x="647" y="300"/>
      <point x="657" y="282" type="curve" smooth="yes"/>
      <point x="665" y="268"/>
      <point x="670" y="252"/>
      <point x="670" y="244" type="curve" smooth="yes"/>
    </contour>
    <contour>
      <point x="748" y="158"/>
      <point x="715" y="165"/>
      <point x="677" y="175" type="curve"/>
      <point x="687" y="185"/>
      <point x="695" y="199"/>
      <point x="700" y="215" type="curve" smooth="yes"/>
      <point x="709" y="244"/>
      <point x="707" y="278"/>
      <point x="690" y="305" type="curve"/>
      <point x="728" y="282"/>
      <point x="752" y="257"/>
      <point x="768" y="226" type="curve" smooth="yes"/>
      <point x="779" y="204"/>
      <point x="784" y="178"/>
      <point x="786" y="148" type="curve"/>
    </contour>
    <contour>
      <point x="446" y="0" type="move" name="caret_1"/>
    </contour>
    <contour>
      <point x="712" y="-20" type="move" name="bottom_1"/>
    </contour>
    <contour>
      <point x="601" y="452" type="move" name="top_1"/>
    </contour>
    <contour>
      <point x="263" y="36" type="move" name="top_2"/>
    </contour>
    <contour>
      <point x="290" y="-312" type="move" name="bottom_2"/>
    </contour>
  </outline>
</glyph>
<glyph name="kaf_lam-ar.fina" format="1">
  <advance width="857"/>
  <unicode hex="FC81"/>
  <outline>
    <contour>
      <point x="821" y="98" type="line" smooth="yes"/>
      <point x="757" y="98"/>
      <point x="724" y="140"/>
      <point x="700" y="176" type="curve"/>
      <point x="677" y="208"/>
      <point x="643" y="252"/>
      <point x="611" y="286" type="curve" smooth="yes"/>
      <point x="593" y="306"/>
      <point x="554" y="346"/>
      <point x="530" y="370" type="curve"/>
      <point x="606" y="413"/>
      <point x="697" y="461"/>
      <point x="745" y="480" type="curve"/>
      <point x="753" y="511"/>
      <point x="758" y="538"/>
      <point x="762" y="568" type="curve"/>
      <point x="687" y="533"/>
      <point x="549" y="466"/>
      <point x="461" y="395" type="curve"/>
      <point x="443" y="567" type="line"/>
      <point x="424" y="550"/>
      <point x="405" y="530"/>
      <point x="382" y="496" type="curve"/>
      <point x="388" y="454"/>
      <point x="442" y="54"/>
      <point x="451" y="-27" type="curve" smooth="yes"/>
      <point x="456" y="-72"/>
      <point x="459" y="-113"/>
      <point x="416" y="-142" type="curve" smooth="yes"/>
      <point x="391" y="-160"/>
      <point x="351" y="-170"/>
      <point x="288" y="-170" type="curve" smooth="yes"/>
      <point x="256" y="-170"/>
      <point x="220" y="-164"/>
      <point x="195" y="-156" type="curve" smooth="yes"/>
      <point x="151" y="-142"/>
      <point x="129" y="-118"/>
      <point x="119" y="-89" type="curve" smooth="yes"/>
      <point x="107" y="-54"/>
      <point x="113" y="-14"/>
      <point x="119" y="17" type="curve"/>
      <point x="100" y="24" type="line"/>
      <point x="82" y="-21"/>
      <point x="74" y="-51"/>
      <point x="71" y="-89" type="curve" smooth="yes"/>
      <point x="69" y="-117"/>
      <point x="69" y="-144"/>
      <point x="83" y="-177" type="curve" smooth="yes"/>
      <point x="97" y="-210"/>
      <point x="121" y="-237"/>
      <point x="155" y="-255" type="curve" smooth="yes"/>
      <point x="190" y="-274"/>
      <point x="236" y="-283"/>
      <point x="284" y="-283" type="curve" smooth="yes"/>
      <point x="354" y="-283"/>
      <point x="408" y="-263"/>
      <point x="444" y="-222" type="curve"/>
      <point x="466" y="-199"/>
      <point x="482" y="-168"/>
      <point x="490" y="-131" type="curve" smooth="yes"/>
      <point x="497" y="-100"/>
      <point x="500" y="-65"/>
      <point x="497" y="-18" type="curve" smooth="yes"/>
      <point x="495" y="11"/>
      <point x="497" y="-12"/>
      <point x="493" y="42" type="curve"/>
      <point x="501" y="17"/>
      <point x="527" y="0"/>
      <point x="575" y="0" type="curve"/>
      <point x="635" y="0"/>
      <point x="674" y="37"/>
      <point x="674" y="113" type="curve"/>
      <point x="703" y="37"/>
      <point x="743" y="0"/>
      <point x="822" y="0" type="curve" smooth="yes"/>
      <point x="857" y="0" type="line"/>
      <point x="857" y="98" type="line"/>
    </contour>
    <contour>
      <point x="625" y="117"/>
      <point x="595" y="98"/>
      <point x="560" y="98" type="curve" smooth="yes"/>
      <point x="531" y="98"/>
      <point x="514" y="106"/>
      <point x="503" y="121" type="curve" smooth="yes"/>
      <point x="493" y="134"/>
      <point x="488" y="154"/>
      <point x="485" y="178" type="curve" smooth="yes"/>
      <point x="481" y="209"/>
      <point x="473" y="279"/>
      <point x="465" y="351" type="curve"/>
      <point x="494" y="324"/>
      <point x="537" y="280"/>
      <point x="559" y="252" type="curve" smooth="yes"/>
      <point x="576" y="231"/>
      <point x="611" y="179"/>
      <point x="637" y="140" type="curve"/>
    </contour>
  </outline>
</glyph>
<glyph name="sad_meem-ar.init" format="1">
  <advance width="786"/>
  <unicode hex="FCB3"/>
  <outline>
    <contour>
      <point x="726" y="356"/>
      <point x="720" y="385"/>
      <point x="690" y="408" type="curve" smooth="yes"/>
      <point x="671" y="423"/>
      <point x="642" y="435"/>
      <point x="617" y="435" type="curve" smooth="yes"/>
      <point x="558" y="435"/>
      <point x="486" y="370"/>
      <point x="450" y="332" type="curve" smooth="yes"/>
      <point x="401" y="280"/>
      <point x="368" y="225"/>
      <point x="359" y="213" type="curve"/>
      <point x="331" y="216"/>
      <point x="314" y="230"/>
      <point x="297" y="257" type="curve" smooth="yes"/>
      <point x="287" y="272"/>
      <point x="280" y="291"/>
      <point x="245" y="291" type="curve" smooth="yes"/>
      <point x="223" y="291"/>
      <point x="206" y="283"/>
      <point x="187" y="270" type="curve" smooth="yes"/>
      <point x="171" y="259"/>
      <point x="157" y="247"/>
      <point x="141" y="225" type="curve" smooth="yes"/>
      <point x="122" y="199"/>
      <point x="112" y="174"/>
      <point x="108" y="151" type="curve" smooth="yes"/>
      <point x="105" y="135"/>
      <point x="105" y="118"/>
      <point x="108" y="100" type="curve"/>
      <point x="91" y="94"/>
      <point x="53" y="96"/>
      <point x="9" y="98" type="curve"/>
      <point x="-20" y="98" type="line" smooth="yes"/>
      <point x="-55" y="98"/>
      <point x="-70" y="74"/>
      <point x="-70" y="48" type="curve" smooth="yes"/>
      <point x="-70" y="16"/>
      <point x="-47" y="0"/>
      <point x="-20" y="0" type="curve" smooth="yes"/>
      <point x="5" y="0" type="line" smooth="yes"/>
      <point x="71" y="0"/>
      <point x="79" y="10"/>
      <point x="126" y="10" type="curve" smooth="yes"/>
      <point x="146" y="10"/>
      <point x="184" y="8"/>
      <point x="219" y="-11" type="curve"/>
      <point x="231" y="18"/>
      <point x="236" y="52"/>
      <point x="234" y="84" type="curve"/>
      <point x="212" y="90"/>
      <point x="145" y="102"/>
      <point x="145" y="142" type="curve" smooth="yes"/>
      <point x="145" y="169"/>
      <point x="175" y="221"/>
      <point x="239" y="221" type="curve" smooth="yes"/>
      <point x="279" y="221"/>
      <point x="289" y="200"/>
      <point x="298" y="180" type="curve" smooth="yes"/>
      <point x="306" y="162"/>
      <point x="316" y="147"/>
      <point x="331" y="137" type="curve" smooth="yes"/>
      <point x="349" y="125"/>
      <point x="375" y="118"/>
      <point x="417" y="118" type="curve" smooth="yes"/>
      <point x="502" y="118"/>
      <point x="580" y="145"/>
      <point x="633" y="186" type="curve" smooth="yes"/>
      <point x="659" y="206"/>
      <point x="685" y="234"/>
      <point x="700" y="259" type="curve" smooth="yes"/>
      <point x="717" y="287"/>
      <point x="726" y="319"/>
      <point x="726" y="339" type="curve" smooth="yes"/>
    </contour>
    <contour>
      <point x="657" y="259"/>
      <point x="638" y="243"/>
      <point x="606" y="230" type="curve" smooth="yes"/>
      <point x="582" y="220"/>
      <point x="550" y="212"/>
      <point x="510" y="212" type="curve" smooth="yes"/>
      <point x="395" y="212" type="line"/>
      <point x="414" y="239"/>
      <point x="443" y="275"/>
      <point x="464" y="297" type="curve" smooth="yes"/>
      <point x="504" y="339"/>
      <point x="542" y="360"/>
      <point x="578" y="360" type="curve" smooth="yes"/>
      <point x="616" y="360"/>
      <point x="642" y="336"/>
      <point x="654" y="322" type="curve" smooth="yes"/>
      <point x="664" y="310"/>
      <point x="668" y="300"/>
      <point x="674" y="279" type="curve"/>
    </contour>
  </outline>
</glyph>
<glyph name="ain_meem-ar.init" format="1">
  <advance width="536"/>
  <unicode hex="FCBB"/>
  <outline>
    <contour>
      <point x="440" y="308"/>
      <point x="384" y="293"/>
      <point x="314" y="271" type="curve"/>
      <point x="265" y="297"/>
      <point x="233" y="327"/>
      <point x="227" y="381" type="curve"/>
      <point x="259" y="404"/>
      <point x="288" y="416"/>
      <point x="333" y="416" type="curve" smooth="yes"/>
      <point x="376" y="416"/>
      <point x="408" y="405"/>
      <point x="420" y="400" type="curve"/>
      <point x="439" y="418" type="line"/>
      <point x="427" y="435"/>
      <point x="378" y="481"/>
      <point x="327" y="481" type="curve" smooth="yes"/>
      <point x="296" y="481"/>
      <point x="259" y="464"/>
      <point x="229" y="437" type="curve" smooth="yes"/>
      <point x="196" y="407"/>
      <point x="176" y="368"/>
      <point x="176" y="325" type="curve" smooth="yes"/>
      <point x="176" y="286"/>
      <point x="192" y="264"/>
      <point x="228" y="235" type="curve"/>
      <point x="196" y="225"/>
      <point x="142" y="196"/>
      <point x="102" y="140" type="curve"/>
      <point x="87" y="121"/>
      <point x="76" y="98"/>
      <point x="43" y="98" type="curve" smooth="yes"/>
      <point x="-22" y="98" type="line" smooth="yes"/>
      <point x="-47" y="98"/>
      <point x="-70" y="81"/>
      <point x="-70" y="49" type="curve" smooth="yes"/>
      <point x="-70" y="20"/>
      <point x="-51" y="0"/>
      <point x="-22" y="0" type="curve" smooth="yes"/>
      <point x="9" y="0" type="line" smooth="yes"/>
      <point x="50" y="0"/>
      <point x="76" y="10"/>
      <point x="90" y="48" type="curve"/>
      <point x="126" y="-2"/>
      <point x="229" y="-18"/>
      <point x="244" y="-12" type="curve"/>
      <point x="261" y="0"/>
      <point x="288" y="45"/>
      <point x="287" y="83" type="curve"/>
      <point x="287" y="120"/>
      <point x="271" y="159"/>
      <point x="240" y="179" type="curve"/>
      <point x="302" y="212"/>
      <point x="372" y="231"/>
      <point x="451" y="252" type="curve"/>
      <point x="462" y="273"/>
      <point x="467" y="287"/>
      <point x="476" y="313" type="curve"/>
    </contour>
    <contour>
      <point x="186" y="71"/>
      <point x="165" y="81"/>
      <point x="129" y="102" type="curve"/>
      <point x="136" y="118"/>
      <point x="155" y="142"/>
      <point x="182" y="142" type="curve" smooth="yes"/>
      <point x="216" y="142"/>
      <point x="244" y="106"/>
      <point x="233" y="60" type="curve"/>
    </contour>
  </outline>
</glyph>
<glyph name="lam_hah-ar.init" format="1">
  <advance width="545"/>
  <unicode hex="FCCA"/>
  <outline>
    <contour>
      <point x="462" y="223" type="line"/>
      <point x="372" y="225"/>
      <point x="347" y="231"/>
      <point x="298" y="246" type="curve" smooth="yes"/>
      <point x="294" y="247"/>
      <point x="293" y="248"/>
      <point x="245" y="262" type="curve" smooth="yes"/>
      <point x="245" y="262"/>
      <point x="271" y="269"/>
      <point x="268" y="322" type="curve" smooth="yes"/>
      <point x="267" y="337"/>
      <point x="263" y="374"/>
      <point x="261" y="392" type="curve" smooth="yes"/>
      <point x="254" y="453"/>
      <point x="260" y="478"/>
      <point x="277" y="491" type="curve"/>
      <point x="253" y="517"/>
      <point x="234" y="546"/>
      <point x="225" y="567" type="curve"/>
      <point x="171" y="497" type="line"/>
      <point x="172" y="493"/>
      <point x="195" y="428"/>
      <point x="209" y="362" type="curve" smooth="yes"/>
      <point x="220" y="309"/>
      <point x="218" y="295"/>
      <point x="212" y="288" type="curve" smooth="yes"/>
      <point x="200" y="274"/>
      <point x="175" y="273"/>
      <point x="149" y="273" type="curve" smooth="yes"/>
      <point x="100" y="272"/>
      <point x="89" y="271"/>
      <point x="60" y="261" type="curve"/>
      <point x="58" y="256"/>
      <point x="51" y="234"/>
      <point x="42" y="201" type="curve"/>
      <point x="66" y="207"/>
      <point x="82" y="210"/>
      <point x="113" y="210" type="curve" smooth="yes"/>
      <point x="173" y="210"/>
      <point x="256" y="199"/>
      <point x="307" y="159" type="curve" smooth="yes"/>
      <point x="310" y="157"/>
      <point x="237" y="132"/>
      <point x="228" y="129" type="curve" smooth="yes"/>
      <point x="186" y="115"/>
      <point x="131" y="98"/>
      <point x="26" y="98" type="curve" smooth="yes"/>
      <point x="-21" y="98" type="line" smooth="yes"/>
      <point x="-48" y="98"/>
      <point x="-70" y="76"/>
      <point x="-70" y="48" type="curve" smooth="yes"/>
      <point x="-70" y="21"/>
      <point x="-49" y="0"/>
      <point x="-21" y="0" type="curve" smooth="yes"/>
      <point x="31" y="0" type="line" smooth="yes"/>
      <point x="131" y="0"/>
      <point x="194" y="34"/>
      <point x="254" y="71" type="curve" smooth="yes"/>
      <point x="309" y="105"/>
      <point x="363" y="137"/>
      <point x="443" y="139" type="curve"/>
      <point x="460" y="169"/>
      <point x="472" y="191"/>
      <point x="485" y="223" type="curve"/>
    </contour>
  </outline>
</glyph>
<glyph name="meem_meem-ar.init" format="1">
  <advance width="358"/>
  <unicode hex="FCD1"/>
  <outline>
    <contour>
      <point x="319" y="363"/>
      <point x="321" y="384"/>
      <point x="313" y="399" type="curve" smooth="yes"/>
      <point x="305" y="413"/>
      <point x="286" y="424"/>
      <point x="254" y="434" type="curve" smooth="yes"/>
      <point x="238" y="440"/>
      <point x="220" y="442"/>
      <point x="197" y="450" type="curve"/>
      <point x="189" y="440"/>
      <point x="180" y="420"/>
      <point x="175" y="400" type="curve" smooth="yes"/>
      <point x="168" y="367"/>
      <point x="169" y="362"/>
      <point x="180" y="337" type="curve" smooth="yes"/>
      <point x="180" y="337"/>
      <point x="144" y="324"/>
      <point x="117" y="300" type="curve" smooth="yes"/>
      <point x="89" y="276"/>
      <point x="61" y="241"/>
      <point x="61" y="197" type="curve" smooth="yes"/>
      <point x="61" y="167"/>
      <point x="73" y="149"/>
      <point x="95" y="122" type="curve" smooth="yes"/>
      <point x="95" y="122"/>
      <point x="93" y="98"/>
      <point x="23" y="98" type="curve" smooth="yes"/>
      <point x="-21" y="98" type="line" smooth="yes"/>
      <point x="-60" y="98"/>
      <point x="-70" y="62"/>
      <point x="-70" y="50" type="curve" smooth="yes"/>
      <point x="-70" y="22"/>
      <point x="-48" y="0"/>
      <point x="-21" y="0" type="curve" smooth="yes"/>
      <point x="4" y="0" type="line" smooth="yes"/>
      <point x="61" y="0"/>
      <point x="89" y="15"/>
      <point x="121" y="15" type="curve" smooth="yes"/>
      <point x="159" y="15"/>
      <point x="190" y="4"/>
      <point x="222" y="-13" type="curve"/>
      <point x="234" y="17"/>
      <point x="242" y="68"/>
      <point x="239" y="100" type="curve"/>
      <point x="218" y="114"/>
      <point x="195" y="128"/>
      <point x="165" y="145" type="curve" smooth="yes"/>
      <point x="125" y="168"/>
      <point x="109" y="200"/>
      <point x="109" y="210" type="curve"/>
      <point x="119" y="233"/>
      <point x="142" y="262"/>
      <point x="209" y="289" type="curve" smooth="yes"/>
      <point x="240" y="302"/>
      <point x="273" y="314"/>
      <point x="305" y="321" type="curve"/>
    </contour>
  </outline>
</glyph>
<glyph name="hah_alefMaksura-ar" format="1">
  <advance width="932"/>
  <unicode hex="FCFF"/>
  <outline>
    <contour>
      <point x="735" y="215"/>
      <point x="665" y="245"/>
      <point x="613" y="267" type="curve" smooth="yes"/>
      <point x="582" y="280"/>
      <point x="558" y="291"/>
      <point x="531" y="291" type="curve" smooth="yes"/>
      <point x="504" y="291"/>
      <point x="480" y="280"/>
      <point x="460" y="259" type="curve" smooth="yes"/>
      <point x="442" y="240"/>
      <point x="426" y="210"/>
      <point x="416" y="174" type="curve"/>
      <point x="432" y="163" type="line"/>
      <point x="442" y="177"/>
      <point x="457" y="213"/>
      <point x="494" y="216" type="curve" smooth="yes"/>
      <point x="516" y="218"/>
      <point x="549" y="212"/>
      <point x="587" y="201" type="curve" smooth="yes"/>
      <point x="612" y="194"/>
      <point x="675" y="173"/>
      <point x="675" y="173" type="curve"/>
      <point x="631" y="161"/>
      <point x="592" y="148"/>
      <point x="563" y="136" type="curve" smooth="yes"/>
      <point x="533" y="124"/>
      <point x="468" y="88"/>
      <point x="450" y="74" type="curve" smooth="yes"/>
      <point x="444" y="69"/>
      <point x="426" y="42"/>
      <point x="421" y="-2" type="curve"/>
      <point x="438" y="-5"/>
      <point x="464" y="-11"/>
      <point x="487" y="-19" type="curve" smooth="yes"/>
      <point x="524" y="-33"/>
      <point x="543" y="-50"/>
      <point x="543" y="-71" type="curve" smooth="yes"/>
      <point x="543" y="-95"/>
      <point x="495" y="-119"/>
      <point x="464" y="-132" type="curve" smooth="yes"/>
      <point x="432" y="-147"/>
      <point x="367" y="-168"/>
      <point x="292" y="-168" type="curve" smooth="yes"/>
      <point x="217" y="-168"/>
      <point x="163" y="-152"/>
      <point x="132" y="-114" type="curve" smooth="yes"/>
      <point x="105" y="-81"/>
      <point x="109" y="-39"/>
      <point x="119" y="19" type="curve"/>
      <point x="100" y="26" type="line"/>
      <point x="85" y="-11"/>
      <point x="74" y="-50"/>
      <point x="71" y="-87" type="curve" smooth="yes"/>
      <point x="68" y="-120"/>
      <point x="72" y="-149"/>
      <point x="83" y="-175" type="curve" smooth="yes"/>
      <point x="97" y="-210"/>
      <point x="123" y="-237"/>
      <point x="159" y="-255" type="curve" smooth="yes"/>
      <point x="192" y="-272"/>
      <point x="234" y="-281"/>
      <point x="283" y="-281" type="curve" smooth="yes"/>
      <point x="342" y="-281"/>
      <point x="404" y="-266"/>
      <point x="457" y="-238" type="curve" smooth="yes"/>
      <point x="508" y="-211"/>
      <point x="547" y="-175"/>
      <point x="567" y="-137" type="curve" smooth="yes"/>
      <point x="581" y="-110"/>
      <point x="589" y="-83"/>
      <point x="589" y="-59" type="curve" smooth="yes"/>
      <point x="589" y="5"/>
      <point x="526" y="28"/>
      <point x="486" y="39" type="curve"/>
      <point x="486" y="39"/>
      <point x="546" y="81"/>
      <point x="619" y="104" type="curve" smooth="yes"/>
      <point x="661" y="117"/>
      <point x="723" y="134"/>
      <point x="788" y="134" type="curve" smooth="yes"/>
      <point x="833" y="134" type="line"/>
      <point x="849" y="164"/>
      <point x="858" y="182"/>
      <point x="872" y="215" type="curve"/>
      <point x="867" y="215"/>
      <point x="863" y="215"/>
      <point x="859" y="215" type="curve" smooth="yes"/>
    </contour>
  </outline>
</glyph>
<glyph name="sad_alefMaksura-ar" format="1">
  <advance width="1094"/>
  <unicode hex="FD05"/>
  <outline>
    <contour>
      <point x="1034" y="242"/>
      <point x="1028" y="271"/>
      <point x="998" y="294" type="curve" smooth="yes"/>
      <point x="979" y="309"/>
      <point x="950" y="321"/>
      <point x="925" y="321" type="curve" smooth="yes"/>
      <point x="866" y="321"/>
      <point x="794" y="256"/>
      <point x="758" y="218" type="curve" smooth="yes"/>
      <point x="710" y="167"/>
      <point x="674" y="110"/>
      <point x="667" y="98" type="curve"/>
      <point x="626" y="99"/>
      <point x="591" y="114"/>
      <point x="558" y="165" type="curve" smooth="yes"/>
      <point x="542" y="190"/>
      <point x="532" y="205"/>
      <point x="505" y="205" type="curve" smooth="yes"/>
      <point x="475" y="205"/>
      <point x="454" y="186"/>
      <point x="431" y="154" type="curve" smooth="yes"/>
      <point x="418" y="136"/>
      <point x="397" y="103"/>
      <point x="383" y="66" type="curve" smooth="yes"/>
      <point x="369" y="29"/>
      <point x="366" y="0"/>
      <point x="374" y="-17" type="curve" smooth="yes"/>
      <point x="382" y="-34"/>
      <point x="406" y="-48"/>
      <point x="435" y="-56" type="curve" smooth="yes"/>
      <point x="461" y="-63"/>
      <point x="494" y="-67"/>
      <point x="534" y="-70" type="curve"/>
      <point x="524" y="-97"/>
      <point x="495" y="-126"/>
      <point x="447" y="-145" type="curve" smooth="yes"/>
      <point x="399" y="-164"/>
      <point x="338" y="-171"/>
      <point x="295" y="-171" type="curve" smooth="yes"/>
      <point x="233" y="-171"/>
      <point x="164" y="-156"/>
      <point x="133" y="-116" type="curve" smooth="yes"/>
      <point x="116" y="-94"/>
      <point x="112" y="-66"/>
      <point x="112" y="-36" type="curve" smooth="yes"/>
      <point x="112" y="-21"/>
      <point x="113" y="-10"/>
      <point x="119" y="17" type="curve"/>
      <point x="100" y="26" type="line"/>
      <point x="77" y="-27"/>
      <point x="68" y="-83"/>
      <point x="70" y="-119" type="curve" smooth="yes"/>
      <point x="71" y="-145"/>
      <point x="81" y="-193"/>
      <point x="117" y="-228" type="curve" smooth="yes"/>
      <point x="149" y="-259"/>
      <point x="202" y="-283"/>
      <point x="283" y="-283" type="curve" smooth="yes"/>
      <point x="369" y="-283"/>
      <point x="445" y="-256"/>
      <point x="498" y="-214" type="curve" smooth="yes"/>
      <point x="522" y="-195"/>
      <point x="550" y="-165"/>
      <point x="566" y="-136" type="curve" smooth="yes"/>
      <point x="580" y="-110"/>
      <point x="588" y="-84"/>
      <point x="588" y="-61" type="curve" smooth="yes"/>
      <point x="588" y="-27"/>
      <point x="571" y="0"/>
      <point x="530" y="5" type="curve" smooth="yes"/>
      <point x="494" y="9"/>
      <point x="483" y="10"/>
      <point x="452" y="17" type="curve" smooth="yes"/>
      <point x="438" y="20"/>
      <point x="425" y="31"/>
      <point x="428" y="53" type="curve"/>
      <point x="429" y="65"/>
      <point x="446" y="115"/>
      <point x="492" y="115" type="curve" smooth="yes"/>
      <point x="523" y="115"/>
      <point x="541" y="92"/>
      <point x="557" y="71" type="curve" smooth="yes"/>
      <point x="577" y="44"/>
      <point x="595" y="26"/>
      <point x="639" y="14" type="curve"/>
      <point x="632" y="-17" type="line"/>
      <point x="660" y="-17" type="line"/>
      <point x="668" y="9" type="line"/>
      <point x="689" y="5"/>
      <point x="698" y="4"/>
      <point x="717" y="4" type="curve" smooth="yes"/>
      <point x="814" y="4"/>
      <point x="888" y="31"/>
      <point x="941" y="72" type="curve" smooth="yes"/>
      <point x="969" y="94"/>
      <point x="992" y="119"/>
      <point x="1008" y="145" type="curve" smooth="yes"/>
      <point x="1025" y="173"/>
      <point x="1034" y="205"/>
      <point x="1034" y="225" type="curve" smooth="yes"/>
    </contour>
    <contour>
      <point x="965" y="145"/>
      <point x="946" y="129"/>
      <point x="914" y="116" type="curve" smooth="yes"/>
      <point x="890" y="106"/>
      <point x="858" y="98"/>
      <point x="818" y="98" type="curve" smooth="yes"/>
      <point x="703" y="98" type="line"/>
      <point x="722" y="125"/>
      <point x="752" y="162"/>
      <point x="772" y="183" type="curve" smooth="yes"/>
      <point x="812" y="225"/>
      <point x="850" y="246"/>
      <point x="886" y="246" type="curve" smooth="yes"/>
      <point x="924" y="246"/>
      <point x="950" y="222"/>
      <point x="962" y="208" type="curve" smooth="yes"/>
      <point x="972" y="196"/>
      <point x="976" y="186"/>
      <point x="982" y="165" type="curve"/>
    </contour>
  </outline>
</glyph>
<glyph name="sad_reh-ar" format="1">
  <advance width="777"/>
  <unicode hex="FD0F"/>
  <outline>
    <contour>
      <point x="717" y="243"/>
      <point x="711" y="272"/>
      <point x="681" y="295" type="curve" smooth="yes"/>
      <point x="662" y="310"/>
      <point x="633" y="322"/>
      <point x="608" y="322" type="curve" smooth="yes"/>
      <point x="549" y="322"/>
      <point x="477" y="257"/>
      <point x="441" y="219" type="curve" smooth="yes"/>
      <point x="393" y="168"/>
      <point x="356" y="109"/>
      <point x="350" y="98" type="curve"/>
      <point x="327" y="101"/>
      <point x="301" y="119"/>
      <point x="293" y="146" type="curve"/>
      <point x="237" y="125"/>
      <point x="172" y="110"/>
      <point x="126" y="100" type="curve"/>
      <point x="125" y="91"/>
      <point x="122" y="66"/>
      <point x="114" y="27" type="curve"/>
      <point x="122" y="28"/>
      <point x="133" y="30"/>
      <point x="140" y="32" type="curve"/>
      <point x="142" y="21"/>
      <point x="144" y="10"/>
      <point x="144" y="-3" type="curve" smooth="yes"/>
      <point x="144" y="-40"/>
      <point x="128" y="-76"/>
      <point x="100" y="-103" type="curve" smooth="yes"/>
      <point x="54" y="-149"/>
      <point x="-69" y="-211"/>
      <point x="-120" y="-239" type="curve"/>
      <point x="-111" y="-252" type="line"/>
      <point x="-90" y="-246"/>
      <point x="-72" y="-244"/>
      <point x="-57" y="-244" type="curve" smooth="yes"/>
      <point x="-35" y="-244"/>
      <point x="-3" y="-248"/>
      <point x="19" y="-248" type="curve" smooth="yes"/>
      <point x="59" y="-248"/>
      <point x="80" y="-235"/>
      <point x="101" y="-215" type="curve" smooth="yes"/>
      <point x="122" y="-195"/>
      <point x="142" y="-167"/>
      <point x="158" y="-130" type="curve" smooth="yes"/>
      <point x="191" y="-55"/>
      <point x="188" y="15"/>
      <point x="185" y="41" type="curve"/>
      <point x="215" y="48"/>
      <point x="248" y="56"/>
      <point x="275" y="65" type="curve"/>
      <point x="283" y="43"/>
      <point x="298" y="26"/>
      <point x="323" y="18" type="curve"/>
      <point x="315" y="-16" type="line"/>
      <point x="343" y="-16" type="line"/>
      <point x="351" y="10" type="line"/>
      <point x="372" y="6"/>
      <point x="381" y="5"/>
      <point x="400" y="5" type="curve" smooth="yes"/>
      <point x="497" y="5"/>
      <point x="571" y="32"/>
      <point x="624" y="73" type="curve" smooth="yes"/>
      <point x="652" y="95"/>
      <point x="675" y="120"/>
      <point x="691" y="146" type="curve" smooth="yes"/>
      <point x="708" y="174"/>
      <point x="717" y="206"/>
      <point x="717" y="226" type="curve" smooth="yes"/>
    </contour>
    <contour>
      <point x="648" y="146"/>
      <point x="629" y="130"/>
      <point x="597" y="117" type="curve" smooth="yes"/>
      <point x="573" y="107"/>
      <point x="541" y="99"/>
      <point x="501" y="99" type="curve" smooth="yes"/>
      <point x="386" y="99" type="line"/>
      <point x="405" y="126"/>
      <point x="435" y="163"/>
      <point x="455" y="184" type="curve" smooth="yes"/>
      <point x="495" y="226"/>
      <point x="533" y="247"/>
      <point x="569" y="247" type="curve" smooth="yes"/>
      <point x="607" y="247"/>
      <point x="633" y="223"/>
      <point x="645" y="209" type="curve" smooth="yes"/>
      <point x="655" y="197"/>
      <point x="659" y="187"/>
      <point x="665" y="166" type="curve"/>
    </contour>
  </outline>
</glyph>
<glyph name="hah_alefMaksura-ar.fina" format="1">
  <advance width="974"/>
  <unicode hex="FD1B"/>
  <outline>
    <contour>
      <point x="871" y="98" type="line" smooth="yes"/>
      <point x="812" y="98"/>
      <point x="779" y="113"/>
      <point x="769" y="140" type="curve"/>
      <point x="800" y="144"/>
      <point x="821" y="144"/>
      <point x="838" y="144" type="curve"/>
      <point x="854" y="174"/>
      <point x="858" y="182"/>
      <point x="872" y="215" type="curve"/>
      <point x="770" y="215"/>
      <point x="706" y="228"/>
      <point x="613" y="267" type="curve" smooth="yes"/>
      <point x="582" y="280"/>
      <point x="558" y="291"/>
      <point x="531" y="291" type="curve" smooth="yes"/>
      <point x="504" y="291"/>
      <point x="480" y="280"/>
      <point x="460" y="259" type="curve" smooth="yes"/>
      <point x="442" y="240"/>
      <point x="426" y="210"/>
      <point x="416" y="174" type="curve"/>
      <point x="432" y="163" type="line"/>
      <point x="442" y="177"/>
      <point x="457" y="213"/>
      <point x="494" y="216" type="curve" smooth="yes"/>
      <point x="516" y="218"/>
      <point x="549" y="212"/>
      <point x="587" y="201" type="curve" smooth="yes"/>
      <point x="612" y="194"/>
      <point x="675" y="173"/>
      <point x="675" y="173" type="curve"/>
      <point x="631" y="161"/>
      <point x="592" y="148"/>
      <point x="563" y="136" type="curve" smooth="yes"/>
      <point x="533" y="124"/>
      <point x="468" y="88"/>
      <point x="450" y="74" type="curve" smooth="yes"/>
      <point x="444" y="69"/>
      <point x="426" y="42"/>
      <point x="421" y="-2" type="curve"/>
      <point x="438" y="-5"/>
      <point x="464" y="-11"/>
      <point x="487" y="-19" type="curve" smooth="yes"/>
      <point x="524" y="-33"/>
      <point x="543" y="-50"/>
      <point x="543" y="-71" type="curve" smooth="yes"/>
      <point x="543" y="-95"/>
      <point x="495" y="-119"/>
      <point x="464" y="-132" type="curve"/>
      <point x="432" y="-147"/>
      <point x="367" y="-168"/>
      <point x="292" y="-168" type="curve" smooth="yes"/>
      <point x="217" y="-168"/>
      <point x="163" y="-152"/>
      <point x="132" y="-114" type="curve" smooth="yes"/>
      <point x="105" y="-81"/>
      <point x="109" y="-39"/>
      <point x="119" y="19" type="curve"/>
      <point x="100" y="26" type="line"/>
      <point x="85" y="-11"/>
      <point x="74" y="-50"/>
      <point x="71" y="-87" type="curve" smooth="yes"/>
      <point x="68" y="-120"/>
      <point x="72" y="-149"/>
      <point x="83" y="-175" type="curve" smooth="yes"/>
      <point x="97" y="-210"/>
      <point x="123" y="-237"/>
      <point x="159" y="-255" type="curve" smooth="yes"/>
      <point x="192" y="-272"/>
      <point x="234" y="-281"/>
      <point x="283" y="-281" type="curve" smooth="yes"/>
      <point x="342" y="-281"/>
      <point x="404" y="-266"/>
      <point x="457" y="-238" type="curve" smooth="yes"/>
      <point x="508" y="-211"/>
      <point x="547" y="-175"/>
      <point x="567" y="-137" type="curve" smooth="yes"/>
      <point x="581" y="-110"/>
      <point x="589" y="-83"/>
      <point x="589" y="-59" type="curve" smooth="yes"/>
      <point x="589" y="5"/>
      <point x="526" y="28"/>
      <point x="486" y="39" type="curve"/>
      <point x="486" y="39"/>
      <point x="546" y="81"/>
      <point x="619" y="104" type="curve" smooth="yes"/>
      <point x="670" y="120"/>
      <point x="710" y="130"/>
      <point x="741" y="135" type="curve"/>
      <point x="745" y="95"/>
      <point x="753" y="67"/>
      <point x="774" y="43" type="curve"/>
      <point x="797" y="15"/>
      <point x="835" y="0"/>
      <point x="884" y="0" type="curve" smooth="yes"/>
      <point x="974" y="0" type="line"/>
      <point x="974" y="98" type="line"/>
    </contour>
  </outline>
</glyph>
<glyph name="seen_reh-ar.fina" format="1">
  <advance width="716"/>
  <unicode hex="FD2A"/>
  <outline>
    <contour>
      <point x="680" y="98" type="line" smooth="yes"/>
      <point x="652" y="98"/>
      <point x="634" y="105"/>
      <point x="621" y="120" type="curve" smooth="yes"/>
      <point x="603" y="140"/>
      <point x="605" y="167"/>
      <point x="607" y="190" type="curve"/>
      <point x="585" y="178" type="line"/>
      <point x="583" y="145"/>
      <point x="573" y="95"/>
      <point x="519" y="95" type="curve" smooth="yes"/>
      <point x="474" y="95"/>
      <point x="462" y="130"/>
      <point x="461" y="160" type="curve"/>
      <point x="460" y="172"/>
      <point x="461" y="183"/>
      <point x="462" y="190" type="curve"/>
      <point x="440" y="178" type="line"/>
      <point x="438" y="143"/>
      <point x="425" y="94"/>
      <point x="362" y="94" type="curve" smooth="yes"/>
      <point x="332" y="94"/>
      <point x="314" y="105"/>
      <point x="304" y="119" type="curve" smooth="yes"/>
      <point x="298" y="128"/>
      <point x="296" y="134"/>
      <point x="293" y="146" type="curve"/>
      <point x="237" y="125"/>
      <point x="172" y="110"/>
      <point x="126" y="100" type="curve"/>
      <point x="125" y="91"/>
      <point x="122" y="66"/>
      <point x="114" y="27" type="curve"/>
      <point x="122" y="28"/>
      <point x="133" y="30"/>
      <point x="140" y="32" type="curve"/>
      <point x="142" y="21"/>
      <point x="144" y="10"/>
      <point x="144" y="-3" type="curve" smooth="yes"/>
      <point x="144" y="-40"/>
      <point x="128" y="-76"/>
      <point x="100" y="-103" type="curve" smooth="yes"/>
      <point x="54" y="-149"/>
      <point x="-69" y="-211"/>
      <point x="-120" y="-239" type="curve"/>
      <point x="-111" y="-252" type="line"/>
      <point x="-90" y="-246"/>
      <point x="-72" y="-244"/>
      <point x="-57" y="-244" type="curve" smooth="yes"/>
      <point x="-35" y="-244"/>
      <point x="-3" y="-248"/>
      <point x="19" y="-248" type="curve" smooth="yes"/>
      <point x="59" y="-248"/>
      <point x="80" y="-235"/>
      <point x="101" y="-215" type="curve" smooth="yes"/>
      <point x="122" y="-195"/>
      <point x="142" y="-167"/>
      <point x="158" y="-130" type="curve" smooth="yes"/>
      <point x="191" y="-55"/>
      <point x="188" y="15"/>
      <point x="185" y="41" type="curve"/>
      <point x="215" y="48"/>
      <point x="249" y="56"/>
      <point x="276" y="65" type="curve"/>
      <point x="283" y="28"/>
      <point x="306" y="-2"/>
      <point x="354" y="-2" type="curve" smooth="yes"/>
      <point x="411" y="-2"/>
      <point x="436" y="38"/>
      <point x="446" y="75" type="curve"/>
      <point x="444" y="37"/>
      <point x="467" y="-2"/>
      <point x="515" y="-2" type="curve" smooth="yes"/>
      <point x="571" y="-2"/>
      <point x="587" y="49"/>
      <point x="592" y="75" type="curve"/>
      <point x="592" y="33"/>
      <point x="620" y="0"/>
      <point x="678" y="0" type="curve" smooth="yes"/>
      <point x="716" y="0" type="line"/>
      <point x="716" y="98" type="line"/>
    </contour>
  </outline>
</glyph>
